<?xml version="1.0" encoding="utf-8" ?>
<svg baseProfile="full" height="300mm" version="1.1" viewBox="0,0,200,300" width="200mm" xmlns="http://www.w3.org/2000/svg" xmlns:ev="http://www.w3.org/2001/xml-events" xmlns:xlink="http://www.w3.org/1999/xlink"><defs /><rect fill="#222222" height="300" width="200" x="0" y="0" /><text fill="#555555" style="font-size:6px; font-family:Arial;" x="11" y="19">Running for 1721 Days</text><text fill="#555555" style="font-size:6px; font-family:Arial;" x="11" y="39">Races</text><text fill="#555555" style="font-size:8px; font-family:Arial;" x="11" y="59">1</text><text fill="#FFFFFF" style="font-size:10px; font-family:Arial; font-weight:bold;" x="23" y="59">10K</text><text fill="#555555" style="font-size:6px; font-family:Arial;" x="49" y="59">14x</text><text fill="#555555" style="font-size:6px; font-family:Arial;" x="11" y="97">Stats</text><text fill="#555555" style="font-size:5px; font-family:Arial;" x="11" y="103">Distance</text><text fill="#FFFFFF" style="font-size:10px; font-family:Arial; font-weight:bold;" x="11" y="114">917</text><text fill="#555555" style="font-size:6px; font-family:Arial;" x="29" y="114">km</text><text fill="#555555" style="font-size:5px; font-family:Arial;" x="53" y="103">Runs</text><text fill="#FFFFFF" style="font-size:10px; font-family:Arial; font-weight:bold;" x="53" y="114">185</text><text fill="#555555" style="font-size:5px; font-family:Arial;" x="11" y="131">Avg Pace</text><text fill="#FFFFFF" style="font-size:10px; font-family:Arial; font-weight:bold;" x="11" y="142">5'46"</text><text fill="#555555" style="font-size:5px; font-family:Arial;" x="53" y="131">Streak</text><text fill="#FFFFFF" style="font-size:10px; font-family:Arial; font-weight:bold;" x="53" y="142">7</text><text fill="#555555" style="font-size:6px; font-family:Arial;" x="59" y="142">d</text><text fill="#555555" style="font-size:5px; font-family:Arial;" x="11" y="159">Time</text><text fill="#FFFFFF" style="font-size:10px; font-family:Arial; font-weight:bold;" x="11" y="170">88</text><text fill="#555555" style="font-size:6px; font-family:Arial;" x="23" y="170">h</text><text fill="#555555" style="font-size:5px; font-family:Arial;" x="53" y="159">Longest</text><text fill="#FFFFFF" style="font-size:10px; font-family:Arial; font-weight:bold;" x="53" y="170">11.1</text><text fill="#555555" style="font-size:5px; font-family:Arial;" x="11" y="252.0645161290322">Runner</text><text fill="#FFFFFF" style="font-size:8px; font-family:Arial; font-weight:bold;" x="11" y="262.0645161290322">hydra</text><text fill="#555555" style="font-size:7px; font-family:Arial;" x="11" y="285.5806451612903">running_page/2022</text><circle cx="85.41666666666667" cy="17.419354838709676" fill="#555555" r="3.3125"><title>2022-01-01</title></circle><circle cx="85.41666666666667" cy="26.25806451612903" fill="#555555" r="3.3125"><title>2022-01-02</title></circle><circle cx="85.41666666666667" cy="35.096774193548384" fill="#555555" r="3.3125"><title>2022-01-03</title></circle><circle cx="85.41666666666667" cy="43.935483870967744" fill="#555555" r="3.3125"><title>2022-01-04</title></circle><circle cx="85.41666666666667" cy="52.774193548387096" fill="#555555" r="3.3125"><title>2022-01-05</title></circle><circle cx="85.41666666666667" cy="61.61290322580645" fill="#555555" r="3.3125"><title>2022-01-06</title></circle><circle cx="85.41666666666667" cy="70.45161290322581" fill="#555555" r="3.3125"><title>2022-01-07</title></circle><circle cx="85.41666666666667" cy="79.29032258064517" fill="#53676d" r="3.3125"><title>2022-01-08: 1 km</title></circle><circle cx="85.41666666666667" cy="88.12903225806451" fill="#555555" r="3.3125"><title>2022-01-09</title></circle><circle cx="85.41666666666667" cy="96.96774193548387" fill="#555555" r="3.3125"><title>2022-01-10</title></circle><circle cx="85.41666666666667" cy="105.80645161290322" fill="#555555" r="3.3125"><title>2022-01-11</title></circle><circle cx="85.41666666666667" cy="114.64516129032258" fill="#5098b0" r="3.3125"><title>2022-01-12: 5 km</title></circle><circle cx="85.41666666666667" cy="123.48387096774194" fill="#555555" r="3.3125"><title>2022-01-13</title></circle><circle cx="85.41666666666667" cy="132.32258064516128" fill="#555555" r="3.3125"><title>2022-01-14</title></circle><circle cx="85.41666666666667" cy="141.16129032258064" fill="#536f79" r="3.3125"><title>2022-01-15: 2 km</title></circle><circle cx="85.41666666666667" cy="149.99999999999997" fill="#527b88" r="3.3125"><title>2022-01-16: 3 km</title></circle><circle cx="85.41666666666667" cy="158.83870967741933" fill="#527a88" r="3.3125"><title>2022-01-17: 3 km</title></circle><circle cx="85.41666666666667" cy="167.6774193548387" fill="#546166" r="3.3125"><title>2022-01-18: 1 km</title></circle><circle cx="85.41666666666667" cy="176.51612903225805" fill="#51899b" r="3.3125"><title>2022-01-19: 4 km</title></circle><circle cx="85.41666666666667" cy="185.35483870967738" fill="#555555" r="3.3125"><title>2022-01-20</title></circle><circle cx="85.41666666666667" cy="194.19354838709674" fill="#555555" r="3.3125"><title>2022-01-21</title></circle><circle cx="85.41666666666667" cy="203.0322580645161" fill="#555555" r="3.3125"><title>2022-01-22</title></circle><circle cx="85.41666666666667" cy="211.87096774193546" fill="#5093aa" r="3.3125"><title>2022-01-23: 5 km</title></circle><circle cx="85.41666666666667" cy="220.70967741935482" fill="#555555" r="3.3125"><title>2022-01-24</title></circle><circle cx="85.41666666666667" cy="229.54838709677418" fill="#555555" r="3.3125"><title>2022-01-25</title></circle><circle cx="85.41666666666667" cy="238.3870967741935" fill="#518799" r="3.3125"><title>2022-01-26: 4 km</title></circle><circle cx="85.41666666666667" cy="247.22580645161287" fill="#555555" r="3.3125"><title>2022-01-27</title></circle><circle cx="85.41666666666667" cy="256.06451612903226" fill="#555555" r="3.3125"><title>2022-01-28</title></circle><circle cx="85.41666666666667" cy="264.90322580645164" fill="#555555" r="3.3125"><title>2022-01-29</title></circle><circle cx="85.41666666666667" cy="273.741935483871" fill="#555555" r="3.3125"><title>2022-01-30</title></circle><circle cx="85.41666666666667" cy="282.5806451612903" fill="#555555" r="3.3125"><title>2022-01-31</title></circle><circle cx="94.25" cy="17.419354838709676" fill="#555555" r="3.3125"><title>2022-02-01</title></circle><circle cx="94.25" cy="26.25806451612903" fill="#555555" r="3.3125"><title>2022-02-02</title></circle><circle cx="94.25" cy="35.096774193548384" fill="#555555" r="3.3125"><title>2022-02-03</title></circle><circle cx="94.25" cy="43.935483870967744" fill="#555555" r="3.3125"><title>2022-02-04</title></circle><circle cx="94.25" cy="52.774193548387096" fill="#555555" r="3.3125"><title>2022-02-05</title></circle><circle cx="94.25" cy="61.61290322580645" fill="#555555" r="3.3125"><title>2022-02-06</title></circle><circle cx="94.25" cy="70.45161290322581" fill="#555555" r="3.3125"><title>2022-02-07</title></circle><circle cx="94.25" cy="79.29032258064517" fill="#555555" r="3.3125"><title>2022-02-08</title></circle><circle cx="94.25" cy="88.12903225806451" fill="#555555" r="3.3125"><title>2022-02-09</title></circle><circle cx="94.25" cy="96.96774193548387" fill="#527e8d" r="3.3125"><title>2022-02-10: 3 km</title></circle><circle cx="94.25" cy="105.80645161290322" fill="#53727d" r="3.3125"><title>2022-02-11: 2 km</title></circle><circle cx="94.25" cy="114.64516129032258" fill="#527e8d" r="3.3125"><title>2022-02-12: 3 km</title></circle><circle cx="94.25" cy="123.48387096774194" fill="#555555" r="3.3125"><title>2022-02-13</title></circle><circle cx="94.25" cy="132.32258064516128" fill="#536e77" r="3.3125"><title>2022-02-14: 2 km</title></circle><circle cx="94.25" cy="141.16129032258064" fill="#536f79" r="3.3125"><title>2022-02-15: 2 km</title></circle><circle cx="94.25" cy="149.99999999999997" fill="#536e77" r="3.3125"><title>2022-02-16: 2 km</title></circle><circle cx="94.25" cy="158.83870967741933" fill="#536f79" r="3.3125"><title>2022-02-17: 2 km</title></circle><circle cx="94.25" cy="167.6774193548387" fill="#527a88" r="3.3125"><title>2022-02-18: 3 km</title></circle><circle cx="94.25" cy="176.51612903225805" fill="#536e77" r="3.3125"><title>2022-02-19: 2 km</title></circle><circle cx="94.25" cy="185.35483870967738" fill="#536e77" r="3.3125"><title>2022-02-20: 2 km</title></circle><circle cx="94.25" cy="194.19354838709674" fill="#555555" r="3.3125"><title>2022-02-21</title></circle><circle cx="94.25" cy="203.0322580645161" fill="#555555" r="3.3125"><title>2022-02-22</title></circle><circle cx="94.25" cy="211.87096774193546" fill="#536e77" r="3.3125"><title>2022-02-23: 2 km</title></circle><circle cx="94.25" cy="220.70967741935482" fill="#53727d" r="3.3125"><title>2022-02-24: 2 km</title></circle><circle cx="94.25" cy="229.54838709677418" fill="#527a88" r="3.3125"><title>2022-02-25: 3 km</title></circle><circle cx="94.25" cy="238.3870967741935" fill="#50a2bd" r="3.3125"><title>2022-02-26: 6 km</title></circle><circle cx="94.25" cy="247.22580645161287" fill="#518a9d" r="3.3125"><title>2022-02-27: 4 km</title></circle><circle cx="94.25" cy="256.06451612903226" fill="#555555" r="3.3125"><title>2022-02-28</title></circle><circle cx="103.08333333333334" cy="17.419354838709676" fill="#5094aa" r="3.3125"><title>2022-03-01: 5 km</title></circle><circle cx="103.08333333333334" cy="26.25806451612903" fill="#509ab3" r="3.3125"><title>2022-03-02: 5 km</title></circle><circle cx="103.08333333333334" cy="35.096774193548384" fill="#518799" r="3.3125"><title>2022-03-03: 4 km</title></circle><circle cx="103.08333333333334" cy="43.935483870967744" fill="#555555" r="3.3125"><title>2022-03-04</title></circle><circle cx="103.08333333333334" cy="52.774193548387096" fill="#555555" r="3.3125"><title>2022-03-05</title></circle><circle cx="103.08333333333334" cy="61.61290322580645" fill="#5094ab" r="3.3125"><title>2022-03-06: 5 km</title></circle><circle cx="103.08333333333334" cy="70.45161290322581" fill="#4faece" r="3.3125"><title>2022-03-07: 7 km</title></circle><circle cx="103.08333333333334" cy="79.29032258064517" fill="#FFFF00" r="3.3125"><title>2022-03-08: 10 km</title></circle><circle cx="103.08333333333334" cy="88.12903225806451" fill="#4faccc" r="3.3125"><title>2022-03-09: 7 km</title></circle><circle cx="103.08333333333334" cy="96.96774193548387" fill="#4dc6ef" r="3.3125"><title>2022-03-10: 9 km</title></circle><circle cx="103.08333333333334" cy="105.80645161290322" fill="#555555" r="3.3125"><title>2022-03-11</title></circle><circle cx="103.08333333333334" cy="114.64516129032258" fill="#555555" r="3.3125"><title>2022-03-12</title></circle><circle cx="103.08333333333334" cy="123.48387096774194" fill="#555555" r="3.3125"><title>2022-03-13</title></circle><circle cx="103.08333333333334" cy="132.32258064516128" fill="#4fa3c0" r="3.3125"><title>2022-03-14: 6 km</title></circle><circle cx="103.08333333333334" cy="141.16129032258064" fill="#50a0bb" r="3.3125"><title>2022-03-15: 6 km</title></circle><circle cx="103.08333333333334" cy="149.99999999999997" fill="#50a0bb" r="3.3125"><title>2022-03-16: 6 km</title></circle><circle cx="103.08333333333334" cy="158.83870967741933" fill="#5099b2" r="3.3125"><title>2022-03-17: 5 km</title></circle><circle cx="103.08333333333334" cy="167.6774193548387" fill="#527581" r="3.3125"><title>2022-03-18: 2 km</title></circle><circle cx="103.08333333333334" cy="176.51612903225805" fill="#536a72" r="3.3125"><title>2022-03-19: 1 km</title></circle><circle cx="103.08333333333334" cy="185.35483870967738" fill="#555555" r="3.3125"><title>2022-03-20</title></circle><circle cx="103.08333333333334" cy="194.19354838709674" fill="#4faccc" r="3.3125"><title>2022-03-21: 7 km</title></circle><circle cx="103.08333333333334" cy="203.0322580645161" fill="#555555" r="3.3125"><title>2022-03-22</title></circle><circle cx="103.08333333333334" cy="211.87096774193546" fill="#555555" r="3.3125"><title>2022-03-23</title></circle><circle cx="103.08333333333334" cy="220.70967741935482" fill="#555555" r="3.3125"><title>2022-03-24</title></circle><circle cx="103.08333333333334" cy="229.54838709677418" fill="#555555" r="3.3125"><title>2022-03-25</title></circle><circle cx="103.08333333333334" cy="238.3870967741935" fill="#4fb1d2" r="3.3125"><title>2022-03-26: 7 km</title></circle><circle cx="103.08333333333334" cy="247.22580645161287" fill="#FFFF00" r="3.3125"><title>2022-03-27: 14 km</title></circle><circle cx="103.08333333333334" cy="256.06451612903226" fill="#555555" r="3.3125"><title>2022-03-28</title></circle><circle cx="103.08333333333334" cy="264.90322580645164" fill="#5193aa" r="3.3125"><title>2022-03-29: 5 km</title></circle><circle cx="103.08333333333334" cy="273.741935483871" fill="#5098b0" r="3.3125"><title>2022-03-30: 5 km</title></circle><circle cx="103.08333333333334" cy="282.5806451612903" fill="#5093aa" r="3.3125"><title>2022-03-31: 5 km</title></circle><circle cx="111.91666666666667" cy="17.419354838709676" fill="#FFFF00" r="3.3125"><title>2022-04-01: 10 km</title></circle><circle cx="111.91666666666667" cy="26.25806451612903" fill="#5193aa" r="3.3125"><title>2022-04-02: 5 km</title></circle><circle cx="111.91666666666667" cy="35.096774193548384" fill="#555555" r="3.3125"><title>2022-04-03</title></circle><circle cx="111.91666666666667" cy="43.935483870967744" fill="#555555" r="3.3125"><title>2022-04-04</title></circle><circle cx="111.91666666666667" cy="52.774193548387096" fill="#FFFF00" r="3.3125"><title>2022-04-05: 13 km</title></circle><circle cx="111.91666666666667" cy="61.61290322580645" fill="#4eb3d5" r="3.3125"><title>2022-04-06: 7 km</title></circle><circle cx="111.91666666666667" cy="70.45161290322581" fill="#555555" r="3.3125"><title>2022-04-07</title></circle><circle cx="111.91666666666667" cy="79.29032258064517" fill="#555555" r="3.3125"><title>2022-04-08</title></circle><circle cx="111.91666666666667" cy="88.12903225806451" fill="#555555" r="3.3125"><title>2022-04-09</title></circle><circle cx="111.91666666666667" cy="96.96774193548387" fill="#555555" r="3.3125"><title>2022-04-10</title></circle><circle cx="111.91666666666667" cy="105.80645161290322" fill="#5093aa" r="3.3125"><title>2022-04-11: 5 km</title></circle><circle cx="111.91666666666667" cy="114.64516129032258" fill="#555555" r="3.3125"><title>2022-04-12</title></circle><circle cx="111.91666666666667" cy="123.48387096774194" fill="#555555" r="3.3125"><title>2022-04-13</title></circle><circle cx="111.91666666666667" cy="132.32258064516128" fill="#555555" r="3.3125"><title>2022-04-14</title></circle><circle cx="111.91666666666667" cy="141.16129032258064" fill="#555555" r="3.3125"><title>2022-04-15</title></circle><circle cx="111.91666666666667" cy="149.99999999999997" fill="#555555" r="3.3125"><title>2022-04-16</title></circle><circle cx="111.91666666666667" cy="158.83870967741933" fill="#FFFF00" r="3.3125"><title>2022-04-17: 12 km</title></circle><circle cx="111.91666666666667" cy="167.6774193548387" fill="#4faccc" r="3.3125"><title>2022-04-18: 7 km</title></circle><circle cx="111.91666666666667" cy="176.51612903225805" fill="#5095ac" r="3.3125"><title>2022-04-19: 5 km</title></circle><circle cx="111.91666666666667" cy="185.35483870967738" fill="#555555" r="3.3125"><title>2022-04-20</title></circle><circle cx="111.91666666666667" cy="194.19354838709674" fill="#555555" r="3.3125"><title>2022-04-21</title></circle><circle cx="111.91666666666667" cy="203.0322580645161" fill="#555555" r="3.3125"><title>2022-04-22</title></circle><circle cx="111.91666666666667" cy="211.87096774193546" fill="#555555" r="3.3125"><title>2022-04-23</title></circle><circle cx="111.91666666666667" cy="220.70967741935482" fill="#555555" r="3.3125"><title>2022-04-24</title></circle><circle cx="111.91666666666667" cy="229.54838709677418" fill="#555555" r="3.3125"><title>2022-04-25</title></circle><circle cx="111.91666666666667" cy="238.3870967741935" fill="#555555" r="3.3125"><title>2022-04-26</title></circle><circle cx="111.91666666666667" cy="247.22580645161287" fill="#555555" r="3.3125"><title>2022-04-27</title></circle><circle cx="111.91666666666667" cy="256.06451612903226" fill="#555555" r="3.3125"><title>2022-04-28</title></circle><circle cx="111.91666666666667" cy="264.90322580645164" fill="#53707a" r="3.3125"><title>2022-04-29: 2 km</title></circle><circle cx="111.91666666666667" cy="273.741935483871" fill="#555555" r="3.3125"><title>2022-04-30</title></circle><circle cx="120.75000000000001" cy="17.419354838709676" fill="#555555" r="3.3125"><title>2022-05-01</title></circle><circle cx="120.75000000000001" cy="26.25806451612903" fill="#527a88" r="3.3125"><title>2022-05-02: 3 km</title></circle><circle cx="120.75000000000001" cy="35.096774193548384" fill="#555555" r="3.3125"><title>2022-05-03</title></circle><circle cx="120.75000000000001" cy="43.935483870967744" fill="#555555" r="3.3125"><title>2022-05-04</title></circle><circle cx="120.75000000000001" cy="52.774193548387096" fill="#50a0bb" r="3.3125"><title>2022-05-05: 6 km</title></circle><circle cx="120.75000000000001" cy="61.61290322580645" fill="#4faccc" r="3.3125"><title>2022-05-06: 7 km</title></circle><circle cx="120.75000000000001" cy="70.45161290322581" fill="#FFFF00" r="3.3125"><title>2022-05-07: 10 km</title></circle><circle cx="120.75000000000001" cy="79.29032258064517" fill="#4dc5ee" r="3.3125"><title>2022-05-08: 9 km</title></circle><circle cx="120.75000000000001" cy="88.12903225806451" fill="#555555" r="3.3125"><title>2022-05-09</title></circle><circle cx="120.75000000000001" cy="96.96774193548387" fill="#518a9d" r="3.3125"><title>2022-05-10: 4 km</title></circle><circle cx="120.75000000000001" cy="105.80645161290322" fill="#4faccc" r="3.3125"><title>2022-05-11: 7 km</title></circle><circle cx="120.75000000000001" cy="114.64516129032258" fill="#4fadcc" r="3.3125"><title>2022-05-12: 7 km</title></circle><circle cx="120.75000000000001" cy="123.48387096774194" fill="#555555" r="3.3125"><title>2022-05-13</title></circle><circle cx="120.75000000000001" cy="132.32258064516128" fill="#555555" r="3.3125"><title>2022-05-14</title></circle><circle cx="120.75000000000001" cy="141.16129032258064" fill="#FFFF00" r="3.3125"><title>2022-05-15: 10 km</title></circle><circle cx="120.75000000000001" cy="149.99999999999997" fill="#518799" r="3.3125"><title>2022-05-16: 4 km</title></circle><circle cx="120.75000000000001" cy="158.83870967741933" fill="#5193aa" r="3.3125"><title>2022-05-17: 5 km</title></circle><circle cx="120.75000000000001" cy="167.6774193548387" fill="#555555" r="3.3125"><title>2022-05-18</title></circle><circle cx="120.75000000000001" cy="176.51612903225805" fill="#5193aa" r="3.3125"><title>2022-05-19: 5 km</title></circle><circle cx="120.75000000000001" cy="185.35483870967738" fill="#5096ad" r="3.3125"><title>2022-05-20: 5 km</title></circle><circle cx="120.75000000000001" cy="194.19354838709674" fill="#5193aa" r="3.3125"><title>2022-05-21: 5 km</title></circle><circle cx="120.75000000000001" cy="203.0322580645161" fill="#53646a" r="3.3125"><title>2022-05-22: 1 km</title></circle><circle cx="120.75000000000001" cy="211.87096774193546" fill="#5193aa" r="3.3125"><title>2022-05-23: 5 km</title></circle><circle cx="120.75000000000001" cy="220.70967741935482" fill="#555555" r="3.3125"><title>2022-05-24</title></circle><circle cx="120.75000000000001" cy="229.54838709677418" fill="#5093aa" r="3.3125"><title>2022-05-25: 5 km</title></circle><circle cx="120.75000000000001" cy="238.3870967741935" fill="#5097af" r="3.3125"><title>2022-05-26: 5 km</title></circle><circle cx="120.75000000000001" cy="247.22580645161287" fill="#4faccc" r="3.3125"><title>2022-05-27: 7 km</title></circle><circle cx="120.75000000000001" cy="256.06451612903226" fill="#555555" r="3.3125"><title>2022-05-28</title></circle><circle cx="120.75000000000001" cy="264.90322580645164" fill="#FFFF00" r="3.3125"><title>2022-05-29: 10 km</title></circle><circle cx="120.75000000000001" cy="273.741935483871" fill="#53646a" r="3.3125"><title>2022-05-30: 1 km</title></circle><circle cx="120.75000000000001" cy="282.5806451612903" fill="#52747f" r="3.3125"><title>2022-05-31: 2 km</title></circle><circle cx="129.58333333333334" cy="17.419354838709676" fill="#FFFF00" r="3.3125"><title>2022-06-01: 10 km</title></circle><circle cx="129.58333333333334" cy="26.25806451612903" fill="#555555" r="3.3125"><title>2022-06-02</title></circle><circle cx="129.58333333333334" cy="35.096774193548384" fill="#FFFF00" r="3.3125"><title>2022-06-03: 10 km</title></circle><circle cx="129.58333333333334" cy="43.935483870967744" fill="#555555" r="3.3125"><title>2022-06-04</title></circle><circle cx="129.58333333333334" cy="52.774193548387096" fill="#50a0bb" r="3.3125"><title>2022-06-05: 6 km</title></circle><circle cx="129.58333333333334" cy="61.61290322580645" fill="#50a0bb" r="3.3125"><title>2022-06-06: 6 km</title></circle><circle cx="129.58333333333334" cy="70.45161290322581" fill="#527b89" r="3.3125"><title>2022-06-07: 3 km</title></circle><circle cx="129.58333333333334" cy="79.29032258064517" fill="#4faccc" r="3.3125"><title>2022-06-08: 7 km</title></circle><circle cx="129.58333333333334" cy="88.12903225806451" fill="#5093aa" r="3.3125"><title>2022-06-09: 5 km</title></circle><circle cx="129.58333333333334" cy="96.96774193548387" fill="#4eb9dd" r="3.3125"><title>2022-06-10: 8 km</title></circle><circle cx="129.58333333333334" cy="105.80645161290322" fill="#555555" r="3.3125"><title>2022-06-11</title></circle><circle cx="129.58333333333334" cy="114.64516129032258" fill="#555555" r="3.3125"><title>2022-06-12</title></circle><circle cx="129.58333333333334" cy="123.48387096774194" fill="#50a0bb" r="3.3125"><title>2022-06-13: 6 km</title></circle><circle cx="129.58333333333334" cy="132.32258064516128" fill="#4faccc" r="3.3125"><title>2022-06-14: 7 km</title></circle><circle cx="129.58333333333334" cy="141.16129032258064" fill="#555555" r="3.3125"><title>2022-06-15</title></circle><circle cx="129.58333333333334" cy="149.99999999999997" fill="#4faccc" r="3.3125"><title>2022-06-16: 7 km</title></circle><circle cx="129.58333333333334" cy="158.83870967741933" fill="#5193aa" r="3.3125"><title>2022-06-17: 5 km</title></circle><circle cx="129.58333333333334" cy="167.6774193548387" fill="#555555" r="3.3125"><title>2022-06-18</title></circle><circle cx="129.58333333333334" cy="176.51612903225805" fill="#FFFF00" r="3.3125"><title>2022-06-19: 10 km</title></circle><circle cx="129.58333333333334" cy="185.35483870967738" fill="#555555" r="3.3125"><title>2022-06-20</title></circle><circle cx="129.58333333333334" cy="194.19354838709674" fill="#5093aa" r="3.3125"><title>2022-06-21: 5 km</title></circle><circle cx="129.58333333333334" cy="203.0322580645161" fill="#5193aa" r="3.3125"><title>2022-06-22: 5 km</title></circle><circle cx="129.58333333333334" cy="211.87096774193546" fill="#555555" r="3.3125"><title>2022-06-23</title></circle><circle cx="129.58333333333334" cy="220.70967741935482" fill="#4faccc" r="3.3125"><title>2022-06-24: 7 km</title></circle><circle cx="129.58333333333334" cy="229.54838709677418" fill="#4eb8db" r="3.3125"><title>2022-06-25: 7 km</title></circle><circle cx="129.58333333333334" cy="238.3870967741935" fill="#555555" r="3.3125"><title>2022-06-26</title></circle><circle cx="129.58333333333334" cy="247.22580645161287" fill="#555555" r="3.3125"><title>2022-06-27</title></circle><circle cx="129.58333333333334" cy="256.06451612903226" fill="#555555" r="3.3125"><title>2022-06-28</title></circle><circle cx="129.58333333333334" cy="264.90322580645164" fill="#555555" r="3.3125"><title>2022-06-29</title></circle><circle cx="129.58333333333334" cy="273.741935483871" fill="#528191" r="3.3125"><title>2022-06-30: 3 km</title></circle><circle cx="138.41666666666666" cy="17.419354838709676" fill="#555555" r="3.3125"><title>2022-07-01</title></circle><circle cx="138.41666666666666" cy="26.25806451612903" fill="#4faccc" r="3.3125"><title>2022-07-02: 7 km</title></circle><circle cx="138.41666666666666" cy="35.096774193548384" fill="#51889a" r="3.3125"><title>2022-07-03: 4 km</title></circle><circle cx="138.41666666666666" cy="43.935483870967744" fill="#4faccc" r="3.3125"><title>2022-07-04: 7 km</title></circle><circle cx="138.41666666666666" cy="52.774193548387096" fill="#555555" r="3.3125"><title>2022-07-05</title></circle><circle cx="138.41666666666666" cy="61.61290322580645" fill="#555555" r="3.3125"><title>2022-07-06</title></circle><circle cx="138.41666666666666" cy="70.45161290322581" fill="#555555" r="3.3125"><title>2022-07-07</title></circle><circle cx="138.41666666666666" cy="79.29032258064517" fill="#555555" r="3.3125"><title>2022-07-08</title></circle><circle cx="138.41666666666666" cy="88.12903225806451" fill="#555555" r="3.3125"><title>2022-07-09</title></circle><circle cx="138.41666666666666" cy="96.96774193548387" fill="#555555" r="3.3125"><title>2022-07-10</title></circle><circle cx="138.41666666666666" cy="105.80645161290322" fill="#5093aa" r="3.3125"><title>2022-07-11: 5 km</title></circle><circle cx="138.41666666666666" cy="114.64516129032258" fill="#555555" r="3.3125"><title>2022-07-12</title></circle><circle cx="138.41666666666666" cy="123.48387096774194" fill="#555555" r="3.3125"><title>2022-07-13</title></circle><circle cx="138.41666666666666" cy="132.32258064516128" fill="#555555" r="3.3125"><title>2022-07-14</title></circle><circle cx="138.41666666666666" cy="141.16129032258064" fill="#527a88" r="3.3125"><title>2022-07-15: 3 km</title></circle><circle cx="138.41666666666666" cy="149.99999999999997" fill="#555555" r="3.3125"><title>2022-07-16</title></circle><circle cx="138.41666666666666" cy="158.83870967741933" fill="#5193aa" r="3.3125"><title>2022-07-17: 5 km</title></circle><circle cx="138.41666666666666" cy="167.6774193548387" fill="#50a0bb" r="3.3125"><title>2022-07-18: 6 km</title></circle><circle cx="138.41666666666666" cy="176.51612903225805" fill="#4fa6c4" r="3.3125"><title>2022-07-19: 6 km</title></circle><circle cx="138.41666666666666" cy="185.35483870967738" fill="#4eb9dd" r="3.3125"><title>2022-07-20: 8 km</title></circle><circle cx="138.41666666666666" cy="194.19354838709674" fill="#555555" r="3.3125"><title>2022-07-21</title></circle><circle cx="138.41666666666666" cy="203.0322580645161" fill="#546368" r="3.3125"><title>2022-07-22: 1 km</title></circle><circle cx="138.41666666666666" cy="211.87096774193546" fill="#5093aa" r="3.3125"><title>2022-07-23: 5 km</title></circle><circle cx="138.41666666666666" cy="220.70967741935482" fill="#555555" r="3.3125"><title>2022-07-24</title></circle><circle cx="138.41666666666666" cy="229.54838709677418" fill="#555555" r="3.3125"><title>2022-07-25</title></circle><circle cx="138.41666666666666" cy="238.3870967741935" fill="#50a0bb" r="3.3125"><title>2022-07-26: 6 km</title></circle><circle cx="138.41666666666666" cy="247.22580645161287" fill="#555555" r="3.3125"><title>2022-07-27</title></circle><circle cx="138.41666666666666" cy="256.06451612903226" fill="#555555" r="3.3125"><title>2022-07-28</title></circle><circle cx="138.41666666666666" cy="264.90322580645164" fill="#527a88" r="3.3125"><title>2022-07-29: 3 km</title></circle><circle cx="138.41666666666666" cy="273.741935483871" fill="#555555" r="3.3125"><title>2022-07-30</title></circle><circle cx="138.41666666666666" cy="282.5806451612903" fill="#50a0bc" r="3.3125"><title>2022-07-31: 6 km</title></circle><circle cx="147.25" cy="17.419354838709676" fill="#527a88" r="3.3125"><title>2022-08-01: 3 km</title></circle><circle cx="147.25" cy="26.25806451612903" fill="#4faccc" r="3.3125"><title>2022-08-02: 7 km</title></circle><circle cx="147.25" cy="35.096774193548384" fill="#4eb9dd" r="3.3125"><title>2022-08-03: 8 km</title></circle><circle cx="147.25" cy="43.935483870967744" fill="#555555" r="3.3125"><title>2022-08-04</title></circle><circle cx="147.25" cy="52.774193548387096" fill="#555555" r="3.3125"><title>2022-08-05</title></circle><circle cx="147.25" cy="61.61290322580645" fill="#4ebade" r="3.3125"><title>2022-08-06: 8 km</title></circle><circle cx="147.25" cy="70.45161290322581" fill="#4fadcc" r="3.3125"><title>2022-08-07: 7 km</title></circle><circle cx="147.25" cy="79.29032258064517" fill="#555555" r="3.3125"><title>2022-08-08</title></circle><circle cx="147.25" cy="88.12903225806451" fill="#4eb9de" r="3.3125"><title>2022-08-09: 8 km</title></circle><circle cx="147.25" cy="96.96774193548387" fill="#50a0bb" r="3.3125"><title>2022-08-10: 6 km</title></circle><circle cx="147.25" cy="105.80645161290322" fill="#50a0bc" r="3.3125"><title>2022-08-11: 6 km</title></circle><circle cx="147.25" cy="114.64516129032258" fill="#50a0bb" r="3.3125"><title>2022-08-12: 6 km</title></circle><circle cx="147.25" cy="123.48387096774194" fill="#555555" r="3.3125"><title>2022-08-13</title></circle><circle cx="147.25" cy="132.32258064516128" fill="#555555" r="3.3125"><title>2022-08-14</title></circle><circle cx="147.25" cy="141.16129032258064" fill="#555555" r="3.3125"><title>2022-08-15</title></circle><circle cx="147.25" cy="149.99999999999997" fill="#5193aa" r="3.3125"><title>2022-08-16: 5 km</title></circle><circle cx="147.25" cy="158.83870967741933" fill="#50a0bb" r="3.3125"><title>2022-08-17: 6 km</title></circle><circle cx="147.25" cy="167.6774193548387" fill="#527d8c" r="3.3125"><title>2022-08-18: 3 km</title></circle><circle cx="147.25" cy="176.51612903225805" fill="#527b89" r="3.3125"><title>2022-08-19: 3 km</title></circle><circle cx="147.25" cy="185.35483870967738" fill="#555555" r="3.3125"><title>2022-08-20</title></circle><circle cx="147.25" cy="194.19354838709674" fill="#555555" r="3.3125"><title>2022-08-21</title></circle><circle cx="147.25" cy="203.0322580645161" fill="#50a0bb" r="3.3125"><title>2022-08-22: 6 km</title></circle><circle cx="147.25" cy="211.87096774193546" fill="#50a1bc" r="3.3125"><title>2022-08-23: 6 km</title></circle><circle cx="147.25" cy="220.70967741935482" fill="#518799" r="3.3125"><title>2022-08-24: 4 km</title></circle><circle cx="147.25" cy="229.54838709677418" fill="#5193aa" r="3.3125"><title>2022-08-25: 5 km</title></circle><circle cx="147.25" cy="238.3870967741935" fill="#555555" r="3.3125"><title>2022-08-26</title></circle><circle cx="147.25" cy="247.22580645161287" fill="#FFFF00" r="3.3125"><title>2022-08-27: 10 km</title></circle><circle cx="147.25" cy="256.06451612903226" fill="#536e77" r="3.3125"><title>2022-08-28: 2 km</title></circle><circle cx="147.25" cy="264.90322580645164" fill="#5094ab" r="3.3125"><title>2022-08-29: 5 km</title></circle><circle cx="147.25" cy="273.741935483871" fill="#555555" r="3.3125"><title>2022-08-30</title></circle><circle cx="147.25" cy="282.5806451612903" fill="#50a1bc" r="3.3125"><title>2022-08-31: 6 km</title></circle><circle cx="156.08333333333334" cy="17.419354838709676" fill="#5193aa" r="3.3125"><title>2022-09-01: 5 km</title></circle><circle cx="156.08333333333334" cy="26.25806451612903" fill="#555555" r="3.3125"><title>2022-09-02</title></circle><circle cx="156.08333333333334" cy="35.096774193548384" fill="#5094ab" r="3.3125"><title>2022-09-03: 5 km</title></circle><circle cx="156.08333333333334" cy="43.935483870967744" fill="#555555" r="3.3125"><title>2022-09-04</title></circle><circle cx="156.08333333333334" cy="52.774193548387096" fill="#4eb9dd" r="3.3125"><title>2022-09-05: 8 km</title></circle><circle cx="156.08333333333334" cy="61.61290322580645" fill="#509bb4" r="3.3125"><title>2022-09-06: 5 km</title></circle><circle cx="156.08333333333334" cy="70.45161290322581" fill="#518495" r="3.3125"><title>2022-09-07: 3 km</title></circle><circle cx="156.08333333333334" cy="79.29032258064517" fill="#53707a" r="3.3125"><title>2022-09-08: 2 km</title></circle><circle cx="156.08333333333334" cy="88.12903225806451" fill="#555555" r="3.3125"><title>2022-09-09</title></circle><circle cx="156.08333333333334" cy="96.96774193548387" fill="#555555" r="3.3125"><title>2022-09-10</title></circle><circle cx="156.08333333333334" cy="105.80645161290322" fill="#5096ae" r="3.3125"><title>2022-09-11: 5 km</title></circle><circle cx="156.08333333333334" cy="114.64516129032258" fill="#50a0bb" r="3.3125"><title>2022-09-12: 6 km</title></circle><circle cx="156.08333333333334" cy="123.48387096774194" fill="#4eb9dd" r="3.3125"><title>2022-09-13: 8 km</title></circle><circle cx="156.08333333333334" cy="132.32258064516128" fill="#555555" r="3.3125"><title>2022-09-14</title></circle><circle cx="156.08333333333334" cy="141.16129032258064" fill="#FFFF00" r="3.3125"><title>2022-09-15: 10 km</title></circle><circle cx="156.08333333333334" cy="149.99999999999997" fill="#50a0bb" r="3.3125"><title>2022-09-16: 6 km</title></circle><circle cx="156.08333333333334" cy="158.83870967741933" fill="#518495" r="3.3125"><title>2022-09-17: 3 km</title></circle><circle cx="156.08333333333334" cy="167.6774193548387" fill="#FFFF00" r="3.3125"><title>2022-09-18: 11 km</title></circle><circle cx="156.08333333333334" cy="176.51612903225805" fill="#4fa3bf" r="3.3125"><title>2022-09-19: 6 km</title></circle><circle cx="156.08333333333334" cy="185.35483870967738" fill="#518799" r="3.3125"><title>2022-09-20: 4 km</title></circle><circle cx="156.08333333333334" cy="194.19354838709674" fill="#FFFF00" r="3.3125"><title>2022-09-21: 11 km</title></circle><circle cx="156.08333333333334" cy="203.0322580645161" fill="#555555" r="3.3125"><title>2022-09-22</title></circle><circle cx="156.08333333333334" cy="211.87096774193546" fill="#555555" r="3.3125"><title>2022-09-23</title></circle><circle cx="156.08333333333334" cy="220.70967741935482" fill="#555555" r="3.3125"><title>2022-09-24</title></circle><circle cx="156.08333333333334" cy="229.54838709677418" fill="#555555" r="3.3125"><title>2022-09-25</title></circle><circle cx="156.08333333333334" cy="238.3870967741935" fill="#555555" r="3.3125"><title>2022-09-26</title></circle><circle cx="156.08333333333334" cy="247.22580645161287" fill="#555555" r="3.3125"><title>2022-09-27</title></circle><circle cx="156.08333333333334" cy="256.06451612903226" fill="#555555" r="3.3125"><title>2022-09-28</title></circle><circle cx="156.08333333333334" cy="264.90322580645164" fill="#555555" r="3.3125"><title>2022-09-29</title></circle><circle cx="156.08333333333334" cy="273.741935483871" fill="#555555" r="3.3125"><title>2022-09-30</title></circle><circle cx="164.91666666666666" cy="17.419354838709676" fill="#555555" r="3.3125"><title>2022-10-01</title></circle><circle cx="164.91666666666666" cy="26.25806451612903" fill="#555555" r="3.3125"><title>2022-10-02</title></circle><circle cx="164.91666666666666" cy="35.096774193548384" fill="#555555" r="3.3125"><title>2022-10-03</title></circle><circle cx="164.91666666666666" cy="43.935483870967744" fill="#555555" r="3.3125"><title>2022-10-04</title></circle><circle cx="164.91666666666666" cy="52.774193548387096" fill="#555555" r="3.3125"><title>2022-10-05</title></circle><circle cx="164.91666666666666" cy="61.61290322580645" fill="#555555" r="3.3125"><title>2022-10-06</title></circle><circle cx="164.91666666666666" cy="70.45161290322581" fill="#555555" r="3.3125"><title>2022-10-07</title></circle><circle cx="164.91666666666666" cy="79.29032258064517" fill="#555555" r="3.3125"><title>2022-10-08</title></circle><circle cx="164.91666666666666" cy="88.12903225806451" fill="#555555" r="3.3125"><title>2022-10-09</title></circle><circle cx="164.91666666666666" cy="96.96774193548387" fill="#555555" r="3.3125"><title>2022-10-10</title></circle><circle cx="164.91666666666666" cy="105.80645161290322" fill="#555555" r="3.3125"><title>2022-10-11</title></circle><circle cx="164.91666666666666" cy="114.64516129032258" fill="#555555" r="3.3125"><title>2022-10-12</title></circle><circle cx="164.91666666666666" cy="123.48387096774194" fill="#555555" r="3.3125"><title>2022-10-13</title></circle><circle cx="164.91666666666666" cy="132.32258064516128" fill="#555555" r="3.3125"><title>2022-10-14</title></circle><circle cx="164.91666666666666" cy="141.16129032258064" fill="#555555" r="3.3125"><title>2022-10-15</title></circle><circle cx="164.91666666666666" cy="149.99999999999997" fill="#555555" r="3.3125"><title>2022-10-16</title></circle><circle cx="164.91666666666666" cy="158.83870967741933" fill="#555555" r="3.3125"><title>2022-10-17</title></circle><circle cx="164.91666666666666" cy="167.6774193548387" fill="#555555" r="3.3125"><title>2022-10-18</title></circle><circle cx="164.91666666666666" cy="176.51612903225805" fill="#555555" r="3.3125"><title>2022-10-19</title></circle><circle cx="164.91666666666666" cy="185.35483870967738" fill="#555555" r="3.3125"><title>2022-10-20</title></circle><circle cx="164.91666666666666" cy="194.19354838709674" fill="#555555" r="3.3125"><title>2022-10-21</title></circle><circle cx="164.91666666666666" cy="203.0322580645161" fill="#50a0bb" r="3.3125"><title>2022-10-22: 6 km</title></circle><circle cx="164.91666666666666" cy="211.87096774193546" fill="#555555" r="3.3125"><title>2022-10-23</title></circle><circle cx="164.91666666666666" cy="220.70967741935482" fill="#555555" r="3.3125"><title>2022-10-24</title></circle><circle cx="164.91666666666666" cy="229.54838709677418" fill="#555555" r="3.3125"><title>2022-10-25</title></circle><circle cx="164.91666666666666" cy="238.3870967741935" fill="#5094aa" r="3.3125"><title>2022-10-26: 5 km</title></circle><circle cx="164.91666666666666" cy="247.22580645161287" fill="#555555" r="3.3125"><title>2022-10-27</title></circle><circle cx="164.91666666666666" cy="256.06451612903226" fill="#5093aa" r="3.3125"><title>2022-10-28: 5 km</title></circle><circle cx="164.91666666666666" cy="264.90322580645164" fill="#527783" r="3.3125"><title>2022-10-29: 2 km</title></circle><circle cx="164.91666666666666" cy="273.741935483871" fill="#527a88" r="3.3125"><title>2022-10-30: 3 km</title></circle><circle cx="164.91666666666666" cy="282.5806451612903" fill="#5093aa" r="3.3125"><title>2022-10-31: 5 km</title></circle><circle cx="173.75" cy="17.419354838709676" fill="#555555" r="3.3125"><title>2022-11-01</title></circle><circle cx="173.75" cy="26.25806451612903" fill="#555555" r="3.3125"><title>2022-11-02</title></circle><circle cx="173.75" cy="35.096774193548384" fill="#555555" r="3.3125"><title>2022-11-03</title></circle><circle cx="173.75" cy="43.935483870967744" fill="#555555" r="3.3125"><title>2022-11-04</title></circle><circle cx="173.75" cy="52.774193548387096" fill="#555555" r="3.3125"><title>2022-11-05</title></circle><circle cx="173.75" cy="61.61290322580645" fill="#5093aa" r="3.3125"><title>2022-11-06: 5 km</title></circle><circle cx="173.75" cy="70.45161290322581" fill="#555555" r="3.3125"><title>2022-11-07</title></circle><circle cx="173.75" cy="79.29032258064517" fill="#5093aa" r="3.3125"><title>2022-11-08: 5 km</title></circle><circle cx="173.75" cy="88.12903225806451" fill="#555555" r="3.3125"><title>2022-11-09</title></circle><circle cx="173.75" cy="96.96774193548387" fill="#555555" r="3.3125"><title>2022-11-10</title></circle><circle cx="173.75" cy="105.80645161290322" fill="#555555" r="3.3125"><title>2022-11-11</title></circle><circle cx="173.75" cy="114.64516129032258" fill="#555555" r="3.3125"><title>2022-11-12</title></circle><circle cx="173.75" cy="123.48387096774194" fill="#FFFF00" r="3.3125"><title>2022-11-13: 21 km</title></circle><circle cx="173.75" cy="132.32258064516128" fill="#53656b" r="3.3125"><title>2022-11-14: 1 km</title></circle><circle cx="173.75" cy="141.16129032258064" fill="#555555" r="3.3125"><title>2022-11-15</title></circle><circle cx="173.75" cy="149.99999999999997" fill="#555555" r="3.3125"><title>2022-11-16</title></circle><circle cx="173.75" cy="158.83870967741933" fill="#5093aa" r="3.3125"><title>2022-11-17: 5 km</title></circle><circle cx="173.75" cy="167.6774193548387" fill="#555555" r="3.3125"><title>2022-11-18</title></circle><circle cx="173.75" cy="176.51612903225805" fill="#555555" r="3.3125"><title>2022-11-19</title></circle><circle cx="173.75" cy="185.35483870967738" fill="#555555" r="3.3125"><title>2022-11-20</title></circle><circle cx="173.75" cy="194.19354838709674" fill="#555555" r="3.3125"><title>2022-11-21</title></circle><circle cx="173.75" cy="203.0322580645161" fill="#555555" r="3.3125"><title>2022-11-22</title></circle><circle cx="173.75" cy="211.87096774193546" fill="#527a88" r="3.3125"><title>2022-11-23: 3 km</title></circle><circle cx="173.75" cy="220.70967741935482" fill="#536c74" r="3.3125"><title>2022-11-24: 1 km</title></circle><circle cx="173.75" cy="229.54838709677418" fill="#555555" r="3.3125"><title>2022-11-25</title></circle><circle cx="173.75" cy="238.3870967741935" fill="#555555" r="3.3125"><title>2022-11-26</title></circle><circle cx="173.75" cy="247.22580645161287" fill="#555555" r="3.3125"><title>2022-11-27</title></circle><circle cx="173.75" cy="256.06451612903226" fill="#5097ae" r="3.3125"><title>2022-11-28: 5 km</title></circle><circle cx="173.75" cy="264.90322580645164" fill="#555555" r="3.3125"><title>2022-11-29</title></circle><circle cx="173.75" cy="273.741935483871" fill="#50a0bb" r="3.3125"><title>2022-11-30: 6 km</title></circle><circle cx="182.58333333333334" cy="17.419354838709676" fill="#5093aa" r="3.3125"><title>2022-12-01: 5 km</title></circle><circle cx="182.58333333333334" cy="26.25806451612903" fill="#555555" r="3.3125"><title>2022-12-02</title></circle><circle cx="182.58333333333334" cy="35.096774193548384" fill="#555555" r="3.3125"><title>2022-12-03</title></circle><circle cx="182.58333333333334" cy="43.935483870967744" fill="#555555" r="3.3125"><title>2022-12-04</title></circle><circle cx="182.58333333333334" cy="52.774193548387096" fill="#5093aa" r="3.3125"><title>2022-12-05: 5 km</title></circle><circle cx="182.58333333333334" cy="61.61290322580645" fill="#555555" r="3.3125"><title>2022-12-06</title></circle><circle cx="182.58333333333334" cy="70.45161290322581" fill="#527f8e" r="3.3125"><title>2022-12-07: 3 km</title></circle><circle cx="182.58333333333334" cy="79.29032258064517" fill="#5094aa" r="3.3125"><title>2022-12-08: 5 km</title></circle><circle cx="182.58333333333334" cy="88.12903225806451" fill="#5093aa" r="3.3125"><title>2022-12-09: 5 km</title></circle><circle cx="182.58333333333334" cy="96.96774193548387" fill="#555555" r="3.3125"><title>2022-12-10</title></circle><circle cx="182.58333333333334" cy="105.80645161290322" fill="#4faccc" r="3.3125"><title>2022-12-11: 7 km</title></circle><circle cx="182.58333333333334" cy="114.64516129032258" fill="#555555" r="3.3125"><title>2022-12-12</title></circle><circle cx="182.58333333333334" cy="123.48387096774194" fill="#555555" r="3.3125"><title>2022-12-13</title></circle><circle cx="182.58333333333334" cy="132.32258064516128" fill="#555555" r="3.3125"><title>2022-12-14</title></circle><circle cx="182.58333333333334" cy="141.16129032258064" fill="#555555" r="3.3125"><title>2022-12-15</title></circle><circle cx="182.58333333333334" cy="149.99999999999997" fill="#555555" r="3.3125"><title>2022-12-16</title></circle><circle cx="182.58333333333334" cy="158.83870967741933" fill="#555555" r="3.3125"><title>2022-12-17</title></circle><circle cx="182.58333333333334" cy="167.6774193548387" fill="#53707a" r="3.3125"><title>2022-12-18: 2 km</title></circle><circle cx="182.58333333333334" cy="176.51612903225805" fill="#555555" r="3.3125"><title>2022-12-19</title></circle><circle cx="182.58333333333334" cy="185.35483870967738" fill="#555555" r="3.3125"><title>2022-12-20</title></circle><circle cx="182.58333333333334" cy="194.19354838709674" fill="#555555" r="3.3125"><title>2022-12-21</title></circle><circle cx="182.58333333333334" cy="203.0322580645161" fill="#555555" r="3.3125"><title>2022-12-22</title></circle><circle cx="182.58333333333334" cy="211.87096774193546" fill="#555555" r="3.3125"><title>2022-12-23</title></circle><circle cx="182.58333333333334" cy="220.70967741935482" fill="#555555" r="3.3125"><title>2022-12-24</title></circle><circle cx="182.58333333333334" cy="229.54838709677418" fill="#555555" r="3.3125"><title>2022-12-25</title></circle><circle cx="182.58333333333334" cy="238.3870967741935" fill="#555555" r="3.3125"><title>2022-12-26</title></circle><circle cx="182.58333333333334" cy="247.22580645161287" fill="#555555" r="3.3125"><title>2022-12-27</title></circle><circle cx="182.58333333333334" cy="256.06451612903226" fill="#555555" r="3.3125"><title>2022-12-28</title></circle><circle cx="182.58333333333334" cy="264.90322580645164" fill="#555555" r="3.3125"><title>2022-12-29</title></circle><circle cx="182.58333333333334" cy="273.741935483871" fill="#555555" r="3.3125"><title>2022-12-30</title></circle><circle cx="182.58333333333334" cy="282.5806451612903" fill="#555555" r="3.3125"><title>2022-12-31</title></circle></svg>