<?xml version="1.0" encoding="utf-8" ?>
<svg baseProfile="full" height="200mm" version="1.1" viewBox="0,0,200,200" width="200mm" xmlns="http://www.w3.org/2000/svg" xmlns:ev="http://www.w3.org/2001/xml-events" xmlns:xlink="http://www.w3.org/1999/xlink"><defs /><rect fill="#1a1a1a" height="200" width="200" x="0" y="0" /><rect fill="#1a1a1a" height="200" width="180" x="10" y="0" /><text alignment-baseline="middle" fill="#e1ed5e" style="dominant-baseline: central; font-size:9.0px; font-family:Arial;" text-anchor="middle" x="100.0" y="100.0">2024</text><line stroke="#e1ed5e" stroke-width="0.3" x1="100.0" x2="100.0" y1="15.0" y2="10.0" /><path d="M 100.0 14.0 a86.0,86.0 0 0,1 42.35913384403234,11.155469271406648" fill="none" id="id37" stroke="none" /><text fill="#e1ed5e" style="font-size:6.75px; font-family:Arial;" text-anchor="middle"><textPath startOffset="22.145653131862478" xlink:href="#id37">January</textPath></text><path d="M 100.0 79.0 l 0.0 -9.31304347826087 a30.31304347826087,30.31304347826087 0 0,0 0.5203637002166077,0.004466696524140828 l -0.159870775367753 9.311671179931164" fill="red" stroke="none" /><path d="M 100.36049292484886 79.00309439819443 l 0.3926238159766875 -22.868368927183887 a43.87173913043478,43.87173913043478 0 0,0 0.7528947938652556,0.01939189918827534 l -0.7851319239126844 22.85825931064557" fill="red" stroke="none" /><path d="M 100.72087961077811 79.0123766808444 l 0.8650555329337362 -25.185147982986734 a46.2,46.2 0 0,0 0.7923833266781602,0.03402834946317197 l -1.2972646202127327 25.166587065097733" fill="red" stroke="none" /><path d="M 101.08105385017728 79.02784411241856 l 0.4418220083333221 -8.57122892796807 a29.582608695652176,29.582608695652176 0 0,0 0.506927086561227,0.030495474716521198 l -0.5888934470270114 8.562381475426857" fill="red" stroke="none" /><path d="M 101.44090949804482 79.04949213459386 l 1.1401979506267665 -16.578227963060506 a37.61739130434783,37.61739130434783 0 0,0 0.6438503224026252,0.049838086947990856 l -1.4246172678046252 16.55621210911746" fill="red" stroke="none" /><path d="M 101.80034050326958 79.07731436759882 l 2.6378902156602124 -30.656282861387826 a51.7695652173913,51.7695652173913 0 0,0 0.8847675980899898,0.0837884114285254 l -3.1637573771352154 30.606482694454115" fill="red" stroke="none" /><path d="M 102.15924093988457 79.11130261209362 l 2.7319091891583014 -26.42874321687284 a47.5695652173913,47.5695652173913 0 0,0 0.8115460663738475,0.09093542946029644 l -3.1851911571329454 26.37795202690557" fill="red" stroke="none" /><path d="M 102.51750503828377 79.15144685158666 l 2.0906237491834805 -17.313363701508475 a38.43913043478261,38.43913043478261 0 0,0 0.6544210303651161,0.0847279043462298 l -2.387522601439388 17.27492420096185" fill="red" stroke="none" /><path d="M 102.87502721639298 79.19773525538626 l 3.1312796422019193 -22.656379645764094 a43.87173913043478,43.87173913043478 0 0,0 0.7451403771978643,0.10950997512994348 l -3.519745125007466 22.599288597335267" fill="red" stroke="none" /><path d="M 103.58742460773223 79.30868818359171 l 7.8143466455384605 -45.07107486965458 a66.74347826086957,66.74347826086957 0 0,0 1.1272187381486076,0.20541680372248472 l -8.586900117238121 44.93028989200073" fill="red" stroke="none" /><path d="M 103.94208987418118 79.37332000966035 l 4.379147664579521 -22.913551032746874 a44.32826086956521,44.32826086956521 0 0,0 0.7461998098900887,0.14926086052252993 l -4.771843960000566 22.835000775561483" fill="red" stroke="none" /><path d="M 104.29559338865022 79.4440306129975 l 4.687799741526977 -22.432818765815792 a43.91739130434783,43.91739130434783 0 0,0 0.7366359895921587,0.16054638538122296 l -5.07219814773827 22.34904092230085" fill="red" stroke="none" /><path d="M 104.64783097203109 79.52079915486377 l 7.173826065526236 -31.6092013044494 a53.41304347826087,53.41304347826087 0 0,0 0.8924247394007273,0.21060980855198663 l -7.715382958666848 31.481395352251187" fill="red" stroke="none" /><path d="M 105.3480935250658 79.69241777938227 l 5.836397716484856 -22.16175277119587 a43.91739130434783,43.91739130434783 0 0,0 0.7273945484800556,0.19825461876812034 l -6.215973665899605 22.05829765828361" fill="red" stroke="none" /><path d="M 106.04205211174951 79.88797359093562 l 6.35728961323209 -21.161349526059052 a43.095652173913045,43.095652173913045 0 0,0 0.7066853099330025,0.2189329154576642 l -6.719615556036723 21.04910002279474" fill="red" stroke="none" /><path d="M 107.40779381753099 80.34994680014964 l 6.183897447678044 -16.403522671179434 a38.530434782608694,38.530434782608694 0 0,0 0.6169048053379655,0.23863203132933852 l -6.464574515509535 16.294950751712058" fill="red" stroke="none" /><path d="M 107.74402155503746 80.48000691201159 l 11.801215456698397 -29.746772075391025 a53.00217391304348,53.00217391304348 0 0,0 0.842849501212825,0.3427795545900872 l -12.310119419101662 29.539805264221645" fill="red" stroke="none" /><path d="M 108.4095320186766 80.7573450057729 l 10.987236398314423 -25.14094706854454 a48.436956521739134,48.436956521739134 0 0,0 0.7590453903699454,0.33951134844488345 l -11.41719519154 24.948631969189805" fill="red" stroke="none" /><path d="M 109.06512990194946 81.05736502329252 l 14.445087430715116 -30.184677038970843 a54.46304347826087,54.46304347826087 0 0,0 0.8398713535442478,0.41082316550872866 l -14.961119033521431 29.932260123364895" fill="red" stroke="none" /><path d="M 110.02825361518725 81.54914285379988 l 5.995151617774987 -11.030403728706588 a33.55434782608695,33.55434782608695 0 0,0 0.5037239602288397,0.2794071894709514 l -6.183619766159927 10.92586362380249" fill="red" stroke="none" /><path d="M 110.34350942703115 81.72400993836675 l 13.536505815375552 -23.917708732833095 a48.482608695652175,48.482608695652175 0 0,0 0.7207921720266478,0.4161495545493602 l -13.945090455262598 23.681812281007563" fill="red" stroke="none" /><line stroke="#e1ed5e" stroke-width="0.3" x1="143.13028292997686" x2="145.6673583964461" y1="26.7553504044142" y2="22.446841604673864" /><path d="M 143.63769802327073 25.89364864446614 a86.0,86.0 0 0,1 29.32050498858742,28.57503671076993" fill="none" id="id38" stroke="none" /><text fill="#e1ed5e" style="font-size:6.75px; font-family:Arial;" text-anchor="middle"><textPath startOffset="20.669276256404974" xlink:href="#id38">February</textPath></text><path d="M 110.65571695917076 81.90426304109057 l 11.582301042576905 -19.669279303162423 a43.826086956521735,43.826086956521735 0 0,0 0.645009899358398,0.3873099119250343 l -11.918243698492738 19.467555390701467" fill="red" stroke="none" /><path d="M 111.27062007382361 82.28071324371311 l 13.328733304695744 -20.954982598739285 a45.83478260869565,45.83478260869565 0 0,0 0.6602704895955752,0.4279793541941081 l -13.686489426548325 20.723089402841282" fill="red" stroke="none" /><path d="M 111.5731344415666 82.4767994020092 l 12.680129909890363 -19.199332829102957 a44.00869565217391,44.00869565217391 0 0,0 0.6268173440749805,0.42175068306290747 l -13.007843542062345 18.97883247198293" fill="red" stroke="none" /><path d="M 111.8722381534696 82.67804972795209 l 10.788251191631069 -15.740380899382664 a40.08260869565217,40.08260869565217 0 0,0 0.5642198042379087,0.3938692428763016 l -11.056866087042739 15.552866840701236" fill="red" stroke="none" /><path d="M 112.16784306229584 82.88440491214696 l 7.962001655980538 -11.199552437921227 a34.74130434782609,34.74130434782609 0 0,0 0.48310098066393575,0.34972785431541337 l -8.153083647018443 11.06122381223274" fill="red" stroke="none" /><path d="M 112.45986205192187 83.09580414077388 l 8.505210183268408 -11.538951086515219 a35.334782608695654,35.334782608695654 0 0,0 0.4851751882240584,0.36408450629924455 l -8.702038360403234 11.39124755295196" fill="red" stroke="none" /><path d="M 113.31354834802062 83.75963576809568 l 10.9402636425039 -13.345342781869208 a38.256521739130434,38.256521739130434 0 0,0 0.5043041477659433,0.42070845626489733 l -11.167742124431737 13.15557214169244" fill="red" stroke="none" /><path d="M 113.59037401385872 83.9905735841838 l 6.352022636912231 -7.482666694348874 a30.815217391304348,30.815217391304348 0 0,0 0.400334459043629,0.34579937083981305 l -6.47953657571872 7.372523191044341" fill="red" stroke="none" /><path d="M 114.13192950727249 84.46653392183569 l 3.09366369865726 -3.400478334937272 a25.597173913043477,25.597173913043477 0 0,0 0.32248810266143446,0.29849017335560296 l -3.1515815726326593 3.346870415449294" fill="red" stroke="none" /><path d="M 114.65682725009322 84.96080404539774 l 20.58328348600047 -21.120262144941435 a50.49130434782609,50.49130434782609 0 0,0 0.6155324702962206,0.6102715406241362 l -20.942807876426652 20.76381059408864" fill="red" stroke="none" /><path d="M 114.91283532996326 85.21462403516908 l 26.065042620196643 -25.842265816791436 a57.70434782608696,57.70434782608696 0 0,0 0.6913893116203781,0.7094263417964656 l -26.50481873296783 25.391016782927228" fill="red" stroke="none" /><path d="M 115.16444852881244 85.47280134310134 l 16.516062419423985 -15.822014189361369 a43.87173913043478,43.87173913043478 0 0,0 0.5163163995205525,0.5483101238985663 l -16.785234652680796 15.536162605518307" fill="red" stroke="none" /><path d="M 115.41159269507618 85.73525988315684 l 20.102077428360232 -18.606182761099767 a48.391304347826086,48.391304347826086 0 0,0 0.559040080668717,0.6144829780627563 l -20.41851520987083 18.25836220747934" fill="red" stroke="none" /><path d="M 116.1254893667686 86.54754324733833 l 15.774935250099716 -13.160012040647292 a41.54347826086956,41.54347826086956 0 0,0 0.4521378141148889,0.5515346166399334 l -15.998519883453232 12.887275142308862" fill="red" stroke="none" /><path d="M 116.57777611688842 87.10902102172516 l 43.642797559895364 -33.936903353675746 a76.28478260869565,76.28478260869565 0 0,0 0.7949892300890291,1.0406664216836656 l -44.2189387673387 33.1827160187512" fill="red" stroke="none" /><path d="M 117.01052211995028 87.68569379921539 l 39.16118027179858 -28.349674492675867 a69.34565217391304,69.34565217391304 0 0,0 0.6897742724630213,0.9702538970179638 l -39.64206964279156 27.6732433689484" fill="red" stroke="none" /><path d="M 117.42321728460499 88.27688183743584 l 31.43754423091771 -21.15258277158316 a58.891304347826086,58.891304347826086 0 0,0 0.5571553778092729,0.8436042542230745 l -31.796024047647705 20.609798639021026" fill="red" stroke="none" /><path d="M 117.62189284568427 88.57770195909679 l 38.3467711707173 -24.855913780313312 a66.69782608695652,66.69782608695652 0 0,0 0.6145166359447278,0.9661222202053485 l -38.76780549828791 24.19397788542929" fill="red" stroke="none" /><path d="M 117.81537515405839 88.88188828441811 l 23.237445853119628 -14.501884846411162 a48.391304347826086,48.391304347826086 0 0,0 0.43375208190711634,0.7085014280608087 l -23.482965899482146 14.100846302225799" fill="red" stroke="none" /><line stroke="#e1ed5e" stroke-width="0.3" x1="172.87174338648825" x2="177.1583165268699" y1="56.24261187166439" y2="53.66864786411523" /><path d="M 173.72905801456457 55.72781907015455 a86.0,86.0 0 0,1 12.242430191666344,42.057860355516425" fill="none" id="id39" stroke="none" /><text fill="#e1ed5e" style="font-size:6.75px; font-family:Arial;" text-anchor="middle"><textPath startOffset="22.145653131862474" xlink:href="#id39">March</textPath></text><path d="M 118.00360718960297 89.18935116829356 l 19.999659291058958 -12.009220767395636 a44.32826086956521,44.32826086956521 0 0,0 0.3861335379652077,0.655739164319471 l -20.20286653915393 11.664130434782608" fill="red" stroke="none" /><path d="M 118.18653347947321 89.5 l 4.072202061708131 -2.351086956521739 a25.702173913043477,25.702173913043477 0 0,0 0.21732612063688111,0.3839944313786881 l -4.111961547366389 2.280835755043933" fill="red" stroke="none" /><path d="M 118.36410011445183 89.81374322990088 l 33.574365644030415 -18.623134660116 a59.393478260869564,59.393478260869564 0 0,0 0.48689826119661084,0.895837960107698 l -33.88910925484237 18.0440418665337" fill="red" stroke="none" /><path d="M 119.4528033332814 92.08871423366111 l 32.393146420203365 -13.17401064568606 a55.969565217391306,55.969565217391306 0 0,0 0.35431753150332923,0.8931116367308021 l -32.61452262667282 12.615997991741693" fill="red" stroke="none" /><path d="M 119.58574465831526 92.42381321644754 l 21.374008301031015 -8.26792557683333 a43.91739130434783,43.91739130434783 0 0,0 0.2659497438489307,0.7054632922896094 l -21.51278872869439 7.899794004349563" fill="red" stroke="none" /><path d="M 119.71291397450082 92.76114493625339 l 21.51278872869439 -7.899794004349563 a43.91739130434783,43.91739130434783 0 0,0 0.25380034003853613,0.709924721655561 l -21.645229238776867 7.529334326313085" fill="red" stroke="none" /><path d="M 119.83427380445688 93.10060997987247 l 17.89396441054263 -6.224449692071574 a39.94565217391305,39.94565217391305 0 0,0 0.2197288176612623,0.6495892061632795 l -17.998178649776257 5.916358811434133" fill="red" stroke="none" /><path d="M 119.94978838288452 93.4421083053983 l 21.727921695272055 -7.142399432598796 a43.87173913043478,43.87173913043478 0 0,0 0.2290424089957736,0.717472083962124 l -21.847328820045085 6.768358314945285" fill="red" stroke="none" /><path d="M 120.05942366710727 93.78553927170692 l 34.97316908917397 -10.834777182806624 a57.61304347826087,57.61304347826087 0 0,0 0.2845636612074398,0.9472198788445804 l -35.15400907038504 10.23281970037132" fill="red" stroke="none" /><path d="M 120.26092885502905 94.47779374421319 l 38.53981032206614 -10.504196682203176 a60.94565217391305,60.94565217391305 0 0,0 0.2664500937514893,1.011754405787639 l -38.71444989662236 9.841061772042739" fill="red" stroke="none" /><path d="M 120.43855184770803 95.1765574152323 l 29.591468544725107 -6.983506003163678 a51.404347826086955,51.404347826086955 0 0,0 0.19530993453492962,0.8605716086622965 l -29.706989340817703 6.474500060562355" fill="red" stroke="none" /><path d="M 120.65975698304385 96.23510406497455 l 22.501170105445578 -4.100462746625546 a43.87173913043478,43.87173913043478 0 0,0 0.12865947910861483,0.742073685572414 l -22.568244402046428 3.713596028132539" fill="red" stroke="none" /><path d="M 120.77682067341334 96.94652285012252 l 45.25733546686994 -6.651269791689653 a66.74347826086957,66.74347826086957 0 0,0 0.15686460173104189,1.1349941161119017 l -45.36484458515619 5.873387367377665" fill="red" stroke="none" /><path d="M 120.82617615685814 97.30363454192243 l 22.637147996584922 -2.9308320196495328 a43.826086956521735,43.826086956521735 0 0,0 0.0901939069363541,0.7469349351163554 l -22.68412398978094 2.5418034076097644" fill="red" stroke="none" /><path d="M 120.86939407059847 97.66154086499901 l 23.63685719735174 -2.648559150729375 a44.78478260869565,44.78478260869565 0 0,0 0.07905070212062085,0.7647438340009658 l -23.678840291954028 2.2424107944454774" fill="red" stroke="none" /><path d="M 120.9064616781168 98.02013634271609 l 22.72441486751826 -2.152025714439038 a43.826086956521735,43.826086956521735 0 0,0 0.06450026567428006,0.7495908576507923 l -22.75800875589028 1.7616138094125835" fill="red" stroke="none" /><path d="M 120.96210409425399 98.7389718711861 l 13.670937452774348 -0.822409649226464 a34.69565217391305,34.69565217391305 0 0,0 0.030661721767401676,0.594829210942793 l -13.683040763998322 0.5876086449069404" fill="red" stroke="none" /><line stroke="#e1ed5e" stroke-width="0.3" x1="184.99686870605535" x2="189.99668451229388" y1="99.2704041080226" y2="99.22748670261217" /><path d="M 185.99683186730306 99.26182062694052 a86.0,86.0 0 0,1 -10.086455211305974,41.156179273409016" fill="none" id="id40" stroke="none" /><text fill="#e1ed5e" style="font-size:6.75px; font-family:Arial;" text-anchor="middle"><textPath startOffset="21.40746469413373" xlink:href="#id40">April</textPath></text><path d="M 120.99922638620191 99.81974689727618 l 19.492760145452642 -0.16732190187624918 a40.493478260869566,40.493478260869566 0 0,0 0.0,0.6951500092001497 l -19.492760145452642 -0.16732190187624682" fill="red" stroke="none" /><path d="M 120.99922638620191 100.18025310272382 l 32.04664548502986 0.2750819089394034 a53.04782608695652,53.04782608695652 0 0,0 -0.015632861918146446,0.910535834008564 l -32.03720119151305 -0.8251646589170385" fill="red" stroke="none" /><path d="M 120.96210409425399 101.26102812881392 l 47.073594629053 2.831830558836462 a68.15869565217392,68.15869565217392 0 0,0 -0.08028457821860073,1.1673201472555765 l -47.01804608966933 -3.639494130246382" fill="red" stroke="none" /><path d="M 120.93736805541906 101.62068470465957 l 40.96441576060251 3.1709048569426366 a62.08695652173913,62.08695652173913 0 0,0 -0.09137537637189677,1.0619203816719696 l -40.90394676153287 -3.873646285990264" fill="red" stroke="none" /><path d="M 120.9064616781168 101.97986365728391 l 22.72441486751826 2.1520257144390347 a43.826086956521735,43.826086956521735 0 0,0 -0.07735848525565342,0.7483731708877952 l -22.68412398978094 -2.5418034076097613" fill="red" stroke="none" /><path d="M 120.86939407059847 102.33845913500097 l 24.45348566098386 2.7400640734033237 a45.606521739130436,45.606521739130436 0 0,0 -0.0938580344056435,0.777279166855467 l -24.402845540318552 -3.159436917182199" fill="red" stroke="none" /><path d="M 120.82617615685814 102.69636545807757 l 28.34170929172432 3.6694016886012175 a49.57826086956521,49.57826086956521 0 0,0 -0.11652185874139502,0.8430941245537121 l -28.274542916427716 -4.155384121355015" fill="red" stroke="none" /><path d="M 120.65975698304385 103.76489593502545 l 22.501170105445578 4.100462746625543 a43.87173913043478,43.87173913043478 0 0,0 -0.14137920242792384,0.7397557282673581 l -22.427464610735495 -4.486121039926216" fill="red" stroke="none" /><path d="M 120.51834098615036 104.47187691870673 l 15.03191502681016 3.276135916530796 a36.38478260869565,36.38478260869565 0 0,0 -0.13824335508378638,0.6091257301100076 l -14.973460810168708 -3.5336959805798207" fill="red" stroke="none" /><path d="M 120.43855184770803 104.8234425847677 l 22.26024886022114 5.253358119497004 a43.87173913043478,43.87173913043478 0 0,0 -0.1792734500387819,0.7314968533730789 l -22.16678788366606 -5.634710797478182" fill="red" stroke="none" /><path d="M 120.35273937422433 105.17358676015961 l 6.194311983459577 1.5745698835268371 a27.391304347826086,27.391304347826086 0 0,0 -0.11975285112426486,0.4547210812528653 l -6.166369651530582 -1.6806714691525058" fill="red" stroke="none" /><path d="M 120.26092885502905 105.52220625578681 l 36.02921696394298 9.819923298333928 a58.34347826086957,58.34347826086957 0 0,0 -0.27166253723627637,0.9640345070694677 l -35.85533593463212 -10.436965729306404" fill="red" stroke="none" /><path d="M 120.16314734710363 105.8691983318838 l 22.83695601704564 6.647505067198821 a44.78478260869565,44.78478260869565 0 0,0 -0.2212020219053028,0.736309588864131 l -22.719477675136705 -7.0385522596536765" fill="red" stroke="none" /><path d="M 120.05942366710727 106.21446072829308 l 33.57773092102738 10.402466871273187 a56.15217391304348,56.15217391304348 0 0,0 -0.2931552165086446,0.9183045403469527 l -33.39421098874148 -10.977340445311524" fill="red" stroke="none" /><path d="M 119.83427380445688 106.89939002012753 l 34.49438922514241 11.99893916543918 a57.52173913043478,57.52173913043478 0 0,0 -0.33242040379267723,0.9298390325218238 l -34.28332865130579 -12.589313154341927" fill="red" stroke="none" /><path d="M 119.71291397450082 107.23885506374661 l 22.455580266605295 8.246000116093963 a44.92173913043479,44.92173913043479 0 0,0 -0.2720317546230227,0.721596548454234 l -22.310717828167835 -8.630264944742356" fill="red" stroke="none" /><path d="M 119.4528033332814 107.91128576633889 l 21.144351449218902 8.599223659064004 a43.826086956521735,43.826086956521735 0 0,0 -0.28940693314124755,0.6944712846442896 l -20.99361867154117 -8.960927453149571" fill="red" stroke="none" /><path d="M 119.31412917781788 108.2440532568976 l 25.654202016623312 10.950253347748777 a48.893478260869564,48.893478260869564 0 0,0 -0.3361219833909343,0.7691128766740659 l -25.462446151215413 -11.389028294198688" fill="red" stroke="none" /><path d="M 118.70294669586154 109.54985784667822 l 20.532582785674087 10.484083070809788 a44.05434782608695,44.05434782608695 0 0,0 -0.34969068138950865,0.670577990009032 l -20.34958403530963 -10.835007303923323" fill="red" stroke="none" /><line stroke="#e1ed5e" stroke-width="0.3" x1="174.33088141563837" x2="178.70328620479359" y1="141.23008692659167" y2="143.65538615756765" /><path d="M 175.20536237346943 141.71514677278685 a86.0,86.0 0 0,1 -30.301960400862466,31.631185727798858" fill="none" id="id41" stroke="none" /><text fill="#e1ed5e" style="font-size:6.75px; font-family:Arial;" text-anchor="middle"><textPath startOffset="22.145653131862474" xlink:href="#id41">May</textPath></text><path d="M 117.01052211995028 112.31430620078461 l 15.161552324303512 10.975794657221064 a39.71739130434783,39.71739130434783 0 0,0 -0.40454618035232515,0.5488445889914711 l -14.97090412436736 -11.234445555481413" fill="red" stroke="none" /><path d="M 116.79662413953412 112.60449989151573 l 15.883764131950734 11.919472723498572 a40.858695652173914,40.858695652173914 0 0,0 -0.4258021310171686,0.5573886579335104 l -15.676810023579261 -12.19038229467296" fill="red" stroke="none" /><path d="M 116.1254893667686 113.45245675266167 l 18.439146536783227 15.382591851956613 a45.01304347826087,45.01304347826087 0 0,0 -0.500085131265185,0.5890990271842111 l -18.172366842010927 -15.69685766159038" fill="red" stroke="none" /><path d="M 115.6541949942343 113.99807769240083 l 18.17247853678504 16.24994236465661 a45.37826086956522,45.37826086956522 0 0,0 -0.5242319247025465,0.5762227171645092 l -17.89084891124061 -16.559502657378793" fill="red" stroke="none" /><path d="M 115.41159269507618 114.26474011684316 l 17.421800437912207 16.12535839295313 a44.73913043478261,44.73913043478261 0 0,0 -0.5265245281270984,0.5591508027269408 l -17.142420076048847 -16.42205065562457" fill="red" stroke="none" /><path d="M 114.91283532996324 114.78537596483092 l 23.082475554203985 22.885190623825252 a53.504347826086956,53.504347826086956 0 0,0 -0.6522640643645243,0.6466891913304531 l -22.686219569709497 -23.278059825384368" fill="red" stroke="none" /><path d="M 113.86319453409587 115.77377054828091 l 4.4000573956043425 5.0064576088022035 a27.66521739130435,27.66521739130435 0 0,0 -0.3594113810080642,0.31045099070952414 l -4.313466534833423 -5.081252731976446" fill="red" stroke="none" /><path d="M 112.7482090630111 116.68781488649013 l 11.251680173005452 14.728810530249982 a39.53478260869565,39.53478260869565 0 0,0 -0.5428445904419051,0.4073607008464415 l -10.99718259365278 -14.919790258360438" fill="red" stroke="none" /><path d="M 112.45986205192187 116.90419585922612 l 9.751196388460597 13.229370672437831 a37.434782608695656,37.434782608695656 0 0,0 -0.5205555902029269,0.3768421032045149 l -9.522659787883702 -13.394813547015422" fill="red" stroke="none" /><line stroke="#e1ed5e" stroke-width="0.3" x1="143.1302829299769" x2="145.66735839644613" y1="173.24464959558577" y2="177.55315839532614" /><path d="M 143.63769802327073 174.10635135553383 a86.0,86.0 0 0,1 -40.68552437913181,11.842963189579606" fill="none" id="id42" stroke="none" /><text fill="#e1ed5e" style="font-size:6.75px; font-family:Arial;" text-anchor="middle"><textPath startOffset="21.407464694133747" xlink:href="#id42">June</textPath></text><path d="M 110.34350942703117 118.27599006163325 l 7.870061520567188 13.90564461211226 a36.97826086956522,36.97826086956522 0 0,0 -0.5551243643338337,0.30791812717207306 l -7.63019296807726 -14.038695654717477" fill="red" stroke="none" /><path d="M 109.71004243097381 118.62028667847754 l 9.182322733638276 17.608314576386373 a40.858695652173914,40.858695652173914 0 0,0 -0.6246959490572692,0.3189742027235034 l -8.878699562867425 -17.763346730782715" fill="red" stroke="none" /><path d="M 109.06512990194946 118.94263497670748 l 8.395098561370588 17.542527174081282 a40.447826086956525,40.447826086956525 0 0,0 -0.6288891293692294,0.2943518670184941 l -8.092720718129852 -17.68405527267031" fill="red" stroke="none" /><path d="M 108.07796709384702 119.3841803445677 l 3.5297204040505483 8.47004402012632 a30.17608695652174,30.17608695652174 0 0,0 -0.4798652198980839,0.19515700739367056 l -3.3838007229620235 -8.529388284099282" fill="red" stroke="none" /><path d="M 105.3480935250658 120.30758222061773 l 6.97577416312931 26.488150722544862 a48.391304347826086,48.391304347826086 0 0,0 -0.8051269330023453,0.2046601179448126 l -6.520041936901568 -26.603996072324943" fill="red" stroke="none" /><path d="M 104.9986988182912 120.39639698878246 l 1.8364784788939421 7.493458893704862 a28.71521739130435,28.71521739130435 0 0,0 -0.4797736419513392,0.11322527314461824 l -1.7075726832027236 -7.523880310495705" fill="red" stroke="none" /><path d="M 104.64783097203109 120.47920084513623 l 6.072492204762348 26.756521104188863 a48.436956521739134,48.436956521739134 0 0,0 -0.8124436434067324,0.1770683106959226 l -5.61228614473648 -26.856820873018506" fill="red" stroke="none" /><path d="M 104.29559338865022 120.5559693870025 l 5.145373819883194 24.62247637443127 a46.154347826086955,46.154347826086955 0 0,0 -0.7769392459308713,0.1554096086387979 l -4.721938088421364 -24.70717537973293" fill="red" stroke="none" /><path d="M 103.94208987418118 120.62667999033965 l 2.5709281788138107 13.452182602395428 a34.69565217391305,34.69565217391305 0 0,0 -0.5859687010895578,0.10678301698296445 l -2.3396247441731957 -13.494333793309757" fill="red" stroke="none" /><path d="M 103.2317021107853 120.74984581791261 l 3.5127196856362004 22.554180236861537 a43.826086956521735,43.826086956521735 0 0,0 -0.7443649969926562,0.10939602094146278 l -3.1250295830358588 -22.611157331101882" fill="red" stroke="none" /><path d="M 102.875027216393 120.80226474461374 l 3.750035499643031 27.13338879732226 a48.391304347826086,48.391304347826086 0 0,0 -0.8238554539038654,0.1066645826686557 l -3.28370222384839 -27.193764976191314" fill="red" stroke="none" /><path d="M 102.51750503828377 120.84855314841334 l 3.4916700313587885 28.916036758016766 a50.12608695652174,50.12608695652174 0 0,0 -0.8551608261789617,0.09582255426814348 l -2.994773303579027 -28.971715072791877" fill="red" stroke="none" /><path d="M 102.15924093988457 120.88869738790638 l 3.0511013280977557 29.516637613345964 a50.673913043478265,50.673913043478265 0 0,0 -0.8660423579187676,0.08201511171575239 l -2.543959406793973 -29.564664480566897" fill="red" stroke="none" /><path d="M 101.08105385017728 120.97215588758144 l 0.7379367585992748 14.31577597543603 a35.334782608695654,35.334782608695654 0 0,0 -0.6060323071629521,0.026025634866101884 l -0.4920786908354932 -14.326334178727961" fill="red" stroke="none" /><path d="M 100.72087961077811 120.9876233191556 l 0.7882661830899779 22.94950984681581 a43.96304347826087,43.96304347826087 0 0,0 -0.7544616924997254,0.01943225693892732 l -0.39419117651950863 -22.959659821104783" fill="red" stroke="none" /><line stroke="#e1ed5e" stroke-width="0.3" x1="101.45913802915013" x2="101.54496967792366" y1="184.9874750549273" y2="189.98673829345242" /><path d="M 101.47630435890484 185.9873277026323 a86.0,86.0 0 0,1 -42.54439059252881,-10.42667462771756" fill="none" id="id43" stroke="none" /><text fill="#e1ed5e" style="font-size:6.75px; font-family:Arial;" text-anchor="middle"><textPath startOffset="22.145653131862474" xlink:href="#id43">July</textPath></text><path d="M 100.36049292484886 120.99690560180557 l 0.4224036662902886 24.60289591168087 a45.606521739130436,45.606521739130436 0 0,0 -0.7828965911391378,0.006720225644001035 l -3.013429808597585e-15 -24.606521739130436" fill="red" stroke="none" /><path d="M 100.0 121.0 l 4.025360783284344e-15 32.869565217391305 a53.869565217391305,53.869565217391305 0 0,0 -0.9247427202644468,-0.007937804063985206 l 0.5642497954155907 -32.864721811521754" fill="red" stroke="none" /><path d="M 99.63950707515114 120.99690560180557 l -0.5916786049149597 34.46231245513739 a55.46739130434783,55.46739130434783 0 0,0 -0.9518909204435786,-0.024517333521070366 l 1.1831828394292823 -34.44707740426628" fill="red" stroke="none" /><path d="M 98.19965949673042 120.92268563240118 l -1.4559275374267076 16.92008490272444 a37.982608695652175,37.982608695652175 0 0,0 -0.6491416592688419,-0.06147439004279818 l 1.7461687600805649 -16.892598757176458" fill="red" stroke="none" /><path d="M 97.84075906011543 120.88869738790638 l -0.7510403269163719 7.26563387405439 a28.304347826086957,28.304347826086957 0 0,0 -0.482877697842401,-0.05410745322973493 l 0.8756539263595722 -7.251670660317684" fill="red" stroke="none" /><path d="M 97.12497278360702 120.80226474461374 l -5.425051356150224 39.25296912679288 a60.62608695652174,60.62608695652174 0 0,0 -1.0297049125065096,-0.15133116230235685 l 6.098081374264419 -39.154056891191644" fill="red" stroke="none" /><path d="M 96.41257539226777 120.69131181640829 l -3.899374573621986 22.49055632218292 a43.826086956521735,43.826086956521735 0 0,0 -0.7401709908499676,-0.13488381092584495 l 4.28488029802301 -22.420304337325707" fill="red" stroke="none" /><path d="M 96.05791012581884 120.62667999033965 l -6.932936322201232 36.276052417793 a57.93260869565217,57.93260869565217 0 0,0 -0.9752086083939439,-0.19506903398875822 l 7.554641416126134 -36.15169398714138" fill="red" stroke="none" /><path d="M 95.35216902796893 120.47920084513623 l -6.133116087006225 27.02364111521238 a48.71086956521739,48.71086956521739 0 0,0 -0.8138608520859557,-0.1920689450640767 l 6.5961090928320685 -26.91437602650208" fill="red" stroke="none" /><path d="M 94.6519064749342 120.30758222061772 l -7.010653033944963 26.620591476157582 a48.528260869565216,48.528260869565216 0 0,0 -0.8037634147965632,-0.2190692928799446 l 7.466597849676221 -26.49632168913349" fill="red" stroke="none" /><path d="M 94.30408787586889 120.21278271476187 l -8.24669016232896 29.264594104416098 a51.404347826086955,51.404347826086955 0 0,0 -0.8472904914311103,-0.2466339135116675 l 8.747840666141677 -29.118716496601913" fill="red" stroke="none" /><path d="M 93.61358852112213 120.00534299687104 l -11.953696268073584 37.444783305012955 a60.30652173913043,60.30652173913043 0 0,0 -0.9835053555811538,-0.3232977452781076 l 12.594724361302482 -37.234064638332825" fill="red" stroke="none" /><path d="M 92.93061703081489 119.77432235084164 l -8.45252311533002 23.6432115064411 a46.108695652173914,46.108695652173914 0 0,0 -0.7430325148463912,-0.2728518315243331 l 8.857144781830531 -23.49462882590805" fill="red" stroke="none" /><path d="M 92.25597844496254 119.51999308798841 l -9.427504501784734 23.763469846246753 a46.565217391304344,46.565217391304344 0 0,0 -0.7404879338820658,-0.3011499962807019 l 9.83404689685724 -23.598132593386758" fill="red" stroke="none" /><path d="M 91.92203290615298 119.3841803445677 l -10.536478818061331 25.283713492914387 a48.391304347826086,48.391304347826086 0 0,0 -0.7640409137377021,-0.32612363339354755 l 10.968954806969464 -25.099115209861438" fill="red" stroke="none" /><path d="M 91.59046798132341 119.24265499422711 l -4.917748071791309 11.252769985754544 a33.280434782608694,33.280434782608694 0 0,0 -0.5215307159092217,-0.2332740556232951 l 5.110192190556166 -11.166692179221393" fill="red" stroke="none" /><path d="M 90.93487009805054 118.94263497670748 l -16.06104536975829 33.56140762177522 a58.20652173913044,58.20652173913044 0 0,0 -0.8975993091105685,-0.43906080136096315 l 16.63480492813093 -33.28075307031703" fill="red" stroke="none" /><path d="M 89.97174638481275 118.45085714620012 l -11.24908449007961 20.69704845095491 a44.55652173913043,44.55652173913043 0 0,0 -0.6688905920861823,-0.37102233595053735 l 11.602719270321895 -20.500893199571223" fill="red" stroke="none" /><line stroke="#e1ed5e" stroke-width="0.3" x1="58.13341422392154" x2="55.67067388415222" y1="173.97424548756322" y2="178.32567169271397" /><path d="M 57.64086615596768 174.84453072859336 a86.0,86.0 0 0,1 -31.369924170532247,-30.572349798747897" fill="none" id="id44" stroke="none" /><text fill="#e1ed5e" style="font-size:6.75px; font-family:Arial;" text-anchor="middle"><textPath startOffset="22.145653131862474" xlink:href="#id44">August</textPath></text><path d="M 89.03521579738668 117.91015095944536 l -32.89435260783996 53.73045287833606 a84.0,84.0 0 0,0 -1.2233434848411497,-0.7634568126338093 l 33.81186022147082 -53.1578602688607" fill="red" stroke="none" /><path d="M 88.4268655584334 117.5232005979908 l -10.36550302157704 15.694692709504796 a39.80869565217391,39.80869565217391 0 0,0 -0.5669966016943718,-0.3815006178743268 l 10.633395911368416 -15.514442417573349" fill="red" stroke="none" /><path d="M 88.1277618465304 117.32195027204791 l -19.382719246207966 28.279966639799966 a55.28478260869565,55.28478260869565 0 0,0 -0.7782120534534132,-0.5432524523043234 l 19.865326390835143 -27.943069371690513" fill="red" stroke="none" /><path d="M 87.83215693770417 117.11559508785305 l -19.838874558091025 27.90586155628214 a55.23913043478261,55.23913043478261 0 0,0 -0.7681369074945995,-0.5560718839969367 l 20.314992475959578 -27.56118890091214" fill="red" stroke="none" /><path d="M 87.54013794807813 116.9041958592261 l -22.07562515720941 29.949825272324524 a58.20652173913044,58.20652173913044 0 0,0 -0.7992226937799412,-0.5997516092138718 l 22.586500839900115 -29.56645463584664" fill="red" stroke="none" /><path d="M 87.2517909369889 116.68781488649013 l -13.88446247949688 18.17520708289468 a43.87173913043478,43.87173913043478 0 0,0 -0.5945457460990121,-0.46232236824438644 l 14.19441817023112 -17.9341836630295" fill="red" stroke="none" /><path d="M 86.68645165197938 116.24036423190432 l -29.000381401557952 35.37574991384378 a66.74347826086957,66.74347826086957 0 0,0 -0.8798241814245932,-0.7339806241757517 l 29.60337991714444 -34.872707105756156" fill="red" stroke="none" /><path d="M 86.40962598614128 116.0094264158162 l -7.622427164294675 8.97920003321865 a32.778260869565216,32.778260869565216 0 0,0 -0.4258372468049232,-0.367828071500716 l 7.77544389086246 -8.847027829253213" fill="red" stroke="none" /><path d="M 86.13680546590413 115.77377054828092 l -16.515283923227244 18.791361435778143 a46.017391304347825,46.017391304347825 0 0,0 -0.5888801151348741,-0.5265802301685883 l 16.83542906518549 -18.50508567572617" fill="red" stroke="none" /><path d="M 85.86807049272751 115.53346607816431 l -4.178135680410996 4.5925030144137935 a27.208695652173912,27.208695652173912 0 0,0 -0.3427909919497294,-0.3172822245763112 l 4.256356443674693 -4.520103043705105" fill="red" stroke="none" /><path d="M 85.60350026404147 115.28858382429668 l -23.47255391732368 24.92703884396198 a55.23913043478261,55.23913043478261 0 0,0 -0.6847745480499338,-0.6559985268048808 l 23.89700095123893 -24.520428186851518" fill="red" stroke="none" /><path d="M 83.8745106332314 113.45245675266167 l -14.092275490089081 11.75627742297825 a39.35217391304348,39.35217391304348 0 0,0 -0.42828878655717617,-0.5224426808171677 l 14.292011095884888 -11.512632460462589" fill="red" stroke="none" /><path d="M 83.64595745247003 113.17365903436017 l -17.77613320383692 14.319194602565405 a43.826086956521735,43.826086956521735 0 0,0 -0.466922231704567,-0.5899409866128404 l 18.01932186618305 -14.011933672037884" fill="red" stroke="none" /><path d="M 82.576782715395 111.72311816256416 l -22.72593558861521 15.291023690301078 a48.391304347826086,48.391304347826086 0 0,0 -0.4578175972696298,-0.6931941933925985 l 22.98507762480557 -14.898649618569419" fill="red" stroke="none" /><path d="M 82.37810715431573 111.42229804090323 l -20.150251384412883 13.061149498945857 a45.01304347826087,45.01304347826087 0 0,0 -0.41472512186276633,-0.652016775580064 l 20.371494197901537 -12.713319048687122" fill="red" stroke="none" /><path d="M 82.18462484594161 111.11811171558189 l -30.324866838321114 18.92495972456657 a56.745652173913044,56.745652173913044 0 0,0 -0.5086356960476782,-0.8308181840373383 l 30.645270498824196 -18.401604424404674" fill="red" stroke="none" /><path d="M 81.99639281039703 110.81064883170644 l -16.672905788632324 10.011600874580322 a40.447826086956525,40.447826086956525 0 0,0 -0.3523319409239647,-0.5983366628084933 l 16.842311439686057 -9.723913043478271" fill="red" stroke="none" /><line stroke="#e1ed5e" stroke-width="0.3" x1="26.387840678322732" x2="22.057713659400548" y1="142.50000000000003" y2="145.00000000000006" /><path d="M 25.521815274538298 143.00000000000003 a86.0,86.0 0 0,1 -11.493303480769221,-40.785679425670985" fill="none" id="id45" stroke="none" /><text fill="#e1ed5e" style="font-size:6.75px; font-family:Arial;" text-anchor="middle"><textPath startOffset="21.40746469413373" xlink:href="#id45">September</textPath></text><path d="M 81.81346652052679 110.50000000000001 l -34.356733899265684 19.835869565217408 a60.67173913043478,60.67173913043478 0 0,0 -0.51301316931867,-0.9064451142136248 l 34.692180433605735 -19.243167680904662" fill="red" stroke="none" /><path d="M 81.63589988554817 110.18625677009913 l -23.95317406232847 13.286421874042345 a48.391304347826086,48.391304347826086 0 0,0 -0.3967041943646752,-0.7298910359063865 l 24.177723606308476 -12.87327600466137" fill="red" stroke="none" /><path d="M 81.4637452351635 109.86951160357371 l -22.2435057178038 11.843413924288463 a46.2,46.2 0 0,0 -0.3667222482551117,-0.7032382651700937 l 22.443536035033862 -11.459829416013866" fill="red" stroke="none" /><path d="M 81.29705330413844 109.54985784667822 l -27.07861412922563 13.826533317147163 a51.404347826086955,51.404347826086955 0 0,0 -0.3945408211382264,-0.7893459346948138 l 27.311974863575596 -13.359655526288595" fill="red" stroke="none" /><path d="M 80.68587082218212 108.24405325689762 l -45.89205041598899 19.588587412584985 a70.89782608695651,70.89782608695651 0 0,0 -0.468176007467039,-1.123451984429761 l 46.221552267992514 -18.797902918713945" fill="red" stroke="none" /><path d="M 80.5471966667186 107.91128576633889 l -21.1443514492189 8.599223659064018 a43.826086956521735,43.826086956521735 0 0,0 -0.2774427652880881,-0.6993370075542984 l 21.288852889473112 -8.234985634296153" fill="red" stroke="none" /><path d="M 80.41425534168474 107.57618678355246 l -29.804394045262363 11.528979888014618 a52.95652173913044,52.95652173913044 0 0,0 -0.32068784081577023,-0.8506625977712867 l 29.99791256989257 -11.015649010049186" fill="red" stroke="none" /><path d="M 80.16572619554312 106.89939002012753 l -47.2573132384451 16.438546656651678 a71.03478260869565,71.03478260869565 0 0,0 -0.3907406174639053,-1.1551552054743575 l 47.532539277481376 -15.624889776703158" fill="red" stroke="none" /><path d="M 80.05021161711548 106.5578916946017 l -35.56266624775066 11.690154759942144 a58.43478260869565,58.43478260869565 0 0,0 -0.30507209522850826,-0.9556339932065622 l 35.758103058756426 -11.07795173304419" fill="red" stroke="none" /><path d="M 79.56144815229197 104.8234425847677 l -45.54242531282768 10.747888368232383 a67.79347826086956,67.79347826086956 0 0,0 -0.25758015344970736,-1.134945682827274 l 45.720216327835054 -9.964508351466083" fill="red" stroke="none" /><path d="M 79.48165901384964 104.47187691870673 l -26.807658549296463 5.842604409005968 a48.436956521739134,48.436956521739134 0 0,0 -0.17008819307684092,-0.8139335764916977 l 26.90400445319767 -5.381554381228861" fill="red" stroke="none" /><path d="M 79.407916724674 104.11899336999214 l -14.638285284851312 2.9280670260596304 a35.92826086956522,35.92826086956522 0 0,0 -0.11578088689987504,-0.6058145246060467 l 14.686392464033345 -2.676349936420269" fill="red" stroke="none" /><path d="M 79.2786578344484 103.40968896794605 l -45.09144240808079 7.419779688943463 a66.69782608695652,66.69782608695652 0 0,0 -0.17620456518693728,-1.1313597091264165 l 45.212168465405995 -6.644631797885596" fill="red" stroke="none" /><path d="M 79.17382384314188 102.69636545807758 l -18.562461357199638 2.403282256112628 a39.71739130434783,39.71739130434783 0 0,0 -0.08173822816107533,-0.6769097849492232 l 18.600981671620374 -2.0842787942400056" fill="red" stroke="none" /><path d="M 79.13060592940153 102.33845913500099 l -27.266317035716696 3.0552476959469352 a48.436956521739134,48.436956521739134 0 0,0 -0.08549724255859197,-0.8271082649082822 l 27.314746670756954 -2.5867349087557217" fill="red" stroke="none" /><path d="M 79.0935383218832 101.97986365728391 l -36.40451261776426 3.447545194531336 a57.56739130434783,57.56739130434783 0 0,0 -0.08472378647423665,-0.9846188244767179 l 36.45833002693624 -2.822105322678956" fill="red" stroke="none" /><path d="M 79.06263194458094 101.62068470465958 l -50.750359525635325 3.928398794990056 a71.90217391304347,71.90217391304347 0 0,0 -0.08469404601091503,-1.231432841210672 l 50.810317532811304 -3.0566225296250407" fill="red" stroke="none" /><path d="M 79.03789590574601 101.26102812881392 l -26.293769700835984 1.5817678920122407 a47.34130434782608,47.34130434782608 0 0,0 -0.04183711246420465,-0.8116288049311524 l 26.31704840275676 -1.1301672937043574" fill="red" stroke="none" /><path d="M 79.00696218219943 100.54070618675478 l -31.945927114044355 0.8228137624529095 a52.95652173913044,52.95652173913044 0 0,0 -0.015605955099016102,-0.9089686466867375 l 31.955344500742036 -0.27429819979711956" fill="red" stroke="none" /><line stroke="#e1ed5e" stroke-width="0.3" x1="15.003131293944662" x2="10.003315487706104" y1="100.72959589197737" y2="100.7725132973878" /><path d="M 14.003168132696942 100.73817937305945 a86.0,86.0 0 0,1 10.791469493833604,-42.45332614584628" fill="none" id="id46" stroke="none" /><text fill="#e1ed5e" style="font-size:6.75px; font-family:Arial;" text-anchor="middle"><textPath startOffset="22.145653131862435" xlink:href="#id46">October</textPath></text><path d="M 79.00077361379809 100.18025310272382 l -9.130098428783437 0.07837091422774843 a30.130434782608695,30.130434782608695 0 0,0 0.0,-0.5172480339031286 l 9.130098428783437 0.07837091422774507" fill="red" stroke="none" /><path d="M 79.01933749520258 99.09900007780938 l -40.50180066143503 -1.7393215889245064 a61.53913043478261,61.53913043478261 0 0,0 0.05438421176639822,-1.0550391794091136 l 40.46597486021206 2.434332561710332" fill="red" stroke="none" /><path d="M 79.03789590574601 98.7389718711861 l -50.03563107715409 -3.010019316168856 a71.12608695652173,71.12608695652173 0 0,0 0.08377988805397972,-1.218141185146873 l 49.97658722793505 3.8685039254700544" fill="red" stroke="none" /><path d="M 79.06263194458094 98.37931529534042 l -4.597117768689838 -0.3558459895013439 a25.610869565217392,25.610869565217392 0 0,0 0.03769234275340458,-0.438042157439659 l 4.59033180323869 0.4347091943166836" fill="red" stroke="none" /><path d="M 79.0935383218832 98.0201363427161 l -11.453105093229205 -1.0846209600772698 a32.504347826086956,32.504347826086956 0 0,0 0.05737420989794657,-0.5550434350751438 l 11.432798490849594 1.2810689174353262" fill="red" stroke="none" /><path d="M 79.13060592940154 97.66154086499901 l -30.21525315438821 -3.385682138936219 a51.404347826086955,51.404347826086955 0 0,0 0.10578993667742059,-0.8760924343135016 l 30.15268113145112 3.903868250173157" fill="red" stroke="none" /><path d="M 79.17382384314186 97.30363454192245 l -33.95572199487739 -4.396248029474276 a55.23913043478261,55.23913043478261 0 0,0 0.12982638036564886,-0.9393590153867803 l 33.875251097956536 4.978495353061124" fill="red" stroke="none" /><path d="M 79.2786578344484 96.59031103205396 l -45.40676718016526 -7.471666260194799 a67.01739130434783,67.01739130434783 0 0,0 0.1965370606986957,-1.1335735384186303 l 45.271815301974335 8.250032831534021" fill="red" stroke="none" /><path d="M 79.407916724674 95.88100663000787 l -25.068623117788174 -5.014426711294768 a46.565217391304344,46.565217391304344 0 0,0 0.16351551078075185,-0.7824809123671362 l 24.978849896183053 5.444024074947314" fill="red" stroke="none" /><path d="M 79.48165901384962 95.52812308129327 l -25.157270252584365 -5.482909961196938 a46.74782608695652,46.74782608695652 0 0,0 0.17761756035859647,-0.7826157435792513 l 25.059441830668106 5.913960038715198" fill="red" stroke="none" /><path d="M 79.73907114497095 94.47779374421319 l -29.334301342281194 -7.995194274682645 a51.404347826086955,51.404347826086955 0 0,0 0.23935212592178395,-0.849376255837407 l 29.19273072428483 8.497578454423065" fill="red" stroke="none" /><path d="M 79.83685265289637 94.1308016681162 l -46.37523889833836 -13.499156163332737 a69.3,69.3 0 0,0 0.3422881439880221,-1.1393659081506124 l 46.13667443434671 14.293259675074074" fill="red" stroke="none" /><path d="M 80.41425534168474 92.42381321644754 l -18.1381026618311 -7.016207760420319 a40.447826086956525,40.447826086956525 0 0,0 0.25605655213045125,-0.645429779888621 l 18.014987434734515 7.326538557522523" fill="red" stroke="none" /><path d="M 80.9802524753101 91.09779779509293 l -10.832986633627728 -5.070384734099246 a32.96086956521739,32.96086956521739 0 0,0 0.24425690381075785,-0.5104029858891458 l 10.744350471857066 5.255600222053479" fill="red" stroke="none" /><path d="M 81.1358732173502 90.77261029715801 l -20.545494604581638 -10.049830958964856 a43.87173913043478,43.87173913043478 0 0,0 0.3367262247902479,-0.6736780135361234 l 20.369948466579647 10.401040828664751" fill="red" stroke="none" /><path d="M 81.29705330413844 90.45014215332179 l -9.595424826572447 -4.899492286556648 a31.77391304347826,31.77391304347826 0 0,0 0.25221213911617785,-0.4836500321723421 l 9.509904618481329 5.063488561833477" fill="red" stroke="none" /><path d="M 81.46374523516351 90.13048839642627 l -22.76735639594047 -12.122334904389469 a46.79347826086956,46.79347826086956 0 0,0 0.38360547096579484,-0.7057908601924237 l 22.555905575359326 12.511380598056512" fill="red" stroke="none" /><path d="M 81.63589988554816 89.8137432299009 l -16.04862662176009 -8.901902655608351 a39.35217391304348,39.35217391304348 0 0,0 0.33274443337299986,-0.5879275308142854 l 15.89344882336572 9.176086956521742" fill="red" stroke="none" /><line stroke="#e1ed5e" stroke-width="0.3" x1="26.387840678322718" x2="22.05771365940052" y1="57.49999999999999" y2="54.99999999999999" /><path d="M 25.521815274538284 56.99999999999999 a86.0,86.0 0 0,1 29.574782752854787,-30.34633250058573" fill="none" id="id47" stroke="none" /><text fill="#e1ed5e" style="font-size:6.75px; font-family:Arial;" text-anchor="middle"><textPath startOffset="21.40746469413373" xlink:href="#id47">November</textPath></text><path d="M 81.81346652052679 89.5 l -39.61501423137425 -22.871739130434786 a66.74347826086957,66.74347826086957 0 0,0 0.5813874691092664,-0.9873230259886883 l 39.21655305213521 23.54841332471705" fill="red" stroke="none" /><path d="M 82.18462484594161 88.88188828441811 l -38.651618269022315 -24.12146846119722 a66.56086956521739,66.56086956521739 0 0,0 0.6132547948031575,-0.9641383963445571 l 38.23184578259327 24.78142053222045" fill="red" stroke="none" /><path d="M 82.576782715395 88.27688183743585 l -40.98243717813612 -27.5748127215096 a70.39565217391305,70.39565217391305 0 0,0 0.6832074474582323,-0.9968200837434924 l 40.50303999386257 28.274267540323127" fill="red" stroke="none" /><path d="M 82.78059297857968 87.97951657250589 l -26.27831245442839 -18.3443029697845 a53.04782608695652,53.04782608695652 0 0,0 0.5276614250177656,-0.7422218751381248 l 25.959535930880655 18.792702071632146" fill="red" stroke="none" /><path d="M 82.98947788004972 87.6856937992154 l -37.127313496587156 -26.877311794755954 a66.83478260869566,66.83478260869566 0 0,0 0.6807535724549769,-0.9235729635443133 l 36.66045790454836 27.51069106756913" fill="red" stroke="none" /><path d="M 83.64595745247003 86.82634096563983 l -28.584022191769783 -23.025264920925164 a57.70434782608696,57.70434782608696 0 0,0 0.6280243923529822,-0.766087643332837 l 28.184550980178173 23.512554845956494" fill="red" stroke="none" /><path d="M 87.25179093698888 83.31218511350988 l -3.2979062576050513 -4.317065155418095 a26.432608695652174,26.432608695652174 0 0,0 0.36294112917537913,-0.2723577895959641 l 3.2233121395189195 4.37304197227806" fill="red" stroke="none" /><path d="M 89.03521579738668 82.08984904055464 l -15.469880320643577 -25.26888689713051 a50.62826086956522,50.62826086956522 0 0,0 0.7451208108213161,-0.4474236378383934 l 15.033826753264826 25.530724535504827" fill="red" stroke="none" /><line stroke="#e1ed5e" stroke-width="0.3" x1="56.869717070023135" x2="54.33264160355391" y1="26.7553504044142" y2="22.446841604673864" /><path d="M 56.362301976729285 25.89364864446614 a86.0,86.0 0 0,1 42.16139366436587,-11.88097634709845" fill="none" id="id48" stroke="none" /><text fill="#e1ed5e" style="font-size:6.75px; font-family:Arial;" text-anchor="middle"><textPath startOffset="22.145653131862474" xlink:href="#id48">December</textPath></text><path d="M 89.34428304082924 81.90426304109057 l -16.215221459607672 -27.536991024427397 a52.95652173913044,52.95652173913044 0 0,0 0.7873059506129051,-0.45455130252095255 l 15.740123041134368 27.811289224224524" fill="red" stroke="none" /><path d="M 90.61103034731259 81.2157712731953 l -11.389228404781674 -22.786086151210924 a46.47391304347826,46.47391304347826 0 0,0 0.7166714483722391,-0.3505599182631217 l 10.996396707147383 22.978239819571257" fill="red" stroke="none" /><path d="M 90.93487009805054 81.0573650232925 l -13.321799595038764 -27.837437487509266 a51.86086956521739,51.86086956521739 0 0,0 0.8063409153085879,-0.3774082629040506 l 12.841969965858654 28.06202198198386" fill="red" stroke="none" /><path d="M 91.5904679813234 80.7573450057729 l -22.888552363876297 -52.373487071244185 a78.15652173913043,78.15652173913043 0 0,0 1.2339981550178734,-0.5267204343110881 l 21.986119133687993 52.75868215521468" fill="red" stroke="none" /><path d="M 91.92203290615298 80.6158196554323 l -4.0214227488934124 -9.64995064979566 a31.45434782608696,31.45434782608696 0 0,0 0.5001923396517093,-0.20342387003667023 l 3.8551759480512624 9.717561776411621" fill="red" stroke="none" /><path d="M 92.25597844496254 80.48000691201159 l -12.693461418474458 -31.995814757267947 a55.42173913043478,55.42173913043478 0 0,0 0.8873488550714246,-0.3432455995661277 l 12.142340300909504 32.20900024497212" fill="red" stroke="none" /><path d="M 92.592206182469 80.34994680014964 l -8.164677098887426 -21.657776026791595 a44.14565217391304,44.14565217391304 0 0,0 0.7113984572836068,-0.2612353674099259 l 7.791689489949691 21.794742243210244" fill="red" stroke="none" /><path d="M 92.93061703081487 80.22567764915836 l -10.773124916084287 -30.134347756391286 a53.00217391304348,53.00217391304348 0 0,0 0.8593778231646738,-0.2989362169301563 l 10.254241320874609 30.314842405890026" fill="red" stroke="none" /><path d="M 93.61358852112211 79.99465700312896 l -14.147289776036022 -44.31618372567734 a67.5195652173913,67.5195652173913 0 0,0 1.1071902260497384,-0.34301036224777487 l 13.384458917114667 44.55251067573176" fill="red" stroke="none" /><path d="M 93.95794788825049 79.88797359093562 l -15.827549553604685 -52.6847648324404 a76.01086956521739,76.01086956521739 0 0,0 1.2528762595317295,-0.3646940195354417 l 14.92081328169133 52.94870254627836" fill="red" stroke="none" /><path d="M 94.30408787586887 79.78721728523814 l -1.8078329785285765 -6.415361470337463 a27.66521739130435,27.66521739130435 0 0,0 0.4582131978990986,-0.12488804467098115 l 1.6974383796948003 6.445450009152584" fill="red" stroke="none" /><path d="M 94.6519064749342 79.69241777938228 l -4.976052236365577 -18.894880848748663 a40.53913043478261,40.53913043478261 0 0,0 0.6744836948170961,-0.17145111767453575 l 4.650963248323103 18.977517198258465" fill="red" stroke="none" /><path d="M 95.00130118170881 79.60360301121753 l -5.444235017312792 -22.214336720391334 a43.87173913043478,43.87173913043478 0 0,0 0.7330086962085878,-0.17298805642602372 l 5.0620941673642985 22.30452092046359" fill="red" stroke="none" /><path d="M 95.70440661134978 79.44403061299748 l -4.68779974152697 -22.432818765815796 a43.91739130434783,43.91739130434783 0 0,0 0.7392834367808705,-0.14787739219635387 l 4.302019819215123 22.509985554675016" fill="red" stroke="none" /><path d="M 96.41257539226777 79.30868818359171 l -7.798749147243967 -44.98111264436584 a66.65217391304347,66.65217391304347 0 0,0 1.1290322729185078,-0.1857818308615743 l 7.025439371272387 45.10836047372308" fill="red" stroke="none" /><path d="M 96.76829788921471 79.25015418208739 l -3.660253912432914 -23.501455806809727 a44.78478260869565,44.78478260869565 0 0,0 0.760647981301872,-0.1117890588995523 l 3.256280825523357 23.560825939008165" fill="red" stroke="none" /><path d="M 97.12497278360702 79.19773525538626 l -3.1875301746965685 -23.06338047772392 a44.28260869565217,44.28260869565217 0 0,0 0.75390546253463,-0.09760815583829814 l 2.7911468902711443 23.114700229762615" fill="red" stroke="none" /><path d="M 97.48249496171623 79.15144685158666 l -0.7059959781274071 -5.846659469881132 a26.889130434782608,26.889130434782608 0 0,0 0.45873381295028093,-0.05140208056824819 l 0.6055262635763269 5.857917310956351" fill="red" stroke="none" /><path d="M 97.84075906011542 79.11130261209362 l -2.070054901063257 -20.02590336536241 a41.13260869565217,41.13260869565217 0 0,0 0.7029767247610891,-0.06657262671702062 l 1.7259786129171526 20.058487747584614" fill="red" stroke="none" /><path d="M 99.27912038922189 79.0123766808444 l -0.8164745156856458 -23.770764672347983 a44.78478260869565,44.78478260869565 0 0,0 0.7685637802100005,-0.01979547669479512 l 0.40829742140490144 23.781277866392823" fill="red" stroke="none" /></svg>