<?xml version="1.0" encoding="utf-8" ?>
<svg baseProfile="full" height="200mm" version="1.1" viewBox="0,0,200,200" width="200mm" xmlns="http://www.w3.org/2000/svg" xmlns:ev="http://www.w3.org/2001/xml-events" xmlns:xlink="http://www.w3.org/1999/xlink"><defs /><rect fill="#1a1a1a" height="200" width="200" x="0" y="0" /><rect fill="#1a1a1a" height="200" width="180" x="10" y="0" /><text alignment-baseline="middle" fill="#e1ed5e" style="dominant-baseline: central; font-size:9.0px; font-family:Arial;" text-anchor="middle" x="100.0" y="100.0">2025</text><line stroke="#e1ed5e" stroke-width="0.3" x1="100.0" x2="100.0" y1="15.0" y2="10.0" /><path d="M 100.0 14.0 a86.0,86.0 0 0,1 42.46469731375804,11.215312516191453" fill="none" id="id49" stroke="none" /><text fill="#e1ed5e" style="font-size:6.75px; font-family:Arial;" text-anchor="middle"><textPath startOffset="22.20632615414155" xlink:href="#id49">January</textPath></text><path d="M 100.36148047927253 79.00311137660856 l 0.25807075621840486 -14.990250472659637 a35.992471769134255,35.992471769134255 0 0,0 0.6193676490888465,0.015996439063408693 l -0.5160650405021191 14.98358724145387" fill="red" stroke="none" /><path d="M 100.72285384407766 79.0124445844662 l 0.6457615269552 -18.74923394712681 a39.7603513174404,39.7603513174404 0 0,0 0.6838007326530724,0.02944589796109172 l -0.9684030919976039 18.735340322641523" fill="red" stroke="none" /><path d="M 101.44485096284872 79.0497635885617 l 1.1149100905294367 -16.166117180720896 a37.20451693851945,37.20451693851945 0 0,0 0.6385177573655888,0.04956126698856724 l -1.3930180372573666 16.144530651543864" fill="red" stroke="none" /><path d="M 102.16513564639614 79.11191278185805 l 1.412635553483047 -13.62836305324192 a34.70138017565872,34.70138017565872 0 0,0 0.593613866345912,0.06669943447831708 l -1.6470161233386842 13.602027665293" fill="red" stroke="none" /><path d="M 102.52436894288641 79.15227682838746 l 0.7569939489960492 -6.2517011769327455 a27.29736511919699,27.29736511919699 0 0,0 0.4659858736083707,0.0604983402784873 l -0.864494551112266 6.237744513490122" fill="red" stroke="none" /><path d="M 103.59715602781102 79.31037775812273 l 0.6905456364555679 -3.9717844454293894 a25.031367628607278,25.031367628607278 0 0,0 0.42387030734284087,0.07745958935608331 l -0.7588110649013096 3.9593093747225674" fill="red" stroke="none" /><path d="M 105.01212808612495 79.60689891045804 l 4.056239166311912 -16.503827105087282 a37.99498117942284,37.99498117942284 0 0,0 0.6337763896062658,0.16156371333060549 l -4.3397244446032035 16.43156039558781" fill="red" stroke="none" /><path d="M 105.36241919743992 79.69619591428918 l 4.575213367953765 -17.323195455813508 a38.91718946047679,38.91718946047679 0 0,0 0.6462145766832862,0.17663485470459764 l -4.872725833860763 17.241874060282615" fill="red" stroke="none" /><path d="M 105.71112130821622 79.79150937346287 l 4.077324999215843 -14.427391676912952 a35.992471769134255,35.992471769134255 0 0,0 0.5947495139144273,0.17362369221712803 l -4.325064730853698 14.355069655777122" fill="red" stroke="none" /><path d="M 106.40334571778207 80.00007090966166 l 9.68937884020725 -30.26338078161612 a52.77666248431619,52.77666248431619 0 0,0 0.8628159435990438,0.2844568510774779 l -10.208877606048711 30.092110206279408" fill="red" stroke="none" /><path d="M 106.74666289553966 80.11325718540242 l 4.72351053414194 -13.923215170069573 a35.70263488080301,35.70263488080301 0 0,0 0.5802834184369688,0.20244949052905756 l -4.962475956642183 13.839844826368308" fill="red" stroke="none" /><path d="M 107.08798089147638 80.2323363322302 l 5.585008782744247 -15.576026076987986 a37.54705144291091,37.54705144291091 0 0,0 0.6065058792648413,0.22338123384691 l -5.852296987781665 15.477581575334751" fill="red" stroke="none" /><path d="M 107.4271985657038 80.35727306442388 l 6.532579917890045 -17.27672720431475 a39.47051442910916,39.47051442910916 0 0,0 0.6334394213682544,0.24576465441902243 l -6.829002504257966 17.16171984600518" fill="red" stroke="none" /><path d="M 107.76421540070413 80.48803036053334 l 6.429588663067416 -16.157967330047676 a38.39021329987453,38.39021329987453 0 0,0 0.6118963638766869,0.24960789062801125 l -6.70676889653249 16.044898553236084" fill="red" stroke="none" /><path d="M 108.09893153111575 80.62456947434976 l 7.824563712621235 -18.719048312108757 a41.288582183186946,41.288582183186946 0 0,0 0.653374594156306,0.27974090298909254 l -8.145622064567856 18.581587881156874" fill="red" stroke="none" /><path d="M 108.43124777332544 80.76684994638697 l 9.309282359506126 -21.236100435607867 a44.186951066499375,44.186951066499375 0 0,0 0.69398317105547,0.31137001972870404 l -9.673447649028375 21.07271008536263" fill="red" stroke="none" /><path d="M 109.73455568895987 81.39251694778311 l 12.507133030733884 -23.90723042091607 a47.98117942283564,47.98117942283564 0 0,0 0.7285255586850006,0.38915312301167604 l -12.916803635947197 23.688398571402637" fill="red" stroke="none" /><line stroke="#e1ed5e" stroke-width="0.3" x1="143.23703022742887" x2="145.7803849466894" y1="26.81831364943548" y2="22.513508569990506" /><path d="M 143.74570117128098 25.957352633546492 a86.0,86.0 0 0,1 28.547481713284135,27.462654790039103" fill="none" id="id50" stroke="none" /><text fill="#e1ed5e" style="font-size:6.75px; font-family:Arial;" text-anchor="middle"><textPath startOffset="19.985693538727396" xlink:href="#id50">February</textPath></text><path d="M 112.77801427241765 83.33499621200491 l 6.245098317728173 -8.144816941235934 a31.263493362609786,31.263493362609786 0 0,0 0.4242418009682391,0.3311274548676529 l -6.384372673855843 8.036111097145056" fill="red" stroke="none" /><path d="M 113.06298171725822 83.55741782278167 l 18.06058022081665 -22.73313864143958 a50.03412045169385,50.03412045169385 0 0,0 0.6697343435612395,0.5415452622581964 l -18.44921796294238 22.418887281917257" fill="red" stroke="none" /><path d="M 113.34407831869373 83.78471172551755 l 5.789675123686955 -7.035424171234481 a30.111395683814305,30.111395683814305 0 0,0 0.39738792216242375,0.3328009565461925 l -5.909920582808496 6.9347220572944686" fill="red" stroke="none" /><path d="M 113.6212207817346 84.01681056812373 l 12.856472978857562 -15.085831610807427 a40.820979109159346,40.820979109159346 0 0,0 0.5308791685724907,0.46037318361586743 l -13.114245946076817 14.862293433771887" fill="red" stroke="none" /><path d="M 113.89432698308785 84.25364557470407 l 8.734075054613564 -9.898272982526056 a34.200752823086574,34.200752823086574 0 0,0 0.4380774631121768,0.3933102717910313 l -8.90316350532173 9.746463701965727" fill="red" stroke="none" /><path d="M 114.16331599549186 84.49514656593476 l 16.153608423174536 -17.683664694929025 a44.95101380175659,44.95101380175659 0 0,0 0.5667940033397226,0.5267732546622779 l -16.455610310309105 17.402986854192108" fill="red" stroke="none" /><path d="M 114.42810811169701 84.74124197986012 l 3.9159072973354134 -4.141352519454687 a26.69957284818068,26.69957284818068 0 0,0 0.331223148349618,0.318636406284576 l -3.9866136892974495 4.073333026407809" fill="red" stroke="none" /><path d="M 114.68862486808459 84.99185889309783 l 26.22937580450763 -26.799933741608942 a58.49955471267252,58.49955471267252 0 0,0 0.7135948392161758,0.7105304361968884 l -26.68680644389113 26.344467454761936" fill="red" stroke="none" /><path d="M 114.94478906791727 85.2469230424477 l 23.120357491520693 -22.82376899455707 a53.48808030112924,53.48808030112924 0 0,0 0.6411838703672379,0.6607963400668355 l -23.50980562559104 22.422408458940122" fill="red" stroke="none" /><path d="M 115.19652480421416 85.50635884689758 l 12.021490661579232 -11.465461611722164 a37.61243653701381,37.61243653701381 0 0,0 0.44281063867913956,0.4723595152639909 l -12.217068622228833 11.256832679580118" fill="red" stroke="none" /><path d="M 115.4437574822437 85.77008943001954 l 15.843060966948025 -14.59782963916794 a42.54296198243413,42.54296198243413 0 0,0 0.4915866796222794,0.5428222897376555 l -16.091991287186342 14.322954562160737" fill="red" stroke="none" /><path d="M 115.68641384162765 86.03803664274999 l 5.792203390564976 -5.155450590127755 a28.75424341279799,28.75424341279799 0 0,0 0.325892566138523,0.3725515393226759 l -5.880087820281347 5.054983494602131" fill="red" stroke="none" /><path d="M 115.9244219780498 86.31012108654704 l 9.745226558953371 -8.377759127466662 a33.85131466750313,33.85131466750313 0 0,0 0.37605487768744555,0.44513036136761647 l -9.887992050127933 8.20876981646994" fill="red" stroke="none" /><path d="M 116.15771136456269 86.58626213691792 l 12.176997443360994 -10.109046261520819 a36.82630983688833,36.82630983688833 0 0,0 0.40070796804716,0.4912205885823494 l -12.349203903484563 9.897941503330369" fill="red" stroke="none" /><path d="M 116.60985879189232 87.15038557335679 l 31.347644574301775 -24.25096751333316 a60.633120564617315,60.633120564617315 0 0,0 0.6315201088939948,0.8310064373494116 l -31.760440623419882 23.707776300102715" fill="red" stroke="none" /><path d="M 116.82858285166822 87.43820079747576 l 17.069578715558833 -12.741692047781433 a42.300733174404016,42.300733174404016 0 0,0 0.4305356284502519,0.5872501133604727 l -17.286376956522712 12.445979490749465" fill="red" stroke="none" /><path d="M 117.04232023915458 87.72973835380427 l 22.398446931485392 -16.126607202599402 a48.59996168130489,48.59996168130489 0 0,0 0.48296184194777125,0.683115274914834 l -22.672721393237047 15.738665427352773" fill="red" stroke="none" /><path d="M 117.2510076193507 88.02491185347247 l 8.696014760040404 -6.036490480601144 a31.585834404015056,31.585834404015056 0 0,0 0.30619538648077477,0.4493039471343324 l -8.798634612189913 5.885908510196405" fill="red" stroke="none" /><path d="M 117.45458315368197 88.32363383020206 l 14.23319704235357 -9.521397272575246 a38.124278205771645,38.124278205771645 0 0,0 0.3601897652655061,0.5485937236987546 l -14.394983442977002 9.274985484898817" fill="red" stroke="none" /><path d="M 117.65298651832404 88.62581576622439 l 15.121987250583565 -9.743409070777048 a38.989122233375156,38.989122233375156 0 0,0 0.3586486886705396,0.5672960958079105 l -15.287463535500061 9.48166532725493" fill="red" stroke="none" /><line stroke="#e1ed5e" stroke-width="0.3" x1="172.23445277983987" x2="176.4835382374775" y1="55.19839476539836" y2="52.563006222186495" /><path d="M 173.08426987136738 54.67131705675599 a86.0,86.0 0 0,1 12.851231095245387,41.99856678651699" fill="none" id="id51" stroke="none" /><text fill="#e1ed5e" style="font-size:6.75px; font-family:Arial;" text-anchor="middle"><textPath startOffset="22.20632615414155" xlink:href="#id51">March</textPath></text><path d="M 117.84615892207809 88.93136811851018 l 3.35875011080516 -2.0831804042954483 a24.952321204516938,24.952321204516938 0 0,0 0.22324509287697106,0.36695623434491076 l -3.394111001968355 2.025056396743456" fill="red" stroke="none" /><path d="M 118.03404312379186 89.2402003453031 l 27.26602504914578 -16.267953053839097 a52.75031367628607,52.75031367628607 0 0,0 0.4585266395362669,0.7837706605614825 l -27.542011363152376 15.79620298092372" fill="red" stroke="none" /><path d="M 118.21658344932153 89.55222093294921 l 12.82246338151742 -7.354082881575279 a35.781681304893354,35.781681304893354 0 0,0 0.3018310202319649,0.5369237057823713 l -12.947152043041816 7.1322756658581135" fill="red" stroke="none" /><path d="M 118.56541770881063 90.18545643968196 l 2.382558918825809 -1.2595314934790236 a23.69499658343789,23.69499658343789 0 0,0 0.18751832921288808,0.36222572615388077 l -2.4038866811988133 1.218333045064798" fill="red" stroke="none" /><path d="M 119.04729006885535 91.15688171328212 l 3.9256063333199287 -1.8225480384424662 a25.32805573400251,25.32805573400251 0 0,0 0.1801882305944376,0.39702088125977236 l -3.9563968808777132 1.754705148340631" fill="red" stroke="none" /><path d="M 119.196687751892 91.48605970444005 l 14.523968274016164 -6.441538266276847 a36.888331242158095,36.888331242158095 0 0,0 0.2524378998999335,0.5826614775141231 l -14.632696883758777 6.1905776441761216" fill="red" stroke="none" /><path d="M 119.34039704204932 91.81776055985345 l 20.416519301309915 -8.637508790253364 a43.168464504391466,43.168464504391466 0 0,0 0.28363390057280946,0.6868419878762446 l -20.562174888768922 8.284792231923815" fill="red" stroke="none" /><path d="M 119.47837535516314 92.15188598940014 l 18.867048622008845 -7.601801789378041 a41.34091723964868,41.34091723964868 0 0,0 0.26026361489944594,0.6623425116095629 l -18.995105786789992 7.275910272872694" fill="red" stroke="none" /><path d="M 119.61058180528143 92.48833698450437 l 12.327354434687573 -4.721886036089477 a34.200752823086574,34.200752823086574 0 0,0 0.20584848698229663,0.5515716036837207 l -12.406807510171495 4.508991295376423" fill="red" stroke="none" /><path d="M 119.7369772167798 92.82701384747503 l 3.405408886271056 -1.2376237007630873 a24.62333025094103,24.62333025094103 0 0,0 0.14134602866445525,0.39960425689533563 l -3.4262079957453206 1.1788218174411371" fill="red" stroke="none" /><path d="M 119.85752413597 93.16781622104841 l 13.010025435525119 -4.476231988223153 a34.75853969887076,34.75853969887076 0 0,0 0.18978610601970886,0.5674363005674014 l -13.085148835316598 4.251622584733438" fill="red" stroke="none" /><path d="M 119.97218684219823 93.5106431181261 l 2.588265357471962 -0.8409783937199448 a23.721463249686323,23.721463249686323 0 0,0 0.1228370973998769,0.3894271670214845 l -2.6023579386400453 0.7963010602720411" fill="red" stroke="none" /><path d="M 120.28053869075195 94.5502522615342 l 17.816593702276748 -4.787641133044607 a39.448645445420325,39.448645445420325 0 0,0 0.17057531948533536,0.6572962880289825 l -17.896365353632387 4.480248419466775" fill="red" stroke="none" /><path d="M 120.37134235888165 94.90015583598534 l 19.42562132089091 -4.863088537830781 a41.025094102885824,41.025094102885824 0 0,0 0.16559915933990482,0.686515425729366 l -19.506453280491634 4.5279878804420095" fill="red" stroke="none" /><path d="M 120.45610955862082 95.25157060432595 l 25.692052281279118 -5.963836668845331 a47.37515683814304,47.37515683814304 0 0,0 0.1775567028486028,0.7959518834995797 l -25.790903371129755 5.520706615795787" fill="red" stroke="none" /><path d="M 120.53481517161879 95.60439243477599 l 11.616474088454611 -2.48658003287081 a32.87962754077792,32.87962754077792 0 0,0 0.1137019858125691,0.5544512632604474 l -11.657555370182177 2.286253113446951" fill="red" stroke="none" /><path d="M 120.6074358757038 95.95851677861258 l 12.73837763172937 -2.4982215049388308 a33.9810390715182,33.9810390715182 0 0,0 0.10762972450632477,0.5749622920338865 l -12.779493080145555 2.2785811354423817" fill="red" stroke="none" /><path d="M 120.67395015179393 96.31383870115 l 37.06784788822276 -6.6091900828816055 a58.65244667503137,58.65244667503137 0 0,0 0.168662479618549,0.995455502144222 l -37.17612222936153 5.970148792421545" fill="red" stroke="none" /><path d="M 120.73433829027371 96.67025291283417 l 8.959841152740863 -1.4388694040842516 a30.074640414052695,30.074640414052695 0 0,0 0.07768438092355298,0.5118430084986377 l -8.983281427103714 1.2844272831935317" fill="red" stroke="none" /><path d="M 120.78858239683441 97.02765380044208 l 23.250503784530064 -3.3243510905427742 a44.486958858218316,44.486958858218316 0 0,0 0.10186242722155105,0.7589933988677868 l -23.304282210809454 2.923639349610323" fill="red" stroke="none" /><path d="M 120.83666639777658 97.38593545837742 l 17.882408803110636 -2.243438075871822 a39.022584692597235,39.022584692597235 0 0,0 0.07787727377877643,0.6672049228869423 l -17.918376429892998 1.9352894146600268" fill="red" stroke="none" /><path d="M 120.87857604477298 97.74499172005257 l 4.915817767552701 -0.5309370593460201 a25.944406787954833,25.944406787954833 0 0,0 0.04413375156834494,0.4444208553802527 l -4.924228644803275 0.44624067326133243" fill="red" stroke="none" /><path d="M 120.91429891909075 98.10471618934814 l 6.663866383428451 -0.6038891440597337 a27.691173086574654,27.691173086574654 0 0,0 0.03893315138213483,0.47508306091826863 l -6.673274018630081 0.48909216593369637" fill="red" stroke="none" /><path d="M 120.98425023603335 99.18683210126433 l 20.173895099368195 -0.7817655481012801 a41.189036649937265,41.189036649937265 0 0,0 0.021356134101054792,0.7087061209727686 l -20.184362927924894 0.4343892797035123" fill="red" stroke="none" /><line stroke="#e1ed5e" stroke-width="0.3" x1="184.98032266829074" x2="189.97916517819016" y1="98.17113171792111" y2="98.06355123074" /><path d="M 185.9800911702706 98.14961562048488 a86.0,86.0 0 0,1 -9.607161424134198,41.387399972396054" fill="none" id="id52" stroke="none" /><text fill="#e1ed5e" style="font-size:6.75px; font-family:Arial;" text-anchor="middle"><textPath startOffset="21.466115282336823" xlink:href="#id52">April</textPath></text><path d="M 120.99513854157772 99.54816195383933 l 8.561222415474141 -0.18424674842198288 a29.5632047804266,29.5632047804266 0 0,0 0.006570060299417549,0.5088584106503722 l -8.563125482891275 0.03685207971114803" fill="red" stroke="none" /><path d="M 120.99980553446 99.90962569577887 l 16.949241049121877 -0.07294238341288505 a37.94939800501882,37.94939800501882 0 0,0 -0.0028113324446731773,0.6532546517471571 l -16.9479854193877 -0.21882174653795683" fill="red" stroke="none" /><path d="M 120.95626037817324 101.35467743843564 l 17.485461921562365 1.1303142993220845 a38.5219573400251,38.5219573400251 0 0,0 -0.04847060380519237,0.6613428788478317 l -17.463414759092835 -1.4311303146666865" fill="red" stroke="none" /><path d="M 120.92983693683757 101.71520430193887 l 4.97531373447851 0.4077279506107083 a25.991992471769134,25.991992471769134 0 0,0 -0.040380916569270786,0.44560004945439674 l -4.967558221632164 -0.49330938861367557" fill="red" stroke="none" /><path d="M 120.8583938346157 102.4346265915055 l 13.294936095338493 1.551807162465243 a34.38519447929737,34.38519447929737 0 0,0 -0.07368008837247579,0.5873027988142405 l -13.266254497719169 -1.7804277155668784" fill="red" stroke="none" /><path d="M 120.81339534386255 102.79330883721812 l 13.161795800886727 1.7664085996962724 a34.27979924717691,34.27979924717691 0 0,0 -0.0835218314020096,0.5841514942954673 l -13.129439918468117 -1.9927055659721489" fill="red" stroke="none" /><path d="M 120.76222939487914 103.15116336523771 l 16.099194185740668 2.4434365868468015 a37.28356336260978,37.28356336260978 0 0,0 -0.10176325919545404,0.6336799121507088 l -16.054749172183925 -2.7201957286907152" fill="red" stroke="none" /><path d="M 120.64145759157962 103.86396538481128 l 3.608240742357432 0.6754424810688928 a24.67091593475533,24.67091593475533 0 0,0 -0.08173129881584212,0.41674613183405496 l -3.5960795105659256 -0.7374523399708927" fill="red" stroke="none" /><path d="M 120.5718875245553 104.21870165774334 l 8.1267398713724 1.6665602962530657 a29.295861869510667,29.295861869510667 0 0,0 -0.10555712141678374,0.4931277294840388 l -8.096848711231173 -1.8062018451532735" fill="red" stroke="none" /><path d="M 120.49622156327973 104.57218783832717 l 9.97654227510507 2.2255138644926493 a31.22175658720201,31.22175658720201 0 0,0 -0.12152612924247269,0.523531384142273 l -9.936755579932045 -2.396913905983487" fill="red" stroke="none" /><path d="M 120.41448212921028 104.9243191809786 l 17.1014552702606 4.125160936093242 a38.59195057716437,38.59195057716437 0 0,0 -0.16133031523615368,0.6444344138458639 l -17.027913640729384 -4.418923189336502" fill="red" stroke="none" /><path d="M 120.32669344350535 105.2749913415812 l 15.182732921948462 3.940079331024078 a36.68564962358846,36.68564962358846 0 0,0 -0.1638833981828757,0.6098710907590366 l -15.11266144742381 -4.200841354958663" fill="red" stroke="none" /><path d="M 120.23288151984713 105.62410040840565 l 4.191786450708642 1.165183904539461 a25.350715708908407,25.350715708908407 0 0,0 -0.1204851470455374,0.41942460303184703 l -4.171108666777005 -1.23716598307589" fill="red" stroke="none" /><path d="M 120.13307415673323 105.97154293290107 l 13.135757291720548 3.8961133313783685 a34.70138017565872,34.70138017565872 0 0,0 -0.17478461807957746,0.5712062448543799 l -13.066745901134837 -4.121646548784805" fill="red" stroke="none" /><path d="M 120.02730092923936 106.31721596034902 l 21.80014876665892 6.876425745700883 a43.85895267252195,43.85895267252195 0 0,0 -0.2333040417063041,0.7180360083159459 l -21.67855247393637 -7.250660653994624" fill="red" stroke="none" /><path d="M 119.9155931802556 106.66101706037122 l 9.926628561859717 3.3200839966980693 a31.46713486825596,31.46713486825596 0 0,0 -0.17622969449775583,0.5122059835019219 l -9.86800803641873 -3.4904626832892918" fill="red" stroke="none" /><path d="M 119.79798401119884 107.00284435728193 l 17.50509452789914 6.191814902418551 a39.567899887076535,39.567899887076535 0 0,0 -0.23265122281085623,0.6401562454511956 l -17.395919044083055 -6.492218944875878" fill="red" stroke="none" /><path d="M 119.67450827220406 107.3425965602758 l 21.978311234332786 8.202384031009084 a44.45901252195735,44.45901252195735 0 0,0 -0.2737526020339523,0.7146816604420455 l -21.833864352705326 -8.579489258284273" fill="red" stroke="none" /><path d="M 119.54520255179757 107.68017299344265 l 27.19581159574577 10.686435057343084 a50.22006267252196,50.22006267252196 0 0,0 -0.32307615137560125,0.8018485124319114 l -27.007832830112775 -11.15298293761781" fill="red" stroke="none" /><path d="M 119.26925614724726 108.34839909993367 l 18.543939102808853 8.034155721015214 a41.20953575909661,41.20953575909661 0 0,0 -0.2876011837895724,0.6484647449503593 l -18.402896834288008 -8.35216880245826" fill="red" stroke="none" /><path d="M 119.12269723197855 108.67885076344098 l 19.999632935686513 9.076848703234079 a42.96302574654956,42.96302574654956 0 0,0 -0.3114315740946999,0.6707959043465018 l -19.840426744751984 -9.41976467485941" fill="red" stroke="none" /><path d="M 118.97047184881838 109.00673069616215 l 9.268682394703 4.400550861498421 a31.26027880803011,31.26027880803011 0 0,0 -0.2349682479601721,0.4841041860940975 l -9.191560890128113 -4.559444003557793" fill="red" stroke="none" /><path d="M 118.81262510543309 109.33194174019688 l 10.88006929104975 5.397023125925095 a33.14511286072773,33.14511286072773 0 0,0 -0.2579342111325889,0.5089286687895485 l -10.78555641013089 -5.583506006417338" fill="red" stroke="none" /><path d="M 118.64920377521936 109.65438752849418 l 12.760724936961935 6.606018421529149 a35.369258168130486,35.369258168130486 0 0,0 -0.2845498787358028,0.5382611351465049 l -12.64512255000124 -6.824694571761788" fill="red" stroke="none" /><line stroke="#e1ed5e" stroke-width="0.3" x1="174.80103733775053" x2="179.2010983576182" y1="140.37084112569926" y2="142.7455964860345" /><path d="M 175.68104954172406 140.8457921977663 a86.0,86.0 0 0,1 -30.038265399797805,32.042727171017184" fill="none" id="id53" stroke="none" /><text fill="#e1ed5e" style="font-size:6.75px; font-family:Arial;" text-anchor="middle"><textPath startOffset="22.206326154141568" xlink:href="#id53">May</textPath></text><path d="M 118.48025628344425 109.97397251340804 l 5.88956724717044 3.1786562338841216 a27.692597239648684,27.692597239648684 0 0,0 -0.2300115353406066,0.41753774800992083 l -5.8339793023783235 -3.2795645002918477" fill="red" stroke="none" /><path d="M 118.30583269289576 110.29060199501025 l 4.2032213084064285 2.362835840761448 a25.821831869510664,25.821831869510664 0 0,0 -0.22114309130573154,0.3855816198981821 l -4.161926220948317 -2.4348373065179456" fill="red" stroke="none" /><path d="M 118.12598468904814 110.60418214915192 l 9.754496386134628 5.706639293053919 a32.30114736511919,32.30114736511919 0 0,0 -0.28489477280523295,0.4775000263382851 l -9.654820737631168 -5.873701413278308" fill="red" stroke="none" /><path d="M 117.94076556474637 110.91462005526583 l 20.664520437185907 12.571670276956121 a45.188205771643666,45.188205771643666 0 0,0 -0.40999766997420783,0.6610467900985646 l -20.445058127543735 -12.925513398419959" fill="red" stroke="none" /><path d="M 117.75023020441432 111.22182372390056 l 18.062028476511948 11.418944843266432 a42.36888331242158,42.36888331242158 0 0,0 -0.39502958555797124,0.6130946892425391 l -17.862794027576925 -11.728161132430424" fill="red" stroke="none" /><path d="M 117.55443506779139 111.5257021239791 l 20.669615380307665 13.571033700067474 a45.726624429109165,45.726624429109165 0 0,0 -0.43766235763339056,0.6542458418534416 l -20.432949917263553 -13.924816456126722" fill="red" stroke="none" /><path d="M 117.35343817320211 111.8261652097733 l 8.068674209115382 5.498707130451483 a30.764183713927228,30.764183713927228 0 0,0 -0.30198575822315915,0.4350330078825942 l -7.972827543730086 -5.636781400521097" fill="red" stroke="none" /><path d="M 117.14729908036423 112.12312394758627 l 12.95191222883221 9.156989481112843 a36.86198243412798,36.86198243412798 0 0,0 -0.3707616944373045,0.5149555658392315 l -12.792370742019303 -9.378578652403206" fill="red" stroke="none" /><path d="M 116.27256486870786 113.27417163493432 l 5.290482592691958 4.315654878848969 a27.82745070263488,27.82745070263488 0 0,0 -0.3059747466668391,0.36856629315044714 l -5.215411846131576 -4.406082429113186" fill="red" stroke="none" /><path d="M 116.0416608686014 113.55231037782055 l 2.11479489644421 1.7866202918015917 a23.768459774153072,23.768459774153072 0 0,0 -0.2667245515116575,0.3102609115120654 l -2.0837278353617736 -1.822758302475185" fill="red" stroke="none" /><path d="M 115.80600337817218 113.82643327865902 l 5.425524891150395 4.746023147938209 a28.20840176913425,28.20840176913425 0 0,0 -0.3228399871797893,0.36271414799969937 l -5.343026054322267 -4.8387114656787755" fill="red" stroke="none" /><path d="M 115.56566222782051 114.09645910891815 l 3.0889322351210478 2.797375807421709 a25.167350928481806,25.167350928481806 0 0,0 -0.29356347672208666,0.31860517449101666 l -3.040322350403239 -2.8501322367140607" fill="red" stroke="none" /><path d="M 115.32070863581623 114.36230785411682 l 2.4880296425945643 2.3323886986254667 a24.410326750313676,24.410326750313676 0 0,0 -0.2900103144239083,0.30407465522751015 l -2.4475127767916915 -2.374870470435484" fill="red" stroke="none" /><path d="M 115.07121518719521 114.62390073753431 l 12.61292412780326 12.238571884486058 a38.57465495608532,38.57465495608532 0 0,0 -0.46649501244503877,0.4725569847080388 l -12.400388490302687 -12.45386936317476" fill="red" stroke="none" /><path d="M 114.81725581225074 114.88116024355365 l 10.355346910192797 10.400007849008007 a35.676286072772896,35.676286072772896 0 0,0 -0.438903343140746,0.4295592981716907 l -10.174793614676258 -10.576717250102272" fill="red" stroke="none" /><path d="M 114.55890576462653 115.13401014063108 l 19.426666590791093 20.194056746903687 a49.021336562107905,49.021336562107905 0 0,0 -0.6131499269111175,0.5797715267832558 l -19.076180829489168 -20.525462910432864" fill="red" stroke="none" /><path d="M 114.29624159901734 115.38237550388516 l 17.91012949823461 19.27082270937501 a47.30850331242158,47.30850331242158 0 0,0 -0.6012695641968419,0.5492454909300467 l -17.575760384570906 -19.57626096689164" fill="red" stroke="none" /><path d="M 114.0293411484842 115.62618273729858 l 17.537798254816543 19.53397792805465 a47.251679209535766,47.251679209535766 0 0,0 -0.6099013803690225,0.5381670561581154 l -17.19895452154093 -19.832968125985055" fill="red" stroke="none" /><path d="M 113.75828350139079 115.86535959552629 l 13.03325475978676 15.029292966903823 a40.89335006273526,40.89335006273526 0 0,0 -0.5357701133656495,0.4565949138945879 l -12.772619169844063 -15.251412271021357" fill="red" stroke="none" /><line stroke="#e1ed5e" stroke-width="0.3" x1="143.8653032363475" x2="146.44561519142675" y1="172.8068346515853" y2="177.08958963109032" /><path d="M 144.38136562736335 173.6633856474863 a86.0,86.0 0 0,1 -40.68145358897372,12.25698825130547" fill="none" id="id54" stroke="none" /><text fill="#e1ed5e" style="font-size:6.75px; font-family:Arial;" text-anchor="middle"><textPath startOffset="21.466115282336833" xlink:href="#id54">June</textPath></text><path d="M 110.8373102113329 117.98757091392108 l 2.261285681486402 3.7532409573212973 a25.381806775407778,25.381806775407778 0 0,0 -0.376173036183638,0.22224966036315066 l -2.196344774274382 -3.791609189978198" fill="red" stroke="none" /><path d="M 110.5260780823613 118.17145234162733 l 6.883553195140157 11.883263438464446 a34.73299874529486,34.73299874529486 0 0,0 -0.519921951624185,0.2952252532616321 l -6.6779824765947735 -11.999991857520707" fill="red" stroke="none" /><path d="M 110.21172684928248 118.3499491758327 l 9.614654739901608 17.277041231549383 a40.77214554579674,40.77214554579674 0 0,0 -0.616197567019389,0.33600004450054094 l -9.31583436101357 -17.439981927809693" fill="red" stroke="none" /><path d="M 109.57404056367764 118.69057910512821 l 6.079575820925035 11.868634987585182 a34.335131744040154,34.335131744040154 0 0,0 -0.5283458882040086,0.26492359662620885 l -5.8743760250382655 -11.971526425120693" fill="red" stroke="none" /><path d="M 108.2653958097858 119.30500536409082 l 3.557127682254115 8.30817671252591 a30.037641154328732,30.037641154328732 0 0,0 -0.47706717211153615,0.1994141166339154 l -3.4135890506451174 -8.3681758721798" fill="red" stroke="none" /><path d="M 107.93186726928326 119.44442032107085 l 8.996747818609872 22.054900840963665 a44.81932245922208,44.81932245922208 0 0,0 -0.7168507523874347,0.28524970848842757 l -8.615775990180571 -22.20649739385816" fill="red" stroke="none" /><path d="M 105.53697534728816 120.25689768951611 l 1.8410269347946822 6.735354940679762 a27.982434127979925,27.982434127979925 0 0,0 -0.46572038862508125,0.12300098750262713 l -1.7248161033581035 -6.766047277485972" fill="red" stroke="none" /><path d="M 105.18746579009965 120.34920634021253 l 3.3910535466021585 13.302304270076196 a34.727728983688834,34.727728983688834 0 0,0 -0.5805264375262833,0.1426792742059078 l -3.161573824332664 -13.358704802596133" fill="red" stroke="none" /><path d="M 104.83641907484287 120.43548508189849 l 3.0402082264696055 12.845894637429295 a34.200752823086574,34.200752823086574 0 0,0 -0.5740512497968193,0.1306521955033446 l -2.8186368272799243 -12.896323566510324" fill="red" stroke="none" /><path d="M 104.48393922423573 120.51570834832081 l 2.1941484284214976 10.039054273331388 a31.276035131744038,31.276035131744038 0 0,0 -0.5269394420117042,0.1104252834097812 l -2.021017524980415 -10.07533553746771" fill="red" stroke="none" /><path d="M 103.7750983002368 120.6578951692458 l 1.4257272125110163 7.80178976906272 a28.93099121706399,28.93099121706399 0 0,0 -0.4906572513471633,0.08530705242651847 l -1.291220989691803 -7.825175400010244" fill="red" stroke="none" /><path d="M 103.06178313531738 120.77559828337769 l 1.9899669562037665 13.50283552169341 a34.6486825595985,34.6486825595985 0 0,0 -0.5907953608397968,0.08187885367280756 l -1.7572430041771394 -13.53508894085882" fill="red" stroke="none" /><line stroke="#e1ed5e" stroke-width="0.3" x1="102.19456741930631" x2="102.32365962044197" y1="184.97166512339345" y2="189.96999836594603" /><path d="M 102.22038585953345 185.97133177190398 a86.0,86.0 0 0,1 -42.740103519485714,-10.115201625700543" fill="none" id="id55" stroke="none" /><text fill="#e1ed5e" style="font-size:6.75px; font-family:Arial;" text-anchor="middle"><textPath startOffset="22.20632615414155" xlink:href="#id55">July</textPath></text><path d="M 100.54218724476979 120.99299961872073 l 0.0823145001469826 3.1871429785008885 a24.188205771643663,24.188205771643663 0 0,0 -0.4163139330972783,0.007167221904305435 l -0.027440877157036355 -3.188087677684354" fill="red" stroke="none" /><path d="M 99.45781275523022 120.99299961872073 l -0.27415490544820753 10.615029920131061 a31.618569636135508,31.618569636135508 0 0,0 -0.5439593199378022,-0.01873505883147736 l 0.4568345770606528 -10.60873806287349" fill="red" stroke="none" /><path d="M 98.73552117531835 120.96189622390904 l -1.0566410253926946 17.516465351472288 a38.548306148055204,38.548306148055204 0 0,0 -0.6619978431372965,-0.045655247142628363 l 1.3580016293089212 -17.495681759813372" fill="red" stroke="none" /><path d="M 98.37488393609728 120.93702456842531 l -1.0235988256953132 13.187435800940413 a34.22710163111669,34.22710163111669 0 0,0 -0.5870040542706868,-0.05064917978672049 l 1.2504471977075418 -13.16786236887503" fill="red" stroke="none" /><path d="M 95.51606077576429 120.51570834832081 l -0.6469924853037732 2.9602339523925902 a24.030112923462987,24.030112923462987 0 0,0 -0.4033395530159464,-0.09179876910558304 l 0.6978521877125822 -2.9486584497093205" fill="red" stroke="none" /><path d="M 90.7491055286396 118.85261126421891 l -4.886607995536669 9.958531169681509 a32.09284818067754,32.09284818067754 0 0,0 -0.4938418324245894,-0.2476225467659599 l 5.057303735644019 -9.872940782006246" fill="red" stroke="none" /><path d="M 90.42595943632237 118.69057910512821 l -4.81705177670606 9.403917466946567 a31.565872020075282,31.565872020075282 0 0,0 -0.4814683798911647,-0.2518815007581296 l 4.97821105912372 -9.319606547243719" fill="red" stroke="none" /><line stroke="#e1ed5e" stroke-width="0.3" x1="58.666819895761336" x2="56.23545636021788" y1="174.27360380694188" y2="178.64263932499728" /><path d="M 58.180547188652646 175.14741091055294 a86.0,86.0 0 0,1 -31.652253787137756,-30.449443065178592" fill="none" id="id56" stroke="none" /><text fill="#e1ed5e" style="font-size:6.75px; font-family:Arial;" text-anchor="middle"><textPath startOffset="22.20632615414155" xlink:href="#id56">August</textPath></text><path d="M 89.1626897886671 117.98757091392108 l -6.812412065091324 11.307117977257791 a34.200752823086574,34.200752823086574 0 0,0 -0.5016449165468799,-0.30815127987047075 l 7.006036181570512 -11.188178230558943" fill="red" stroke="none" /><path d="M 86.51685102203217 116.09983520530335 l -4.13027069548406 4.9318358537197815 a27.4328952195734,27.4328952195734 0 0,0 -0.35941602630232716,-0.30630213497901676 l 4.214552198363443 -4.860009328517813" fill="red" stroke="none" /><path d="M 86.24171649860922 115.8653595955263 l -6.871538961210217 7.923912643844626 a31.48839545796738,31.48839545796738 0 0,0 -0.406436684932549,-0.3586331188699223 l 7.006917999049354 -7.804456383202416" fill="red" stroke="none" /><path d="M 85.70375840098266 115.38237550388516 l -2.721324387254633 2.928072619835151 a24.997401116687577,24.997401116687577 0 0,0 -0.3126629288910858,-0.2956423147025612 l 2.771323150536536 -2.880795668386659" fill="red" stroke="none" /><path d="M 85.44109423537348 115.13401014063109 l -5.424822739029141 5.639113520678746 a28.824851631116687,28.824851631116687 0 0,0 -0.35461437103141247,-0.34706479848571686 l 5.521087062436347 -5.54489861927046" fill="red" stroke="none" /><path d="M 85.18274418774928 114.88116024355367 l -1.9752839104222417 1.9838029909157435 a23.799503676286072,23.799503676286072 0 0,0 -0.2878146227437214,-0.29155469329841477 l 2.009139158221496 -1.949507803636664" fill="red" stroke="none" /><path d="M 84.9287848128048 114.62390073753433 l -4.219511564273759 4.094276241855008 a26.87940267252196,26.87940267252196 0 0,0 -0.3193445176019605,-0.3348314499830986 l 4.289362633254678 -4.021037675289409" fill="red" stroke="none" /><path d="M 84.43433777217949 114.09645910891817 l -7.831656905089113 7.092446803859707 a31.565872020075282,31.565872020075282 0 0,0 -0.3612656187218202,-0.4058857523844978 l 7.952581373459271 -6.956586881734345" fill="red" stroke="none" /><path d="M 84.19399662182784 113.82643327865904 l -2.8557898198955995 2.4981259625180696 a24.794228356336262,24.794228356336262 0 0,0 -0.2782355062658685,-0.3236507524328733 l 2.898367835732247 -2.448598110923666" fill="red" stroke="none" /><path d="M 83.72743513129214 113.27417163493432 l -10.249469967492274 8.360896061150605 a34.22710163111669,34.22710163111669 0 0,0 -0.3684826000511112,-0.45973870035362707 l 10.391870479598246 -8.183229527218717" fill="red" stroke="none" /><path d="M 83.50135304334701 112.99209946851258 l -10.371169542387891 8.166928273180433 a34.200752823086574,34.200752823086574 0 0,0 -0.3602368271655548,-0.4656546595244643 l 10.510213186771514 -7.987195619542716" fill="red" stroke="none" /><line stroke="#e1ed5e" stroke-width="0.3" x1="26.63291911575756" x2="22.317208475507996" y1="142.92168965132927" y2="145.44649492493687" /><path d="M 25.769776987707644 143.4266507060508 a86.0,86.0 0 0,1 -11.730757126820373,-40.83630448921669" fill="none" id="id57" stroke="none" /><text fill="#e1ed5e" style="font-size:6.75px; font-family:Arial;" text-anchor="middle"><textPath startOffset="21.46611528233685" xlink:href="#id57">September</textPath></text><path d="M 81.02952815118164 109.00673069616217 l -9.782765282138456 4.644625239802573 a31.829360100376412,31.829360100376412 0 0,0 -0.23072554938204437,-0.49696230706044775 l 9.861265448360328 -4.475542865463298" fill="red" stroke="none" /><path d="M 80.0844068197444 106.66101706037122 l -7.721352939396462 2.5825022229042762 a29.14178168130489,29.14178168130489 0 0,0 -0.15501727776164148,-0.47709412374472954 l 7.764662468174353 -2.4492091991817433" fill="red" stroke="none" /><path d="M 79.4281124754447 104.21870165774334 l -10.453719507459088 2.14375680224097 a31.671267252195733,31.671267252195733 0 0,0 -0.10492248502289701,-0.5349974906704119 l 10.489071925457651 -1.963495584502603" fill="red" stroke="none" /><path d="M 79.1416061653843 102.43462659150553 l -17.979569089562087 2.0986053555386457 a39.10163111668758,39.10163111668758 0 0,0 -0.07227787273831744,-0.6692033354115224 l 18.013029263801457 -1.7888056982423413" fill="red" stroke="none" /><path d="M 79.10278846688536 102.07522291339032 l -62.69163459934394 6.225668740170943 a84.0,84.0 0 0,0 -0.13050161489169865,-1.4400744458057353 l 62.78951081051271 -5.145612905816642" fill="red" stroke="none" /><path d="M 79.0235259727143 100.99374915477108 l -15.633658183447567 0.740636132915961 a36.65119196988708,36.65119196988708 0 0,0 -0.02443040552569586,-0.6304402125514812 l 15.644090721824464 -0.471418673350483" fill="red" stroke="none" /><path d="M 79.0095281055655 100.63252640178507 l -28.78618040227969 0.8674421043300974 a49.799247176913426,49.799247176913426 0 0,0 -0.018444543946469147,-0.857045480748628 l 28.796847008911165 -0.37180680779134045" fill="red" stroke="none" /><line stroke="#e1ed5e" stroke-width="0.3" x1="15.007084014347285" x2="10.007500721073583" y1="101.09737516637583" y2="101.16192664675087" /><path d="M 14.007167355692545 101.11028546245083 a86.0,86.0 0 0,1 10.666146001902534,-42.60595125391555" fill="none" id="id58" stroke="none" /><text fill="#e1ed5e" style="font-size:6.75px; font-family:Arial;" text-anchor="middle"><textPath startOffset="22.20632615414155" xlink:href="#id58">October</textPath></text><path d="M 79.00175016825051 100.2711162175752 l -13.25234587875784 0.17110596918485296 a34.2534504391468,34.2534504391468 0 0,0 -0.0025375326520026133,-0.5896332225034153 l 13.253327708699345 0.05703673152223776" fill="red" stroke="none" /><path d="M 79.00019446554 99.90962569577889 l -13.49046478499814 -0.05805726946199946 a34.49058971141782,34.49058971141782 0 0,0 0.007665111270903819,-0.5936713151804796 l 13.48746666660952 0.290264842702951" fill="red" stroke="none" /><path d="M 79.00486145842228 99.54816195383935 l -9.19360520829438 -0.1978563087955662 a30.19573400250941,30.19573400250941 0 0,0 0.015656208474066197,-0.5195533388343242 l 9.188837305364668 0.35607979505488485" fill="red" stroke="none" /><path d="M 79.16333360222342 97.38593545837743 l -6.614399747349403 -0.8298096976543392 a27.66624843161857,27.66624843161857 0 0,0 0.06334780550724523,-0.4720147312824437 l 6.599135942784325 0.9435427710014422" fill="red" stroke="none" /><path d="M 79.71946130924805 94.55025226153421 l -9.186040736965438 -2.468455374637577 a30.511919698870763,30.511919698870763 0 0,0 0.14066464201274057,-0.5060455591478852 l 9.142189324386337 2.6262122372044048" fill="red" stroke="none" /><path d="M 79.81627453868168 94.20196356495316 l -8.382450599368086 -2.4079674529491926 a29.72145545796738,29.72145545796738 0 0,0 0.14548525477791038,-0.49050395451681783 l 8.33975944747847 2.5519007942125493" fill="red" stroke="none" /><path d="M 80.38941819471856 92.48833698450439 l -10.408125600544599 -3.986742102327033 a32.145545796737764,32.145545796737764 0 0,0 0.202373737947725,-0.5150190891181539 l 10.337958312715182 4.1653101963409505" fill="red" stroke="none" /><path d="M 80.803312248108 91.48605970444005 l -4.046478723108981 -1.7946574274204152 a25.426599749058973,25.426599749058973 0 0,0 0.1808892900004588,-0.39856557273199694 l 4.014987116145171 1.864045008994483" fill="red" stroke="none" /><path d="M 81.26839172434947 90.50648371742162 l -7.755872937220419 -3.93081602666357 a29.695106649937266,29.695106649937266 0 0,0 0.23500221935828294,-0.4539494880961128 l 7.687061284702022 4.063738237020019" fill="red" stroke="none" /><path d="M 81.43458229118936 90.18545643968196 l -4.379295519769635 -2.31509935927201 a25.95357590966123,25.95357590966123 0 0,0 0.2121913704765436,-0.39315838320892643 l 4.338796050074619 2.390138725813409" fill="red" stroke="none" /><line stroke="#e1ed5e" stroke-width="0.3" x1="26.266209847984243" x2="21.928928074336255" y1="57.711370442889674" y2="55.22380399835377" /><path d="M 25.398753493254645 57.213857153982495 a86.0,86.0 0 0,1 29.58750427330803,-30.492523968695096" fill="none" id="id59" stroke="none" /><text fill="#e1ed5e" style="font-size:6.75px; font-family:Arial;" text-anchor="middle"><textPath startOffset="21.46611528233685" xlink:href="#id59">November</textPath></text><path d="M 81.78341655067845 89.55222093294921 l -5.714110241317923 -3.27722053546135 a27.58720200752823,27.58720200752823 0 0,0 0.23979889690033845,-0.4098940467571835 l 5.656851669947259 3.3750939945724254" fill="red" stroke="none" /><path d="M 81.96595687620814 89.24020034530311 l -6.245164243621774 -3.7261037700079576 a28.272271016311166,28.272271016311166 0 0,0 0.25294824145406425,-0.4157804006885936 l 6.1801002038814925 3.8330519439036257" fill="red" stroke="none" /><path d="M 82.15384107792192 88.93136811851018 l -7.568383583014292 -4.694099844345745 a29.905897114178167,29.905897114178167 0 0,0 0.27509495390317734,-0.435134152878752 l 7.486461032865152 4.823681644938712" fill="red" stroke="none" /><path d="M 82.54541684631803 88.32363383020206 l -3.7230603966448363 -2.4905674389782306 a25.479297365119198,25.479297365119198 0 0,0 0.24699817026139032,-0.36243933688520447 l 3.6796377607147055 2.5542847991338506" fill="red" stroke="none" /><path d="M 83.17141714833178 87.43820079747576 l -10.641914375458946 -7.943722456803278 a34.27979924717691,34.27979924717691 0 0,0 0.3570388980783367,-0.46982133824188754 l 10.5035995371565 8.125728570926192" fill="red" stroke="none" /><path d="M 83.39014120810768 87.1503855733568 l -10.732844765149997 -8.303075821482123 a34.569636135508155,34.569636135508155 0 0,0 0.3681599074789335,-0.46752569527428034 l 10.588330777077092 8.48659391070945" fill="red" stroke="none" /><path d="M 83.6137871275137 86.86637796730984 l -4.584850025802313 -3.674777557452829 a26.87578419071518,26.87578419071518 0 0,0 0.29243605781942233,-0.3584920288579123 l 4.520915475906498 3.7531537559188237" fill="red" stroke="none" /><path d="M 83.84228863543731 86.58626213691792 l -6.122495397864408 -5.082746342096347 a28.957340025094105,28.957340025094105 0 0,0 0.32168762330947365,-0.3807766804988728 l 6.034097161067811 5.187381972224336" fill="red" stroke="none" /><path d="M 84.07557802195018 86.31012108654704 l -10.669562529835131 -9.172390639628459 a35.0702634880803,35.0702634880803 0 0,0 0.39747657412533277,-0.4543844349985981 l 10.510094092131956 9.35469063083" fill="red" stroke="none" /><path d="M 84.31358615837235 86.03803664274999 l -6.534365615332977 -5.816024886583446 a29.74780426599749,29.74780426599749 0 0,0 0.34373780394540177,-0.37956386847261137 l 6.43328417077153 5.927641542325613" fill="red" stroke="none" /><path d="M 84.5562425177563 85.77008943001954 l -5.871340673927029 -5.40986562447187 a28.983688833124216,28.983688833124216 0 0,0 0.3412245242565853,-0.3639945312849998 l 5.777348827699988 5.51012957263492" fill="red" stroke="none" /><path d="M 85.05521093208273 85.24692304244772 l -2.9064520771984665 -2.8691680406782996 a25.084065244667503,25.084065244667503 0 0,0 0.3059828334262457,-0.3046688458984892 l 2.8566334436049075 2.918772737226898" fill="red" stroke="none" /><path d="M 85.31137513191541 84.99185889309783 l -9.233376485458443 -9.434226718391457 a34.200752823086574,34.200752823086574 0 0,0 0.42427948530874404,-0.40815652871081176 l 9.069613756537272 9.591766333864584" fill="red" stroke="none" /><path d="M 85.57189188830299 84.74124197986013 l -9.01530469212687 -9.534330607314498 a34.12170639899624,34.12170639899624 0 0,0 0.43024565932956255,-0.399866450480968 l 8.849851149002452 9.688101643870112" fill="red" stroke="none" /><path d="M 85.83668400450813 84.49514656593479 l -5.970983907760689 -6.5365505067075445 a29.85319949811794,29.85319949811794 0 0,0 0.38238965000472325,-0.3433132033430453 l 5.857583270159994 6.638362718819868" fill="red" stroke="none" /><path d="M 86.10567301691215 84.25364557470407 l -5.752983568907139 -6.519820527412373 a29.695106649937266,29.695106649937266 0 0,0 0.3861865607592049,-0.33489717994481805 l 5.63990320950116 6.617882700776871" fill="red" stroke="none" /><path d="M 86.37877921826538 84.01681056812374 l -10.015100850811148 -11.751755341379532 a36.44040150564617,36.44040150564617 0 0,0 0.48091345845112965,-0.4027511911221549 l 9.811329855400908 11.922407689895499" fill="red" stroke="none" /><path d="M 86.65592168130627 83.78471172551755 l -1.7747456735025546 -2.1566129951005526 a23.79297365119197,23.79297365119197 0 0,0 0.3184820967330691,-0.2575237066129068 l 1.737360178204985 2.1868427989775934" fill="red" stroke="none" /><path d="M 86.93701828274178 83.55741782278169 l -12.882689623293563 -16.215645660343284 a41.71016311166876,41.71016311166876 0 0,0 0.5660018383721822,-0.4417734126218821 l 12.601655229761956 16.434997462188388" fill="red" stroke="none" /><path d="M 87.22198572758235 83.33499621200491 l -4.825824712669654 -6.293809460710819 a28.93099121706399,28.93099121706399 0 0,0 0.3978064280718793,-0.2996195542315834 l 4.716772130839384 6.3759456044482565" fill="red" stroke="none" /><path d="M 87.51073957382395 83.11751280151077 l -18.710385130306395 -25.291956982429298 a52.46047678795483,52.46047678795483 0 0,0 0.7305862925214813,-0.5308020118946227 l 18.272253521431132 25.610278229140587" fill="red" stroke="none" /><path d="M 87.80319425747018 82.90503203632743 l -7.6670008494447215 -10.7460212670012 a34.200752823086574,34.200752823086574 0 0,0 0.4821799006529598,-0.3377978344948589 l 7.480889809208101 10.876403944260002" fill="red" stroke="none" /><path d="M 88.09926311788651 82.69761687909137 l -8.89942180895814 -12.938795909738445 a36.7038895859473,36.7038895859473 0 0,0 0.523633953189072,-0.35355998264486704 l 8.675383161362529 13.090067804681977" fill="red" stroke="none" /><path d="M 88.39885842347998 82.49532879139004 l -7.569126248168649 -11.42086452757488 a34.70138017565872,34.70138017565872 0 0,0 0.5007458306676208,-0.3256990174176818 l 7.371413391716741 11.549462469152097" fill="red" stroke="none" /><line stroke="#e1ed5e" stroke-width="0.3" x1="56.762969772571076" x2="54.21961505331055" y1="26.818313649435495" y2="22.513508569990535" /><path d="M 56.25429882871897 25.957352633546506 a86.0,86.0 0 0,1 42.265352541879196,-11.944610805530505" fill="none" id="id60" stroke="none" /><text fill="#e1ed5e" style="font-size:6.75px; font-family:Arial;" text-anchor="middle"><textPath startOffset="22.20632615414155" xlink:href="#id60">December</textPath></text><path d="M 92.23578459929587 80.48803036053334 l -3.2732451375615934 -8.225874277115178 a29.85319949811794,29.85319949811794 0 0,0 0.47909670521375997,-0.18588207840904036 l 3.131165267348157 8.280999059414771" fill="red" stroke="none" /><path d="M 92.57280143429618 80.3572730644239 l -0.9412133690540596 -2.489228883931227 a23.661229611041406,23.661229611041406 0 0,0 0.38220510847707984,-0.14076936701370454 l 0.8982259348044103 2.505061518751254" fill="red" stroke="none" /><path d="M 93.94186890950719 79.89281104454417 l -2.3715644921377104 -7.871321146928751 a29.22082810539523,29.22082810539523 0 0,0 0.48285300946640625,-0.1409580341645709 l 2.235721264947883 7.91097751001202" fill="red" stroke="none" /><path d="M 95.33964822691252 79.52364482259891 l -2.9295310392933867 -12.871585876885753 a34.200752823086574,34.200752823086574 0 0,0 0.5751545094714301,-0.1257064987096149 l 2.7075338056684357 12.920105873691236" fill="red" stroke="none" /><path d="M 96.04723909329186 79.375362276772 l -2.5492084141129037 -13.301209271943783 a34.54328732747804,34.54328732747804 0 0,0 0.5849410241331329,-0.10689423331139879 l 2.3198722688768774 13.34311898660592" fill="red" stroke="none" /><path d="M 96.40284397218896 79.31037775812273 l -1.1283425432280532 -6.4898438650807 a27.58720200752823,27.58720200752823 0 0,0 0.4685499638300962,-0.07731475872297432 l 1.0164633732590713 6.508304886743301" fill="red" stroke="none" /><path d="M 96.75951476605007 79.25152402106235 l -1.5165633529025349 -9.710390891021008 a30.82810539523212,30.82810539523212 0 0,0 0.5250041316166637,-0.077371961771225 l 1.3491902408572223 9.7350573369532" fill="red" stroke="none" /><path d="M 97.11714578562143 79.19881850522333 l -0.907900135268533 -6.550936706636069 a27.613550815558344,27.613550815558344 0 0,0 0.4713833933798809,-0.061199093254686 l 0.7950020133807943 6.5655941230548915" fill="red" stroke="none" /><path d="M 97.47563105711357 79.15227682838746 l -1.0610584640739686 -8.762844745909915 a29.82685069008783,29.82685069008783 0 0,0 0.5102284713011284,-0.057330113765724604 l 0.9100632892631223 8.779810813146238" fill="red" stroke="none" /><path d="M 98.19473922651362 79.07773832637324 l -1.1348000596194188 -13.151885945404025 a34.200752823086574,34.200752823086574 0 0,0 0.5869660404111546,-0.04555986158014564 l 0.9082438298459299 13.169471069172632" fill="red" stroke="none" /><path d="M 99.27714615592234 79.0124445844662 l -1.004921027902195 -29.177178670528797 a50.19447929736512,50.19447929736512 0 0,0 0.8637594227776104,-0.022308357551825447 l 0.5025349699297056 29.19015382022298" fill="red" stroke="none" /></svg>