<?xml version="1.0" encoding="utf-8" ?>
<svg baseProfile="full" height="200mm" version="1.1" viewBox="0,0,200,200" width="200mm" xmlns="http://www.w3.org/2000/svg" xmlns:ev="http://www.w3.org/2001/xml-events" xmlns:xlink="http://www.w3.org/1999/xlink"><defs /><rect fill="#1a1a1a" height="200" width="200" x="0" y="0" /><text alignment-baseline="middle" fill="#e1ed5e" style="dominant-baseline: central; font-size:9.0px; font-family:Arial;" text-anchor="middle" x="100.0" y="100.0">2025</text><line stroke="#e1ed5e" stroke-width="0.3" x1="100.0" x2="100.0" y1="15.0" y2="10.0" /><path d="M 100.0 14.0 a86.0,86.0 0 0,1 42.46469731375804,11.215312516191453" fill="none" id="id49" stroke="none" /><text fill="#e1ed5e" style="font-size:6.75px; font-family:Arial;" text-anchor="middle"><textPath startOffset="22.20632615414155" xlink:href="#id49">January</textPath></text><path d="M 100.36148047927253 79.00311137660856 l 0.431803483637653 -25.081657718774807 a46.0853743876837,46.0853743876837 0 0,0 0.7930488957515008,0.02048211325511558 l -0.8634790145840215 25.07050881337733" fill="red" stroke="none" /><path d="M 100.72285384407766 79.0124445844662 l 1.0804869215884416 -31.371181502855286 a52.38978306508048,52.38978306508048 0 0,0 0.9010024020518077,0.03879905874124959 l -1.6203301560295809 31.34793471758984" fill="red" stroke="none" /><path d="M 101.44485096284872 79.0497635885617 l 1.8654653789054463 -27.049115590695354 a48.11336599020294,48.11336599020294 0 0,0 0.825739482174734,0.06409327613363691 l -2.3307950504425214 27.01299705237325" fill="red" stroke="none" /><path d="M 102.16513564639614 79.11191278185805 l 2.3636190401525297 -22.802950357103867 a43.92512246326102,43.92512246326102 0 0,0 0.7513984067245844,0.0844283660436488 l -2.7557841503868397 22.75888603758962" fill="red" stroke="none" /><path d="M 102.52436894288641 79.15227682838746 l 1.2666007921970284 -10.46033415958446 a31.53673897830651,31.53673897830651 0 0,0 0.5383550683150191,0.06989393876120549 l -1.4464705890198937 10.43698189765912" fill="red" stroke="none" /><path d="M 103.59715602781102 79.31037775812273 l 1.1554196058539274 -6.645581951729648 a27.745276417074876,27.745276417074876 0 0,0 0.46982646001240247,0.08585778251211032 l -1.2696411869692308 6.624708687866799" fill="red" stroke="none" /><path d="M 105.01212808612495 79.60689891045804 l 6.786891425228679 -27.614171174432254 a49.43596920923723,49.43596920923723 0 0,0 0.8246181234874568,0.21021352056538037 l -7.26121843740116 27.493254657698007" fill="red" stroke="none" /><path d="M 105.36241919743992 79.69619591428918 l 7.655238042531455 -28.98513669338704 a50.97900629811056,50.97900629811056 0 0,0 0.8464993857823282,0.231380258833861 l -8.153035317537494 28.849069893726885" fill="red" stroke="none" /><path d="M 105.71112130821622 79.79150937346287 l 6.822172199527699 -24.13988348460383 a46.0853743876837,46.0853743876837 0 0,0 0.7615274158287842,0.222310735137121 l -7.236689833079911 24.018874420548006" fill="red" stroke="none" /><path d="M 106.40334571778207 80.00007090966166 l 16.21224968994789 -50.636629425363296 a74.16864940517846,74.16864940517846 0 0,0 1.212541494851308,0.3997558668045031 l -17.081474007041617 50.35005983429956" fill="red" stroke="none" /><path d="M 106.74666289553966 80.11325718540242 l 7.90336857042224 -23.296296341243075 a45.60041987403779,45.60041987403779 0 0,0 0.7411544726323737,0.2585742425518826 l -8.303205047117887 23.156801245518984" fill="red" stroke="none" /><path d="M 107.08798089147638 80.2323363322302 l 9.344825751953463 -26.06177631216115 a48.686494051784464,48.686494051784464 0 0,0 0.7864437751682675,0.28965387946651244 l -9.792051852894307 25.89705916488831" fill="red" stroke="none" /><path d="M 107.4271985657038 80.35727306442388 l 10.930299918596988 -28.907386106029787 a51.90482855143457,51.90482855143457 0 0,0 0.8329905256971141,0.3231873826862062 l -11.42627360929377 28.714956019453034" fill="red" stroke="none" /><path d="M 107.76421540070413 80.48803036053334 l 10.757975152830083 -27.035479276517837 a50.097270818754374,50.097270818754374 0 0,0 0.7984935539350505,0.32572556962923593 l -11.221752576353522 26.84629282070502" fill="red" stroke="none" /><path d="M 108.09893153111575 80.62456947434976 l 13.092044672412442 -31.320674957489192 a54.94681595521344,54.94681595521344 0 0,0 0.8695104476011276,0.3722789957642583 l -13.629238877803886 31.090676433762145" fill="red" stroke="none" /><path d="M 108.43124777332544 80.76684994638697 l 15.57627300320444 -35.532201638585306 a59.7963610916725,59.7963610916725 0 0,0 0.9391385304119464,0.4213640833647546 l -16.185593652083167 35.258817224704025" fill="red" stroke="none" /><path d="M 109.73455568895987 81.39251694778311 l 20.926910480395183 -40.001531096158374 a66.1448565430371,66.1448565430371 0 0,0 1.0043150074010299,0.5364702953223266 l -21.612370534324523 39.63538207433429" fill="red" stroke="none" /><line stroke="#e1ed5e" stroke-width="0.3" x1="143.23703022742887" x2="145.7803849466894" y1="26.81831364943548" y2="22.513508569990506" /><path d="M 143.74570117128098 25.957352633546492 a86.0,86.0 0 0,1 28.547481713284135,27.462654790039103" fill="none" id="id50" stroke="none" /><text fill="#e1ed5e" style="font-size:6.75px; font-family:Arial;" text-anchor="middle"><textPath startOffset="19.985693538727396" xlink:href="#id50">February</textPath></text><path d="M 112.77801427241765 83.33499621200491 l 4.372602504697151 -5.70271998063653 a28.186144156752974,28.186144156752974 0 0,0 0.38248254667894516,0.2985336945205432 l -4.470117606535527 5.626607896892763" fill="red" stroke="none" /><path d="M 113.06298171725822 83.55741782278167 l 21.966651551134706 -27.649772548534376 a56.313505948215536,56.313505948215536 0 0,0 0.7537873874743667,0.6095103116052171 l -22.439342337173564 27.26755613966503" fill="red" stroke="none" /><path d="M 113.6212207817346 84.01681056812373 l 14.726932195787246 -17.28063518002018 a43.70468859342198,43.70468859342198 0 0,0 0.568381975384551,0.4928952481244911 l -15.022207969818561 17.024574938476018" fill="red" stroke="none" /><path d="M 113.89432698308785 84.25364557470407 l 14.613837267726403 -16.561770959565987 a43.08747375787264,43.08747375787264 0 0,0 0.5519074768149456,0.49550798200729174 l -14.896755732137338 16.3077639687894" fill="red" stroke="none" /><path d="M 114.16331599549186 84.49514656593476 l 17.840426026511786 -19.530256250047188 a47.4520643806858,47.4520643806858 0 0,0 0.5983301212221411,0.556082639303699 l -18.173964031528772 19.22026902466885" fill="red" stroke="none" /><path d="M 114.68862486808459 84.99185889309783 l 23.0351352899773 -23.536210091370037 a53.93282015395381,53.93282015395381 0 0,0 0.657888462831299,0.6550632806956364 l -23.436859552975925 23.136210960024282" fill="red" stroke="none" /><path d="M 114.94478906791727 85.2469230424477 l 38.684936852502425 -38.188685560522 a75.3589923023093,75.3589923023093 0 0,0 0.9033595911339795,0.9309914662134455 l -39.336560707339515 37.51712989875845" fill="red" stroke="none" /><path d="M 115.19652480421416 85.50635884689758 l 16.302500017396994 -15.548461782859341 a43.528341497550734,43.528341497550734 0 0,0 0.5124584970773189,0.5466549945466772 l -16.567725836444776 15.26553737143461" fill="red" stroke="none" /><path d="M 115.4437574822437 85.77008943001954 l 18.513055680254336 -17.05796837395139 a46.17354793561931,46.17354793561931 0 0,0 0.5335383353284926,0.589146355772622 l -18.803937656198865 16.73676923090922" fill="red" stroke="none" /><path d="M 115.9244219780498 86.31012108654704 l 11.466921074466939 -9.85786242263338 a36.12176347095871,36.12176347095871 0 0,0 0.40127733523349607,0.4749857955295004 l -11.634909023187552 9.659017677474774" fill="red" stroke="none" /><path d="M 116.15771136456269 86.58626213691792 l 12.68646056755727 -10.531990120628468 a37.48845346396081,37.48845346396081 0 0,0 0.40791276886849615,0.500052822484069 l -12.865871828502176 10.312053128536299" fill="red" stroke="none" /><path d="M 116.60985879189232 87.15038557335679 l 45.08722341060204 -34.88009402445697 a78.00419874037789,78.00419874037789 0 0,0 0.8124473822885973,1.0690855210801076 l -45.68094673311475 34.098823727495834" fill="red" stroke="none" /><path d="M 116.82858285166822 87.43820079747576 l 16.251535574039277 -12.131058712024812 a41.27991602519244,41.27991602519244 0 0,0 0.4201457812800724,0.573078373496693 l -16.457943967832975 11.849517894856625" fill="red" stroke="none" /><path d="M 117.04232023915458 87.72973835380427 l 28.729845665586694 -20.68513667297798 a56.401679496151154,56.401679496151154 0 0,0 0.5604913682244209,0.7927752916211181 l -29.081649653614996 20.187534881025066" fill="red" stroke="none" /><path d="M 117.45458315368197 88.32363383020206 l 15.939979716973381 -10.663161547646121 a40.1777466759972,40.1777466759972 0 0,0 0.37959048210737106,0.5781423464555908 l -16.12116683443868 10.387201137212855" fill="red" stroke="none" /><path d="M 117.65298651832404 88.62581576622439 l 18.75243774304821 -12.082583391792426 a43.307907627711685,43.307907627711685 0 0,0 0.39837583895253226,0.6301349070582466 l -18.957641178246696 11.758000837019972" fill="red" stroke="none" /><line stroke="#e1ed5e" stroke-width="0.3" x1="172.23445277983987" x2="176.4835382374775" y1="55.19839476539836" y2="52.563006222186495" /><path d="M 173.08426987136738 54.67131705675599 a86.0,86.0 0 0,1 12.851231095245387,41.99856678651699" fill="none" id="id51" stroke="none" /><text fill="#e1ed5e" style="font-size:6.75px; font-family:Arial;" text-anchor="middle"><textPath startOffset="22.20632615414155" xlink:href="#id51">March</textPath></text><path d="M 117.84615892207809 88.93136811851018 l 5.6198541042233305 -3.4855733706580954 a27.61301609517145,27.61301609517145 0 0,0 0.24704997552147323,0.40608520234002377 l -5.679019878031028 3.3883203951109904" fill="red" stroke="none" /><path d="M 118.03404312379186 89.2402003453031 l 45.62145968684925 -27.219507174058283 a74.12456263121064,74.12456263121064 0 0,0 0.644320085354562,1.101351885295278 l -46.083239446674135 26.430175876409113" fill="red" stroke="none" /><path d="M 118.21658344932153 89.55222093294921 l 21.454520605464054 -12.304837067772207 a45.732680195941214,45.732680195941214 0 0,0 0.3857711828537078,0.6862438887914075 l -21.663149429610197 11.933709669046005" fill="red" stroke="none" /><path d="M 119.196687751892 91.48605970444005 l 24.30147525764356 -10.777969205505908 a47.58432470258923,47.58432470258923 0 0,0 0.3256337869344995,0.7516076765770331 l -24.48339975442074 10.358062384342272" fill="red" stroke="none" /><path d="M 119.34039704204932 91.81776055985345 l 29.23391015453222 -12.36783568279674 a52.74247725682295,52.74247725682295 0 0,0 0.3465389543495014,0.8391715651806124 l -29.44247079576792 11.862789547162825" fill="red" stroke="none" /><path d="M 119.47837535516314 92.15188598940014 l 24.535392329806605 -9.885657955969021 a47.4520643806858,47.4520643806858 0 0,0 0.29873661821692743,0.7602521086014782 l -24.701922497905233 9.461856842471759" fill="red" stroke="none" /><path d="M 119.61058180528143 92.48833698450437 l 20.626105285750864 -7.900650463463918 a43.08747375787264,43.08747375787264 0 0,0 0.2593361417167493,0.6948919259832014 l -20.75904601596924 7.544435400451383" fill="red" stroke="none" /><path d="M 119.85752413597 93.16781622104841 l 14.007266850285342 -4.819343071506784 a35.813156053184045,35.813156053184045 0 0,0 0.1955444472205713,0.5846530078224778 l -14.088148591277683 4.577516960761993" fill="red" stroke="none" /><path d="M 120.28053869075195 94.5502522615342 l 22.13970633839961 -5.9493397284861045 a43.92512246326102,43.92512246326102 0 0,0 0.18993153536715554,0.7318836837190246 l -22.23883420563707 5.567359619218229" fill="red" stroke="none" /><path d="M 120.37134235888165 94.90015583598534 l 32.50291153131572 -8.136910212703567 a54.50594821553534,54.50594821553534 0 0,0 0.2200150761599865,0.912104531683179 l -32.638159407736524 7.576220449360982" fill="red" stroke="none" /><path d="M 120.45610955862082 95.25157060432595 l 42.98789153571614 -9.97867982869782 a65.13086074177747,65.13086074177747 0 0,0 0.2441030628460248,1.0942661669381106 l -43.153288985564195 9.237235492209745" fill="red" stroke="none" /><path d="M 120.67395015179393 96.31383870115 l 62.02185045538181 -11.058483896549978 a84.0,84.0 0 0,0 0.2415525539191079,1.4256568467366484 l -62.20301487082114 9.98924126149749" fill="red" stroke="none" /><path d="M 120.78858239683441 97.02765380044208 l 31.204695060328778 -4.461639326838155 a52.52204338698391,52.52204338698391 0 0,0 0.12026047541448108,0.8960802277542965 l -31.276871534801096 3.9238407570191938" fill="red" stroke="none" /><path d="M 120.83666639777658 97.38593545837742 l 29.92081137035517 -3.7537161927288505 a51.155353393981805,51.155353393981805 0 0,0 0.10209060965325892,0.874649997824484 l -29.98099233301202 3.238122456579514" fill="red" stroke="none" /><path d="M 120.98425023603335 99.18683210126433 l 19.824169222284834 -0.768213200345103 a40.839048285514345,40.839048285514345 0 0,0 0.02117466837492118,0.7026841569670592 l -19.8344555851154 0.4268588959530447" fill="red" stroke="none" /><line stroke="#e1ed5e" stroke-width="0.3" x1="184.98032266829074" x2="189.97916517819016" y1="98.17113171792111" y2="98.06355123074" /><path d="M 185.9800911702706 98.14961562048488 a86.0,86.0 0 0,1 -9.607161424134198,41.387399972396054" fill="none" id="id52" stroke="none" /><text fill="#e1ed5e" style="font-size:6.75px; font-family:Arial;" text-anchor="middle"><textPath startOffset="21.466115282336823" xlink:href="#id52">April</textPath></text><path d="M 120.99980553446 99.90962569577887 l 22.880823804866488 -0.09846941334660568 a43.88103568929321,43.88103568929321 0 0,0 -0.00325075457910707,0.7553608803945399 l -22.87912875299788 -0.2954009452516189" fill="red" stroke="none" /><path d="M 120.95626037817324 101.35467743843564 l 29.256640625931144 1.8912396708741104 a50.31770468859342,50.31770468859342 0 0,0 -0.06331271038020139,0.8638516309552545 l -29.219751356886608 -2.394564438326135" fill="red" stroke="none" /><path d="M 120.8583938346157 102.4346265915055 l 22.245061024460696 2.596480703606995 a43.39608117564731,43.39608117564731 0 0,0 -0.09298848369073304,0.7412097072003659 l -22.197071031523116 -2.979008165094756" fill="red" stroke="none" /><path d="M 120.81339534386255 102.79330883721812 l 22.022290944660725 2.955551407889285 a43.21973407977607,43.21973407977607 0 0,0 -0.1053037480477085,0.7364941685833563 l -21.968153145596414 -3.3341910484530506" fill="red" stroke="none" /><path d="M 120.76222939487914 103.15116336523771 l 26.93714016662417 4.0883533094126685 a48.24562631210637,48.24562631210637 0 0,0 -0.13168355523575234,0.8199936241547993 l -26.86277485702713 -4.551426163260673" fill="red" stroke="none" /><path d="M 120.49622156327973 104.57218783832717 l 11.919076360451685 2.6588440123512074 a33.21203638908327,33.21203638908327 0 0,0 -0.1292730027970263,0.556904712660772 l -11.871542791724105 -2.863617382360544" fill="red" stroke="none" /><path d="M 120.41448212921028 104.9243191809786 l 4.371470630887576 1.0544728267176011 a25.496850944716584,25.496850944716584 0 0,0 -0.10658738257387641,0.42576360996887197 l -4.352671934018639 -1.1295642760838691" fill="red" stroke="none" /><path d="M 120.32669344350535 105.2749913415812 l 18.6908853637271 4.850481891418967 a40.31000699790063,40.31000699790063 0 0,0 -0.1800742523404514,0.6701232822249623 l -18.60462303504487 -5.171496106819478" fill="red" stroke="none" /><path d="M 120.13307415673323 105.97154293290107 l 21.978723362144034 6.518969191970383 a43.92512246326102,43.92512246326102 0 0,0 -0.2212429510001185,0.7230347648998608 l -21.863253638637783 -6.896330929422301" fill="red" stroke="none" /><path d="M 120.02730092923936 106.31721596034902 l 31.533538901881425 9.946631148205244 a54.06508047585724,54.06508047585724 0 0,0 -0.2875946875515937,0.8851254352566069 l -31.357651963313582 -10.487955483439645" fill="red" stroke="none" /><path d="M 119.9155931802556 106.66101706037122 l 10.243499641349102 3.4260654579236167 a31.801259622113363,31.801259622113363 0 0,0 -0.17810093900549234,0.5176446959515423 l -10.183007871400378 -3.601882856964459" fill="red" stroke="none" /><path d="M 119.79798401119884 107.00284435728193 l 23.441699752938018 8.291681352359001 a45.864940517844644,45.864940517844644 0 0,0 -0.2696765440186755,0.7420340276724036 l -23.295498947914115 -8.693963177037537" fill="red" stroke="none" /><path d="M 119.67450827220406 107.3425965602758 l 26.43460873522169 9.865490129971674 a49.21553533939818,49.21553533939818 0 0,0 -0.30304048820248136,0.791143089346257 l -26.260873967425702 -10.319056786151075" fill="red" stroke="none" /><path d="M 119.54520255179757 107.68017299344265 l 26.835330585463147 10.54478615334813 a49.83275017494752,49.83275017494752 0 0,0 -0.32058448919047045,0.7956644112281451 l -26.64984348201528 -11.005149932419089" fill="red" stroke="none" /><path d="M 119.26925614724726 108.34839909993367 l 31.027682571599698 13.442733610180111 a54.81455563331001,54.81455563331001 0 0,0 -0.3825505625978671,0.8625505282591147 l -30.791690924270558 -13.974832474931913" fill="red" stroke="none" /><path d="M 119.12269723197855 108.67885076344098 l 20.87572266052241 9.474462694869093 a43.92512246326102,43.92512246326102 0 0,0 -0.3184056474917733,0.6858174380011023 l -20.709542396190805 -9.832400200149026" fill="red" stroke="none" /><path d="M 118.97047184881838 109.00673069616215 l 4.18173452230776 1.9853885019531692 a25.629111266620015,25.629111266620015 0 0,0 -0.19264151187119544,0.39689857298569603 l -4.14693975382185 -2.0570760309041405" fill="red" stroke="none" /><path d="M 118.64920377521936 109.65438752849418 l 3.915158245322469 2.0268133369826837 a25.408677396780966,25.408677396780966 0 0,0 -0.2044158245480475,0.3866777039300726 l -3.8796899125495283 -2.093906055998891" fill="red" stroke="none" /><line stroke="#e1ed5e" stroke-width="0.3" x1="174.80103733775053" x2="179.2010983576182" y1="140.37084112569926" y2="142.7455964860345" /><path d="M 175.68104954172406 140.8457921977663 a86.0,86.0 0 0,1 -30.038265399797805,32.042727171017184" fill="none" id="id53" stroke="none" /><text fill="#e1ed5e" style="font-size:6.75px; font-family:Arial;" text-anchor="middle"><textPath startOffset="22.206326154141568" xlink:href="#id53">May</textPath></text><path d="M 118.48025628344425 109.97397251340804 l 9.854412377875803 5.318521382237184 a32.198040587823655,32.198040587823655 0 0,0 -0.2674332308549633,0.48546899523471604 l -9.76140273756933 -5.487360895869704" fill="red" stroke="none" /><path d="M 118.30583269289576 110.29060199501025 l 7.032821657382627 3.9534922989927397 a29.06787963610917,29.06787963610917 0 0,0 -0.24894286326843476,0.43405286556490746 l -6.9637267979618125 -4.073965010415962" fill="red" stroke="none" /><path d="M 118.12598468904814 110.60418214915192 l 6.316823215637491 3.6955092444210367 a28.318404478656404,28.318404478656404 0 0,0 -0.24976714662667332,0.41862410432573643 l -6.252275193312591 -3.8036954426328773" fill="red" stroke="none" /><path d="M 117.94076556474637 110.91462005526583 l 34.57583510518649 21.034894074319162 a61.471658502449266,61.471658502449266 0 0,0 -0.5577392668081954,0.8992532861434995 l -34.208631198710336 -21.626943691827936" fill="red" stroke="none" /><path d="M 117.75023020441432 111.22182372390056 l 30.221350655941265 19.10615613733383 a56.75437368789363,56.75437368789363 0 0,0 -0.5291538261986226,0.8212584892255764 l -29.88799196636559 -19.62353622648086" fill="red" stroke="none" /><path d="M 117.55443506779139 111.5257021239791 l 24.544269604931543 16.11501248685111 a50.36179146256123,50.36179146256123 0 0,0 -0.482026842377508,0.7205647270935618 l -24.263239657143313 -16.53511412815048" fill="red" stroke="none" /><path d="M 117.14729908036423 112.12312394758627 l 21.67111416314752 15.321456857481317 a47.54023792862141,47.54023792862141 0 0,0 -0.4781647107522217,0.6641289617673831 l -21.404169660019697 -15.692219424699832" fill="red" stroke="none" /><path d="M 115.80600337817218 113.82643327865902 l 5.607868238441773 4.905529511742564 a28.45066480055983,28.45066480055983 0 0,0 -0.3256126431636229,0.36582925639026065 l -5.522596745629811 -5.001332937873691" fill="red" stroke="none" /><path d="M 114.81725581225074 114.88116024355365 l 17.326546159741763 17.401272755058187 a45.55633310006998,45.55633310006998 0 0,0 -0.5604514679041552,0.5485197207417962 l -17.024444739461813 -17.696942578722556" fill="red" stroke="none" /><path d="M 114.55890576462653 115.13401014063108 l 23.137351288640204 24.051320524403906 a54.37368789363191,54.37368789363191 0 0,0 -0.6800961600797842,0.6430733688174182 l -22.719919294169614 -24.446028529967244" fill="red" stroke="none" /><path d="M 114.29624159901734 115.38237550388516 l 21.939578605069997 23.606402715199547 a53.22743177046886,53.22743177046886 0 0,0 -0.6764964533457094,0.6179634705552111 l -21.529982602257423 -23.98055895234134" fill="red" stroke="none" /><path d="M 114.0293411484842 115.62618273729858 l 16.19313876158841 18.036267184674784 a45.23890832750175,45.23890832750175 0 0,0 -0.583921526110819,0.5152428554011099 l -15.880274882571007 -18.31233318184818" fill="red" stroke="none" /><path d="M 113.75828350139079 115.86535959552629 l 21.807216326557132 25.146983543643834 a54.28551434569629,54.28551434569629 0 0,0 -0.7112294818225244,0.6061251942032432 l -21.37112136815756 -25.518633128070025" fill="red" stroke="none" /><line stroke="#e1ed5e" stroke-width="0.3" x1="143.8653032363475" x2="146.44561519142675" y1="172.8068346515853" y2="177.08958963109032" /><path d="M 144.38136562736335 173.6633856474863 a86.0,86.0 0 0,1 -40.68145358897372,12.25698825130547" fill="none" id="id54" stroke="none" /><text fill="#e1ed5e" style="font-size:6.75px; font-family:Arial;" text-anchor="middle"><textPath startOffset="21.466115282336833" xlink:href="#id54">June</textPath></text><path d="M 110.8373102113329 117.98757091392108 l 3.7835787714723508 6.2799154156439645 a28.331630510846747,28.331630510846747 0 0,0 -0.41989112767276565,0.24807907940859364 l -3.674919772771203 -6.344113067346308" fill="red" stroke="none" /><path d="M 110.5260780823613 118.17145234162733 l 11.517547718390562 19.883053101027627 a43.97802659202239,43.97802659202239 0 0,0 -0.6583117565511684,0.37380659625122103 l -11.173587194918193 -20.078362863073476" fill="red" stroke="none" /><path d="M 110.21172684928248 118.3499491758327 l 16.087221471731798 28.90791153578346 a54.082715185444364,54.082715185444364 0 0,0 -0.8173628605745269,0.4456914019549983 l -15.587235799288624 -29.180543589498228" fill="red" stroke="none" /><path d="M 109.57404056367764 118.69057910512821 l 10.172334351176874 19.858576805679608 a43.31231630510847,43.31231630510847 0 0,0 -0.6664859887240028,0.33418991076837923 l -9.828994454770111 -20.03073455735729" fill="red" stroke="none" /><path d="M 105.53697534728816 120.25689768951611 l 3.080402659967869 11.269582689408892 a32.68299510146956,32.68299510146956 0 0,0 -0.5439532926432679,0.14366300850162997 l -2.885958924513104 -11.320937047214107" fill="red" stroke="none" /><path d="M 105.18746579009965 120.34920634021253 l 5.673904149703121 22.25738943999453 a43.96920923722883,43.96920923722883 0 0,0 -0.7350117369127448,0.18064800218643975 l -5.289939128047165 -22.351758700494997" fill="red" stroke="none" /><path d="M 104.83641907484287 120.43548508189849 l 5.086870447507926 21.493725736944324 a43.08747375787264,43.08747375787264 0 0,0 -0.7232126815816153,0.16460085174963562 l -4.716137616533449 -21.578103322271645" fill="red" stroke="none" /><path d="M 103.7750983002368 120.6578951692458 l 2.3855239783861717 13.053939354673869 a34.270118964310704,34.270118964310704 0 0,0 -0.5812065769959268,0.10105021335830201 l -2.1604684299181947 -13.093068146553176" fill="red" stroke="none" /><path d="M 103.06178313531738 120.77559828337769 l 3.3296088119546563 22.59291793727707 a43.8369489153254,43.8369489153254 0 0,0 -0.7474646693419768,0.1035917922572194 l -2.9402155514258492 -22.64688429502689" fill="red" stroke="none" /><line stroke="#e1ed5e" stroke-width="0.3" x1="102.19456741930631" x2="102.32365962044197" y1="184.97166512339345" y2="189.96999836594603" /><path d="M 102.22038585953345 185.97133177190398 a86.0,86.0 0 0,1 -42.740103519485714,-10.115201625700543" fill="none" id="id55" stroke="none" /><text fill="#e1ed5e" style="font-size:6.75px; font-family:Arial;" text-anchor="middle"><textPath startOffset="22.20632615414155" xlink:href="#id55">July</textPath></text><path d="M 100.54218724476979 120.99299961872073 l 0.1377284603578974 5.332721386700927 a26.334499650104966,26.334499650104966 0 0,0 -0.45325474857406506,0.007803191543559054 l -0.04591402189116439 -5.334302055523645" fill="red" stroke="none" /><path d="M 99.45781275523022 120.99299961872073 l -0.45871545061348107 17.76104726314442 a38.766969909027296,38.766969909027296 0 0,0 -0.6669389169225275,-0.02297072480893254 l 0.7643747192106516 -17.750519739909393" fill="red" stroke="none" /><path d="M 98.73552117531835 120.96189622390904 l -1.7679696932917655 29.308515504107937 a50.36179146256123,50.36179146256123 0 0,0 -0.8648732112040635,-0.05964672032378639 l 2.272205665274759 -29.273740439267865" fill="red" stroke="none" /><path d="M 98.37488393609728 120.93702456842531 l -1.7126835495013952 22.065191742511217 a43.13156053184045,43.13156053184045 0 0,0 -0.7397179338198567,-0.06382597590071581 l 2.0922458010627936 -22.032441514331836" fill="red" stroke="none" /><path d="M 95.51606077576429 120.51570834832081 l -1.0825465586853196 4.9530576488248315 a26.069979006298112,26.069979006298112 0 0,0 -0.43757820502243644,-0.09959137483077937 l 1.1676449131006188 -4.933689540416365" fill="red" stroke="none" /><path d="M 90.7491055286396 118.85261126421891 l -8.176262923252745 16.662594840243866 a39.560531840447865,39.560531840447865 0 0,0 -0.6087538702015457,-0.3052418280420985 l 8.461870701137052 -16.519385171292466" fill="red" stroke="none" /><path d="M 90.42595943632237 118.69057910512821 l -8.059881594194673 15.734616279544603 a38.67879636109167,38.67879636109167 0 0,0 -0.5899604930372733,-0.30863944670224314 l 8.329532989758443 -15.593547413897642" fill="red" stroke="none" /><line stroke="#e1ed5e" stroke-width="0.3" x1="58.666819895761336" x2="56.23545636021788" y1="174.27360380694188" y2="178.64263932499728" /><path d="M 58.180547188652646 175.14741091055294 a86.0,86.0 0 0,1 -31.652253787137756,-30.449443065178592" fill="none" id="id56" stroke="none" /><text fill="#e1ed5e" style="font-size:6.75px; font-family:Arial;" text-anchor="middle"><textPath startOffset="22.20632615414155" xlink:href="#id56">August</textPath></text><path d="M 89.1626897886671 117.98757091392108 l -11.398514518987652 18.91904764424309 a43.08747375787264,43.08747375787264 0 0,0 -0.6319922923712182,-0.3882212842961479 l 11.72248601129118 -18.720037893118565" fill="red" stroke="none" /><path d="M 84.43433777217949 114.09645910891817 l -13.103912988151201 11.867068095191431 a38.67879636109167,38.67879636109167 0 0,0 -0.4426717338877352,-0.49734638575370577 l 13.306243571687274 -11.639747539696861" fill="red" stroke="none" /><path d="M 84.19399662182784 113.82643327865904 l -4.77830193097997 4.179859465626804 a27.34849545136459,27.34849545136459 0 0,0 -0.3068989430992168,-0.35699280508075026 l 4.849543383649966 -4.0969895613845235" fill="red" stroke="none" /><path d="M 83.72743513129214 113.27417163493432 l -17.149393066671816 13.989434907075644 a43.13156053184045,43.13156053184045 0 0,0 -0.46434634577955436,-0.5793434628746033 l 17.387657324506232 -13.692163610622782" fill="red" stroke="none" /><path d="M 83.50135304334701 112.99209946851258 l -17.353020556927532 13.664888384306797 a43.08747375787264,43.08747375787264 0 0,0 -0.45384073612080006,-0.5866503297830252 l 17.5856681102664 -13.36416006041052" fill="red" stroke="none" /><line stroke="#e1ed5e" stroke-width="0.3" x1="26.63291911575756" x2="22.317208475507996" y1="142.92168965132927" y2="145.44649492493687" /><path d="M 25.769776987707644 143.4266507060508 a86.0,86.0 0 0,1 -11.730757126820373,-40.83630448921669" fill="none" id="id57" stroke="none" /><text fill="#e1ed5e" style="font-size:6.75px; font-family:Arial;" text-anchor="middle"><textPath startOffset="21.46611528233685" xlink:href="#id57">September</textPath></text><path d="M 81.02952815118164 109.00673069616217 l -16.36850370160465 7.7713778505024145 a39.11966410076977,39.11966410076977 0 0,0 -0.2835717074684264,-0.6107882301635844 l 16.499850025912902 -7.4884695530600025" fill="red" stroke="none" /><path d="M 80.0844068197444 106.66101706037122 l -12.919352608885196 4.321037659177135 a34.62281315605318,34.62281315605318 0 0,0 -0.1841731676736995,-0.566826726138765 l 12.991818027575144 -4.0980120330605665" fill="red" stroke="none" /><path d="M 79.10278846688536 102.07522291339032 l -26.366460737722676 2.6183533329900186 a47.4961511546536,47.4961511546536 0 0,0 -0.07378957650979182,-0.8142618279993241 l 26.407624910509544 -2.1641101164421284" fill="red" stroke="none" /><line stroke="#e1ed5e" stroke-width="0.3" x1="15.007084014347285" x2="10.007500721073583" y1="101.09737516637583" y2="101.16192664675087" /><path d="M 14.007167355692545 101.11028546245083 a86.0,86.0 0 0,1 10.666146001902534,-42.60595125391555" fill="none" id="id58" stroke="none" /><text fill="#e1ed5e" style="font-size:6.75px; font-family:Arial;" text-anchor="middle"><textPath startOffset="22.20632615414155" xlink:href="#id58">October</textPath></text><path d="M 79.00175016825051 100.2711162175752 l -22.173799157529732 0.28629417237297644 a43.175647305808255,43.175647305808255 0 0,0 -0.0031984986448146584,-0.743218441593843 l 22.17544195346405 0.09543374742454194" fill="red" stroke="none" /><path d="M 79.00019446554 99.90962569577889 l -22.572219244877925 -0.09714130950569679 a43.57242827151855,43.57242827151855 0 0,0 0.009683438695572703,-0.7499929984959417 l 22.567202799064635 0.4856705660621104" fill="red" stroke="none" /><path d="M 79.00486145842228 99.54816195383935 l -15.382722220456168 -0.33105278819468076 a36.38628411476557,36.38628411476557 0 0,0 0.01886595138406076,-0.626069079759072 l 15.374744574616463 0.5957920153787472" fill="red" stroke="none" /><path d="M 79.16333360222342 97.38593545837743 l -11.067200696929618 -1.3884359601760146 a32.15395381385584,32.15395381385584 0 0,0 0.07362336883237194,-0.5485796134097447 l 11.041661329039412 1.5787339156504188" fill="red" stroke="none" /><path d="M 79.71946130924805 94.55025226153421 l -15.370065361850504 -4.130214696122078 a36.91532540237929,36.91532540237929 0 0,0 0.17018532703799985,-0.6122471699171563 l 15.296693264246143 4.394173169458177" fill="red" stroke="none" /><line stroke="#e1ed5e" stroke-width="0.3" x1="26.266209847984243" x2="21.928928074336255" y1="57.711370442889674" y2="55.22380399835377" /><path d="M 25.398753493254645 57.213857153982495 a86.0,86.0 0 0,1 29.58750427330803,-30.492523968695096" fill="none" id="id59" stroke="none" /><text fill="#e1ed5e" style="font-size:6.75px; font-family:Arial;" text-anchor="middle"><textPath startOffset="21.46611528233685" xlink:href="#id59">November</textPath></text><line stroke="#e1ed5e" stroke-width="0.3" x1="56.762969772571076" x2="54.21961505331055" y1="26.818313649435495" y2="22.513508569990535" /><path d="M 56.25429882871897 25.957352633546506 a86.0,86.0 0 0,1 42.265352541879196,-11.944610805530505" fill="none" id="id60" stroke="none" /><text fill="#e1ed5e" style="font-size:6.75px; font-family:Arial;" text-anchor="middle"><textPath startOffset="22.20632615414155" xlink:href="#id60">December</textPath></text></svg>